%TF.GenerationSoftware,KiCad,Pcbnew,8.0.8*%
%TF.CreationDate,2025-01-29T21:57:57-05:00*%
%TF.ProjectId,rasgueado_thumbs,72617367-7565-4616-946f-5f7468756d62,rev?*%
%TF.SameCoordinates,Original*%
%TF.FileFunction,Soldermask,Top*%
%TF.FilePolarity,Negative*%
%FSLAX46Y46*%
G04 Gerber Fmt 4.6, Leading zero omitted, Abs format (unit mm)*
G04 Created by KiCad (PCBNEW 8.0.8) date 2025-01-29 21:57:57*
%MOMM*%
%LPD*%
G01*
G04 APERTURE LIST*
%ADD10C,0.500000*%
%ADD11C,7.400000*%
%ADD12C,1.701800*%
%ADD13C,3.000000*%
%ADD14C,3.987800*%
%ADD15C,1.327000*%
G04 APERTURE END LIST*
D10*
%TO.C,*%
X154681387Y-110386900D03*
X154681387Y-111136900D03*
X154681387Y-111886900D03*
X154681387Y-112636900D03*
X154681387Y-113386900D03*
X154681387Y-114136900D03*
%TD*%
D11*
%TO.C,H4*%
X97686989Y-67741107D03*
%TD*%
%TO.C,H8*%
X198971900Y-67741100D03*
%TD*%
%TO.C,H2*%
X137752989Y-123737107D03*
%TD*%
%TO.C,H6*%
X158855900Y-80137100D03*
%TD*%
D10*
%TO.C,*%
X141861387Y-110386900D03*
X141861387Y-111136900D03*
X141861387Y-111886900D03*
X141861387Y-112636900D03*
X141861387Y-113386900D03*
X141861387Y-114136900D03*
%TD*%
D11*
%TO.C,H7*%
X158905900Y-123737100D03*
%TD*%
%TO.C,H1*%
X82446989Y-139877107D03*
%TD*%
%TO.C,H3*%
X137802989Y-80137107D03*
%TD*%
D10*
%TO.C,*%
X154681387Y-90386900D03*
X154681387Y-91136900D03*
X154681387Y-91886900D03*
X154681387Y-92636900D03*
X154681387Y-93386900D03*
X154681387Y-94136900D03*
%TD*%
D11*
%TO.C,H5*%
X214211900Y-139877100D03*
%TD*%
D10*
%TO.C,*%
X141861387Y-90386900D03*
X141861387Y-91136900D03*
X141861387Y-91886900D03*
X141861387Y-92636900D03*
X141861387Y-93386900D03*
X141861387Y-94136900D03*
%TD*%
D12*
%TO.C,S2*%
X106957989Y-113524607D03*
D13*
X104417989Y-108444607D03*
D14*
X101877989Y-113524607D03*
D13*
X98067989Y-110984607D03*
D12*
X96797989Y-113524607D03*
%TD*%
%TO.C,S9*%
X180810900Y-84949600D03*
D13*
X178270900Y-79869600D03*
D14*
X175730900Y-84949600D03*
D13*
X171920900Y-82409600D03*
D12*
X170650900Y-84949600D03*
%TD*%
%TO.C,S4*%
X126007989Y-103999607D03*
D13*
X123467989Y-98919607D03*
D14*
X120927989Y-103999607D03*
D13*
X117117989Y-101459607D03*
D12*
X115847989Y-103999607D03*
%TD*%
D15*
%TO.C,J1*%
X131408900Y-65762100D03*
X130841253Y-67752772D03*
X129078580Y-66667422D03*
X128510933Y-68658095D03*
X126748260Y-67572745D03*
X126180613Y-69563417D03*
X124417940Y-68478067D03*
X123850293Y-70468739D03*
X122087620Y-69383389D03*
X121519973Y-71374062D03*
X119757300Y-70288712D03*
X119189653Y-72279384D03*
X117426980Y-71194034D03*
%TD*%
%TO.C,J2*%
X179231920Y-71194034D03*
X177469247Y-72279384D03*
X176901600Y-70288712D03*
X175138927Y-71374062D03*
X174571280Y-69383389D03*
X172808607Y-70468739D03*
X172240960Y-68478067D03*
X170478287Y-69563417D03*
X169910640Y-67572745D03*
X168147967Y-68658095D03*
X167580320Y-66667422D03*
X165817647Y-67752772D03*
X165250000Y-65762100D03*
%TD*%
D12*
%TO.C,S12*%
X180810900Y-123049600D03*
D13*
X178270900Y-117969600D03*
D14*
X175730900Y-123049600D03*
D13*
X171920900Y-120509600D03*
D12*
X170650900Y-123049600D03*
%TD*%
%TO.C,S7*%
X208750900Y-113524600D03*
D13*
X211290900Y-118604600D03*
D14*
X213830900Y-113524600D03*
D13*
X217640900Y-116064600D03*
D12*
X218910900Y-113524600D03*
%TD*%
%TO.C,S5*%
X126007989Y-84949607D03*
D13*
X123467989Y-79869607D03*
D14*
X120927989Y-84949607D03*
D13*
X117117989Y-82409607D03*
D12*
X115847989Y-84949607D03*
%TD*%
%TO.C,S6*%
X106957989Y-84949607D03*
D13*
X104417989Y-79869607D03*
D14*
X101877989Y-84949607D03*
D13*
X98067989Y-82409607D03*
D12*
X96797989Y-84949607D03*
%TD*%
%TO.C,S11*%
X199860900Y-113524600D03*
D13*
X197320900Y-108444600D03*
D14*
X194780900Y-113524600D03*
D13*
X190970900Y-110984600D03*
D12*
X189700900Y-113524600D03*
%TD*%
%TO.C,S8*%
X180810900Y-103999600D03*
D13*
X178270900Y-98919600D03*
D14*
X175730900Y-103999600D03*
D13*
X171920900Y-101459600D03*
D12*
X170650900Y-103999600D03*
%TD*%
%TO.C,S3*%
X126007989Y-123049607D03*
D13*
X123467989Y-117969607D03*
D14*
X120927989Y-123049607D03*
D13*
X117117989Y-120509607D03*
D12*
X115847989Y-123049607D03*
%TD*%
%TO.C,S10*%
X199860900Y-84949600D03*
D13*
X197320900Y-79869600D03*
D14*
X194780900Y-84949600D03*
D13*
X190970900Y-82409600D03*
D12*
X189700900Y-84949600D03*
%TD*%
%TO.C,S1*%
X77747989Y-113524607D03*
D13*
X80287989Y-118604607D03*
D14*
X82827989Y-113524607D03*
D13*
X86637989Y-116064607D03*
D12*
X87907989Y-113524607D03*
%TD*%
M02*
