M48
; DRILL file {KiCad 8.0.8} date 2025-01-29T21:57:55-0500
; FORMAT={-:-/ absolute / inch / decimal}
; #@! TF.CreationDate,2025-01-29T21:57:55-05:00
; #@! TF.GenerationSoftware,Kicad,Pcbnew,8.0.8
; #@! TF.FileFunction,Plated,1,2,PTH
FMAT,2
INCH
; #@! TA.AperFunction,Plated,PTH,ViaDrill
T1C0.0118
; #@! TA.AperFunction,Plated,PTH,ComponentDrill
T2C0.0315
; #@! TA.AperFunction,Plated,PTH,ComponentDrill
T3C0.1457
%
G90
G05
T1
X3.3961Y-4.282
X3.8666Y-4.657
X3.8696Y-3.532
X4.6334Y-5.032
X4.6354Y-4.282
X4.6373Y-3.532
X5.0197Y-2.8543
X5.0864Y-2.8011
X6.5085Y-2.7992
X6.5331Y-2.8549
X6.6078Y-2.8587
X6.7791Y-5.032
X6.78Y-3.532
X6.7913Y-4.282
X7.528Y-3.532
X7.5394Y-4.657
X8.563Y-4.282
T2
X4.6231Y-2.8029
X4.6925Y-2.8456
X4.7149Y-2.7673
X4.7843Y-2.81
X4.8066Y-2.7316
X4.876Y-2.7744
X4.8983Y-2.696
X4.9677Y-2.7387
X4.9901Y-2.6603
X5.0595Y-2.7031
X5.0818Y-2.6247
X5.1512Y-2.6674
X5.1736Y-2.5891
X6.5059Y-2.5891
X6.5283Y-2.6674
X6.5977Y-2.6247
X6.62Y-2.7031
X6.6894Y-2.6603
X6.7117Y-2.7387
X6.7811Y-2.696
X6.8035Y-2.7744
X6.8729Y-2.7316
X6.8952Y-2.81
X6.9646Y-2.7673
X6.987Y-2.8456
X7.0564Y-2.8029
T3
X3.2459Y-5.507
X3.8459Y-2.667
X5.4233Y-4.8715
X5.4253Y-3.155
X6.2542Y-3.155
X6.2561Y-4.8715
X7.8335Y-2.667
X8.4335Y-5.507
M30
