M48
; DRILL file {KiCad 8.0.8} date 2025-01-29T21:57:55-0500
; FORMAT={-:-/ absolute / inch / decimal}
; #@! TF.CreationDate,2025-01-29T21:57:55-05:00
; #@! TF.GenerationSoftware,Kicad,Pcbnew,8.0.8
; #@! TF.FileFunction,NonPlated,1,2,NPTH
FMAT,2
INCH
; #@! TA.AperFunction,NonPlated,NPTH,ComponentDrill
T1C0.0197
; #@! TA.AperFunction,NonPlated,NPTH,ComponentDrill
T2C0.0670
; #@! TA.AperFunction,NonPlated,NPTH,ComponentDrill
T3C0.1181
; #@! TA.AperFunction,NonPlated,NPTH,ComponentDrill
T4C0.1570
%
G90
G05
T1
X5.5851Y-3.5585
X5.5851Y-3.5881
X5.5851Y-3.6176
X5.5851Y-3.6471
X5.5851Y-3.6766
X5.5851Y-3.7062
X5.5851Y-4.3459
X5.5851Y-4.3755
X5.5851Y-4.405
X5.5851Y-4.4345
X5.5851Y-4.4641
X5.5851Y-4.4936
X6.0898Y-3.5585
X6.0898Y-3.5881
X6.0898Y-3.6176
X6.0898Y-3.6471
X6.0898Y-3.6766
X6.0898Y-3.7062
X6.0898Y-4.3459
X6.0898Y-4.3755
X6.0898Y-4.405
X6.0898Y-4.4345
X6.0898Y-4.4641
X6.0898Y-4.4936
T2
X3.0609Y-4.4695
X3.4609Y-4.4695
X3.8109Y-3.3445
X3.8109Y-4.4695
X4.2109Y-3.3445
X4.2109Y-4.4695
X4.5609Y-3.3445
X4.5609Y-4.0945
X4.5609Y-4.8445
X4.9609Y-3.3445
X4.9609Y-4.0945
X4.9609Y-4.8445
X6.7185Y-3.3445
X6.7185Y-4.0945
X6.7185Y-4.8445
X7.1185Y-3.3445
X7.1185Y-4.0945
X7.1185Y-4.8445
X7.4685Y-3.3445
X7.4685Y-4.4695
X7.8685Y-3.3445
X7.8685Y-4.4695
X8.2185Y-4.4695
X8.6185Y-4.4695
T3
X3.1609Y-4.6695
X3.4109Y-4.5695
X3.8609Y-3.2445
X3.8609Y-4.3695
X4.1109Y-3.1445
X4.1109Y-4.2695
X4.6109Y-3.2445
X4.6109Y-3.9945
X4.6109Y-4.7445
X4.8609Y-3.1445
X4.8609Y-3.8945
X4.8609Y-4.6445
X6.7685Y-3.2445
X6.7685Y-3.9945
X6.7685Y-4.7445
X7.0185Y-3.1445
X7.0185Y-3.8945
X7.0185Y-4.6445
X7.5185Y-3.2445
X7.5185Y-4.3695
X7.7685Y-3.1445
X7.7685Y-4.2695
X8.3185Y-4.6695
X8.5685Y-4.5695
T4
X3.2609Y-4.4695
X4.0109Y-3.3445
X4.0109Y-4.4695
X4.7609Y-3.3445
X4.7609Y-4.0945
X4.7609Y-4.8445
X6.9185Y-3.3445
X6.9185Y-4.0945
X6.9185Y-4.8445
X7.6685Y-3.3445
X7.6685Y-4.4695
X8.4185Y-4.4695
M30
