%TF.GenerationSoftware,KiCad,Pcbnew,8.0.8*%
%TF.CreationDate,2025-01-29T21:57:57-05:00*%
%TF.ProjectId,rasgueado_thumbs,72617367-7565-4616-946f-5f7468756d62,rev?*%
%TF.SameCoordinates,Original*%
%TF.FileFunction,Profile,NP*%
%FSLAX46Y46*%
G04 Gerber Fmt 4.6, Leading zero omitted, Abs format (unit mm)*
G04 Created by KiCad (PCBNEW 8.0.8) date 2025-01-29 21:57:57*
%MOMM*%
%LPD*%
G01*
G04 APERTURE LIST*
%TA.AperFunction,Profile*%
%ADD10C,0.050000*%
%TD*%
G04 APERTURE END LIST*
D10*
X154999956Y-109262100D02*
X154686445Y-109262100D01*
X86158900Y-99262100D02*
X76408900Y-99262100D01*
X141856329Y-89262100D02*
X141658870Y-89262100D01*
X144255445Y-115261700D02*
X152287329Y-115261700D01*
X141658900Y-132000000D02*
X141658870Y-115261700D01*
X72408900Y-103262100D02*
X72408900Y-145310619D01*
X154999956Y-89262100D02*
X154686445Y-89262100D01*
X141658900Y-132000000D02*
G75*
G02*
X136658900Y-137000000I-5000000J0D01*
G01*
X141658870Y-95261700D02*
X141856329Y-95261700D01*
X136658900Y-61500000D02*
X95158900Y-61500000D01*
X136658900Y-61500000D02*
G75*
G02*
X141658900Y-66500000I0J-5000000D01*
G01*
X152287329Y-95261700D02*
G75*
G02*
X154686445Y-95261700I1199558J-75199D01*
G01*
X154686445Y-89262100D02*
G75*
G02*
X152287329Y-89262100I-1199558J75200D01*
G01*
X141856329Y-109262100D02*
X141658870Y-109262100D01*
X152287329Y-89262100D02*
X144255445Y-89262100D01*
X90158900Y-66500000D02*
G75*
G02*
X95158900Y-61500000I5000000J0D01*
G01*
X136658900Y-137000000D02*
X116158900Y-137000000D01*
X152287329Y-115261700D02*
G75*
G02*
X154686445Y-115261700I1199558J-75199D01*
G01*
X141658900Y-66500000D02*
X141658900Y-89262100D01*
X144255445Y-95261700D02*
X152287329Y-95261700D01*
X116158900Y-137000000D02*
X77609167Y-149126292D01*
X154686445Y-95261700D02*
X154999956Y-95261700D01*
X154999956Y-95261700D02*
X154999956Y-109262100D01*
X155000000Y-66500000D02*
X154999956Y-89262100D01*
X154999956Y-115261700D02*
X155000000Y-132000000D01*
X210500000Y-99262100D02*
G75*
G02*
X206500000Y-95262100I0J4000000D01*
G01*
X141658870Y-109262100D02*
X141658870Y-95261700D01*
X141856329Y-115261700D02*
G75*
G02*
X144255445Y-115261700I1199558J-75199D01*
G01*
X141856329Y-95261700D02*
G75*
G02*
X144255445Y-95261700I1199558J-75199D01*
G01*
X224250000Y-145310619D02*
G75*
G02*
X219049738Y-149126275I-4000000J19D01*
G01*
X77609167Y-149126292D02*
G75*
G02*
X72408882Y-145310619I-1200267J3815692D01*
G01*
X154686445Y-115261700D02*
X154999956Y-115261700D01*
X141658870Y-115261700D02*
X141856329Y-115261700D01*
X160000000Y-137000000D02*
G75*
G02*
X155000000Y-132000000I0J5000000D01*
G01*
X90158900Y-95262100D02*
G75*
G02*
X86158900Y-99262100I-4000000J0D01*
G01*
X144255445Y-89262100D02*
G75*
G02*
X141856329Y-89262100I-1199558J75200D01*
G01*
X160000000Y-61500000D02*
X201500000Y-61500000D01*
X144255445Y-109262100D02*
G75*
G02*
X141856329Y-109262100I-1199558J75200D01*
G01*
X90158900Y-66500000D02*
X90158900Y-95262100D01*
X201500000Y-61500000D02*
G75*
G02*
X206500000Y-66500000I0J-5000000D01*
G01*
X210500000Y-99262100D02*
X220250000Y-99262100D01*
X220250000Y-99262100D02*
G75*
G02*
X224250000Y-103262100I0J-4000000D01*
G01*
X180500000Y-137000000D02*
X219049733Y-149126292D01*
X206500000Y-66500000D02*
X206500000Y-95262100D01*
X224250000Y-103262100D02*
X224250000Y-145310619D01*
X152287329Y-109262100D02*
X144255445Y-109262100D01*
X72408900Y-103262100D02*
G75*
G02*
X76408900Y-99262100I4000000J0D01*
G01*
X154686445Y-109262100D02*
G75*
G02*
X152287329Y-109262100I-1199558J75200D01*
G01*
X155000000Y-66500000D02*
G75*
G02*
X160000000Y-61500000I5000000J0D01*
G01*
X160000000Y-137000000D02*
X180500000Y-137000000D01*
M02*
