%TF.GenerationSoftware,KiCad,Pcbnew,8.0.7*%
%TF.CreationDate,2025-01-12T16:59:08-05:00*%
%TF.ProjectId,rasgueado,72617367-7565-4616-946f-2e6b69636164,rev?*%
%TF.SameCoordinates,Original*%
%TF.FileFunction,Legend,Top*%
%TF.FilePolarity,Positive*%
%FSLAX46Y46*%
G04 Gerber Fmt 4.6, Leading zero omitted, Abs format (unit mm)*
G04 Created by KiCad (PCBNEW 8.0.7) date 2025-01-12 16:59:08*
%MOMM*%
%LPD*%
G01*
G04 APERTURE LIST*
%ADD10C,0.200000*%
%ADD11C,0.000000*%
G04 APERTURE END LIST*
D10*
X140412542Y-112982054D02*
X140460161Y-113029673D01*
X140460161Y-113029673D02*
X140507780Y-113124911D01*
X140507780Y-113124911D02*
X140507780Y-113363006D01*
X140507780Y-113363006D02*
X140460161Y-113458244D01*
X140460161Y-113458244D02*
X140412542Y-113505863D01*
X140412542Y-113505863D02*
X140317304Y-113553482D01*
X140317304Y-113553482D02*
X140222066Y-113553482D01*
X140222066Y-113553482D02*
X140079209Y-113505863D01*
X140079209Y-113505863D02*
X139507780Y-112934435D01*
X139507780Y-112934435D02*
X139507780Y-113553482D01*
X137967780Y-112934435D02*
X137967780Y-113553482D01*
X137967780Y-113553482D02*
X137586828Y-113220149D01*
X137586828Y-113220149D02*
X137586828Y-113363006D01*
X137586828Y-113363006D02*
X137539209Y-113458244D01*
X137539209Y-113458244D02*
X137491590Y-113505863D01*
X137491590Y-113505863D02*
X137396352Y-113553482D01*
X137396352Y-113553482D02*
X137158257Y-113553482D01*
X137158257Y-113553482D02*
X137063019Y-113505863D01*
X137063019Y-113505863D02*
X137015400Y-113458244D01*
X137015400Y-113458244D02*
X136967780Y-113363006D01*
X136967780Y-113363006D02*
X136967780Y-113077292D01*
X136967780Y-113077292D02*
X137015400Y-112982054D01*
X137015400Y-112982054D02*
X137063019Y-112934435D01*
X132887780Y-113505863D02*
X132887780Y-113029673D01*
X132887780Y-113029673D02*
X132411590Y-112982054D01*
X132411590Y-112982054D02*
X132459209Y-113029673D01*
X132459209Y-113029673D02*
X132506828Y-113124911D01*
X132506828Y-113124911D02*
X132506828Y-113363006D01*
X132506828Y-113363006D02*
X132459209Y-113458244D01*
X132459209Y-113458244D02*
X132411590Y-113505863D01*
X132411590Y-113505863D02*
X132316352Y-113553482D01*
X132316352Y-113553482D02*
X132078257Y-113553482D01*
X132078257Y-113553482D02*
X131983019Y-113505863D01*
X131983019Y-113505863D02*
X131935400Y-113458244D01*
X131935400Y-113458244D02*
X131887780Y-113363006D01*
X131887780Y-113363006D02*
X131887780Y-113124911D01*
X131887780Y-113124911D02*
X131935400Y-113029673D01*
X131935400Y-113029673D02*
X131983019Y-112982054D01*
X129347780Y-91065564D02*
X129347780Y-90494136D01*
X129347780Y-90779850D02*
X130347780Y-90779850D01*
X130347780Y-90779850D02*
X130204923Y-90684612D01*
X130204923Y-90684612D02*
X130109685Y-90589374D01*
X130109685Y-90589374D02*
X130062066Y-90494136D01*
X130347780Y-91970326D02*
X130347780Y-91494136D01*
X130347780Y-91494136D02*
X129871590Y-91446517D01*
X129871590Y-91446517D02*
X129919209Y-91494136D01*
X129919209Y-91494136D02*
X129966828Y-91589374D01*
X129966828Y-91589374D02*
X129966828Y-91827469D01*
X129966828Y-91827469D02*
X129919209Y-91922707D01*
X129919209Y-91922707D02*
X129871590Y-91970326D01*
X129871590Y-91970326D02*
X129776352Y-92017945D01*
X129776352Y-92017945D02*
X129538257Y-92017945D01*
X129538257Y-92017945D02*
X129443019Y-91970326D01*
X129443019Y-91970326D02*
X129395400Y-91922707D01*
X129395400Y-91922707D02*
X129347780Y-91827469D01*
X129347780Y-91827469D02*
X129347780Y-91589374D01*
X129347780Y-91589374D02*
X129395400Y-91494136D01*
X129395400Y-91494136D02*
X129443019Y-91446517D01*
X124267780Y-91065564D02*
X124267780Y-90494136D01*
X124267780Y-90779850D02*
X125267780Y-90779850D01*
X125267780Y-90779850D02*
X125124923Y-90684612D01*
X125124923Y-90684612D02*
X125029685Y-90589374D01*
X125029685Y-90589374D02*
X124982066Y-90494136D01*
X125267780Y-91922707D02*
X125267780Y-91732231D01*
X125267780Y-91732231D02*
X125220161Y-91636993D01*
X125220161Y-91636993D02*
X125172542Y-91589374D01*
X125172542Y-91589374D02*
X125029685Y-91494136D01*
X125029685Y-91494136D02*
X124839209Y-91446517D01*
X124839209Y-91446517D02*
X124458257Y-91446517D01*
X124458257Y-91446517D02*
X124363019Y-91494136D01*
X124363019Y-91494136D02*
X124315400Y-91541755D01*
X124315400Y-91541755D02*
X124267780Y-91636993D01*
X124267780Y-91636993D02*
X124267780Y-91827469D01*
X124267780Y-91827469D02*
X124315400Y-91922707D01*
X124315400Y-91922707D02*
X124363019Y-91970326D01*
X124363019Y-91970326D02*
X124458257Y-92017945D01*
X124458257Y-92017945D02*
X124696352Y-92017945D01*
X124696352Y-92017945D02*
X124791590Y-91970326D01*
X124791590Y-91970326D02*
X124839209Y-91922707D01*
X124839209Y-91922707D02*
X124886828Y-91827469D01*
X124886828Y-91827469D02*
X124886828Y-91636993D01*
X124886828Y-91636993D02*
X124839209Y-91541755D01*
X124839209Y-91541755D02*
X124791590Y-91494136D01*
X124791590Y-91494136D02*
X124696352Y-91446517D01*
X126807780Y-91065564D02*
X126807780Y-90494136D01*
X126807780Y-90779850D02*
X127807780Y-90779850D01*
X127807780Y-90779850D02*
X127664923Y-90684612D01*
X127664923Y-90684612D02*
X127569685Y-90589374D01*
X127569685Y-90589374D02*
X127522066Y-90494136D01*
X127474447Y-91922707D02*
X126807780Y-91922707D01*
X127855400Y-91684612D02*
X127141114Y-91446517D01*
X127141114Y-91446517D02*
X127141114Y-92065564D01*
X148080161Y-90582707D02*
X148127780Y-90487469D01*
X148127780Y-90487469D02*
X148127780Y-90344612D01*
X148127780Y-90344612D02*
X148080161Y-90201755D01*
X148080161Y-90201755D02*
X147984923Y-90106517D01*
X147984923Y-90106517D02*
X147889685Y-90058898D01*
X147889685Y-90058898D02*
X147699209Y-90011279D01*
X147699209Y-90011279D02*
X147556352Y-90011279D01*
X147556352Y-90011279D02*
X147365876Y-90058898D01*
X147365876Y-90058898D02*
X147270638Y-90106517D01*
X147270638Y-90106517D02*
X147175400Y-90201755D01*
X147175400Y-90201755D02*
X147127780Y-90344612D01*
X147127780Y-90344612D02*
X147127780Y-90439850D01*
X147127780Y-90439850D02*
X147175400Y-90582707D01*
X147175400Y-90582707D02*
X147223019Y-90630326D01*
X147223019Y-90630326D02*
X147556352Y-90630326D01*
X147556352Y-90630326D02*
X147556352Y-90439850D01*
X147127780Y-91058898D02*
X148127780Y-91058898D01*
X148127780Y-91058898D02*
X147127780Y-91630326D01*
X147127780Y-91630326D02*
X148127780Y-91630326D01*
X147127780Y-92106517D02*
X148127780Y-92106517D01*
X148127780Y-92106517D02*
X148127780Y-92344612D01*
X148127780Y-92344612D02*
X148080161Y-92487469D01*
X148080161Y-92487469D02*
X147984923Y-92582707D01*
X147984923Y-92582707D02*
X147889685Y-92630326D01*
X147889685Y-92630326D02*
X147699209Y-92677945D01*
X147699209Y-92677945D02*
X147556352Y-92677945D01*
X147556352Y-92677945D02*
X147365876Y-92630326D01*
X147365876Y-92630326D02*
X147270638Y-92582707D01*
X147270638Y-92582707D02*
X147175400Y-92487469D01*
X147175400Y-92487469D02*
X147127780Y-92344612D01*
X147127780Y-92344612D02*
X147127780Y-92106517D01*
X148127780Y-112560149D02*
X148127780Y-112655387D01*
X148127780Y-112655387D02*
X148080161Y-112750625D01*
X148080161Y-112750625D02*
X148032542Y-112798244D01*
X148032542Y-112798244D02*
X147937304Y-112845863D01*
X147937304Y-112845863D02*
X147746828Y-112893482D01*
X147746828Y-112893482D02*
X147508733Y-112893482D01*
X147508733Y-112893482D02*
X147318257Y-112845863D01*
X147318257Y-112845863D02*
X147223019Y-112798244D01*
X147223019Y-112798244D02*
X147175400Y-112750625D01*
X147175400Y-112750625D02*
X147127780Y-112655387D01*
X147127780Y-112655387D02*
X147127780Y-112560149D01*
X147127780Y-112560149D02*
X147175400Y-112464911D01*
X147175400Y-112464911D02*
X147223019Y-112417292D01*
X147223019Y-112417292D02*
X147318257Y-112369673D01*
X147318257Y-112369673D02*
X147508733Y-112322054D01*
X147508733Y-112322054D02*
X147746828Y-112322054D01*
X147746828Y-112322054D02*
X147937304Y-112369673D01*
X147937304Y-112369673D02*
X148032542Y-112417292D01*
X148032542Y-112417292D02*
X148080161Y-112464911D01*
X148080161Y-112464911D02*
X148127780Y-112560149D01*
X143000161Y-112893482D02*
X143047780Y-112798244D01*
X143047780Y-112798244D02*
X143047780Y-112655387D01*
X143047780Y-112655387D02*
X143000161Y-112512530D01*
X143000161Y-112512530D02*
X142904923Y-112417292D01*
X142904923Y-112417292D02*
X142809685Y-112369673D01*
X142809685Y-112369673D02*
X142619209Y-112322054D01*
X142619209Y-112322054D02*
X142476352Y-112322054D01*
X142476352Y-112322054D02*
X142285876Y-112369673D01*
X142285876Y-112369673D02*
X142190638Y-112417292D01*
X142190638Y-112417292D02*
X142095400Y-112512530D01*
X142095400Y-112512530D02*
X142047780Y-112655387D01*
X142047780Y-112655387D02*
X142047780Y-112750625D01*
X142047780Y-112750625D02*
X142095400Y-112893482D01*
X142095400Y-112893482D02*
X142143019Y-112941101D01*
X142143019Y-112941101D02*
X142476352Y-112941101D01*
X142476352Y-112941101D02*
X142476352Y-112750625D01*
X142047780Y-113369673D02*
X143047780Y-113369673D01*
X143047780Y-113369673D02*
X142047780Y-113941101D01*
X142047780Y-113941101D02*
X143047780Y-113941101D01*
X142047780Y-114417292D02*
X143047780Y-114417292D01*
X143047780Y-114417292D02*
X143047780Y-114655387D01*
X143047780Y-114655387D02*
X143000161Y-114798244D01*
X143000161Y-114798244D02*
X142904923Y-114893482D01*
X142904923Y-114893482D02*
X142809685Y-114941101D01*
X142809685Y-114941101D02*
X142619209Y-114988720D01*
X142619209Y-114988720D02*
X142476352Y-114988720D01*
X142476352Y-114988720D02*
X142285876Y-114941101D01*
X142285876Y-114941101D02*
X142190638Y-114893482D01*
X142190638Y-114893482D02*
X142095400Y-114798244D01*
X142095400Y-114798244D02*
X142047780Y-114655387D01*
X142047780Y-114655387D02*
X142047780Y-114417292D01*
X149667780Y-112893482D02*
X149667780Y-112322054D01*
X149667780Y-112607768D02*
X150667780Y-112607768D01*
X150667780Y-112607768D02*
X150524923Y-112512530D01*
X150524923Y-112512530D02*
X150429685Y-112417292D01*
X150429685Y-112417292D02*
X150382066Y-112322054D01*
X150191590Y-91201755D02*
X150143971Y-91344612D01*
X150143971Y-91344612D02*
X150096352Y-91392231D01*
X150096352Y-91392231D02*
X150001114Y-91439850D01*
X150001114Y-91439850D02*
X149858257Y-91439850D01*
X149858257Y-91439850D02*
X149763019Y-91392231D01*
X149763019Y-91392231D02*
X149715400Y-91344612D01*
X149715400Y-91344612D02*
X149667780Y-91249374D01*
X149667780Y-91249374D02*
X149667780Y-90868422D01*
X149667780Y-90868422D02*
X150667780Y-90868422D01*
X150667780Y-90868422D02*
X150667780Y-91201755D01*
X150667780Y-91201755D02*
X150620161Y-91296993D01*
X150620161Y-91296993D02*
X150572542Y-91344612D01*
X150572542Y-91344612D02*
X150477304Y-91392231D01*
X150477304Y-91392231D02*
X150382066Y-91392231D01*
X150382066Y-91392231D02*
X150286828Y-91344612D01*
X150286828Y-91344612D02*
X150239209Y-91296993D01*
X150239209Y-91296993D02*
X150191590Y-91201755D01*
X150191590Y-91201755D02*
X150191590Y-90868422D01*
X150048733Y-91868422D02*
X150048733Y-92630327D01*
X149667780Y-92249374D02*
X150429685Y-92249374D01*
X145000161Y-112893482D02*
X145047780Y-112798244D01*
X145047780Y-112798244D02*
X145047780Y-112655387D01*
X145047780Y-112655387D02*
X145000161Y-112512530D01*
X145000161Y-112512530D02*
X144904923Y-112417292D01*
X144904923Y-112417292D02*
X144809685Y-112369673D01*
X144809685Y-112369673D02*
X144619209Y-112322054D01*
X144619209Y-112322054D02*
X144476352Y-112322054D01*
X144476352Y-112322054D02*
X144285876Y-112369673D01*
X144285876Y-112369673D02*
X144190638Y-112417292D01*
X144190638Y-112417292D02*
X144095400Y-112512530D01*
X144095400Y-112512530D02*
X144047780Y-112655387D01*
X144047780Y-112655387D02*
X144047780Y-112750625D01*
X144047780Y-112750625D02*
X144095400Y-112893482D01*
X144095400Y-112893482D02*
X144143019Y-112941101D01*
X144143019Y-112941101D02*
X144476352Y-112941101D01*
X144476352Y-112941101D02*
X144476352Y-112750625D01*
X144047780Y-113369673D02*
X145047780Y-113369673D01*
X145047780Y-113369673D02*
X144047780Y-113941101D01*
X144047780Y-113941101D02*
X145047780Y-113941101D01*
X144047780Y-114417292D02*
X145047780Y-114417292D01*
X145047780Y-114417292D02*
X145047780Y-114655387D01*
X145047780Y-114655387D02*
X145000161Y-114798244D01*
X145000161Y-114798244D02*
X144904923Y-114893482D01*
X144904923Y-114893482D02*
X144809685Y-114941101D01*
X144809685Y-114941101D02*
X144619209Y-114988720D01*
X144619209Y-114988720D02*
X144476352Y-114988720D01*
X144476352Y-114988720D02*
X144285876Y-114941101D01*
X144285876Y-114941101D02*
X144190638Y-114893482D01*
X144190638Y-114893482D02*
X144095400Y-114798244D01*
X144095400Y-114798244D02*
X144047780Y-114655387D01*
X144047780Y-114655387D02*
X144047780Y-114417292D01*
X140412542Y-90494136D02*
X140460161Y-90541755D01*
X140460161Y-90541755D02*
X140507780Y-90636993D01*
X140507780Y-90636993D02*
X140507780Y-90875088D01*
X140507780Y-90875088D02*
X140460161Y-90970326D01*
X140460161Y-90970326D02*
X140412542Y-91017945D01*
X140412542Y-91017945D02*
X140317304Y-91065564D01*
X140317304Y-91065564D02*
X140222066Y-91065564D01*
X140222066Y-91065564D02*
X140079209Y-91017945D01*
X140079209Y-91017945D02*
X139507780Y-90446517D01*
X139507780Y-90446517D02*
X139507780Y-91065564D01*
X139507780Y-92017945D02*
X139507780Y-91446517D01*
X139507780Y-91732231D02*
X140507780Y-91732231D01*
X140507780Y-91732231D02*
X140364923Y-91636993D01*
X140364923Y-91636993D02*
X140269685Y-91541755D01*
X140269685Y-91541755D02*
X140222066Y-91446517D01*
X127807780Y-112934435D02*
X127807780Y-113601101D01*
X127807780Y-113601101D02*
X126807780Y-113172530D01*
X125172542Y-104754286D02*
X125220161Y-104801905D01*
X125220161Y-104801905D02*
X125267780Y-104897143D01*
X125267780Y-104897143D02*
X125267780Y-105135238D01*
X125267780Y-105135238D02*
X125220161Y-105230476D01*
X125220161Y-105230476D02*
X125172542Y-105278095D01*
X125172542Y-105278095D02*
X125077304Y-105325714D01*
X125077304Y-105325714D02*
X124982066Y-105325714D01*
X124982066Y-105325714D02*
X124839209Y-105278095D01*
X124839209Y-105278095D02*
X124267780Y-104706667D01*
X124267780Y-104706667D02*
X124267780Y-105325714D01*
X137872542Y-90494136D02*
X137920161Y-90541755D01*
X137920161Y-90541755D02*
X137967780Y-90636993D01*
X137967780Y-90636993D02*
X137967780Y-90875088D01*
X137967780Y-90875088D02*
X137920161Y-90970326D01*
X137920161Y-90970326D02*
X137872542Y-91017945D01*
X137872542Y-91017945D02*
X137777304Y-91065564D01*
X137777304Y-91065564D02*
X137682066Y-91065564D01*
X137682066Y-91065564D02*
X137539209Y-91017945D01*
X137539209Y-91017945D02*
X136967780Y-90446517D01*
X136967780Y-90446517D02*
X136967780Y-91065564D01*
X137967780Y-91684612D02*
X137967780Y-91779850D01*
X137967780Y-91779850D02*
X137920161Y-91875088D01*
X137920161Y-91875088D02*
X137872542Y-91922707D01*
X137872542Y-91922707D02*
X137777304Y-91970326D01*
X137777304Y-91970326D02*
X137586828Y-92017945D01*
X137586828Y-92017945D02*
X137348733Y-92017945D01*
X137348733Y-92017945D02*
X137158257Y-91970326D01*
X137158257Y-91970326D02*
X137063019Y-91922707D01*
X137063019Y-91922707D02*
X137015400Y-91875088D01*
X137015400Y-91875088D02*
X136967780Y-91779850D01*
X136967780Y-91779850D02*
X136967780Y-91684612D01*
X136967780Y-91684612D02*
X137015400Y-91589374D01*
X137015400Y-91589374D02*
X137063019Y-91541755D01*
X137063019Y-91541755D02*
X137158257Y-91494136D01*
X137158257Y-91494136D02*
X137348733Y-91446517D01*
X137348733Y-91446517D02*
X137586828Y-91446517D01*
X137586828Y-91446517D02*
X137777304Y-91494136D01*
X137777304Y-91494136D02*
X137872542Y-91541755D01*
X137872542Y-91541755D02*
X137920161Y-91589374D01*
X137920161Y-91589374D02*
X137967780Y-91684612D01*
X135094447Y-113458244D02*
X134427780Y-113458244D01*
X135475400Y-113220149D02*
X134761114Y-112982054D01*
X134761114Y-112982054D02*
X134761114Y-113601101D01*
X121727780Y-113077292D02*
X121727780Y-113267768D01*
X121727780Y-113267768D02*
X121775400Y-113363006D01*
X121775400Y-113363006D02*
X121823019Y-113410625D01*
X121823019Y-113410625D02*
X121965876Y-113505863D01*
X121965876Y-113505863D02*
X122156352Y-113553482D01*
X122156352Y-113553482D02*
X122537304Y-113553482D01*
X122537304Y-113553482D02*
X122632542Y-113505863D01*
X122632542Y-113505863D02*
X122680161Y-113458244D01*
X122680161Y-113458244D02*
X122727780Y-113363006D01*
X122727780Y-113363006D02*
X122727780Y-113172530D01*
X122727780Y-113172530D02*
X122680161Y-113077292D01*
X122680161Y-113077292D02*
X122632542Y-113029673D01*
X122632542Y-113029673D02*
X122537304Y-112982054D01*
X122537304Y-112982054D02*
X122299209Y-112982054D01*
X122299209Y-112982054D02*
X122203971Y-113029673D01*
X122203971Y-113029673D02*
X122156352Y-113077292D01*
X122156352Y-113077292D02*
X122108733Y-113172530D01*
X122108733Y-113172530D02*
X122108733Y-113363006D01*
X122108733Y-113363006D02*
X122156352Y-113458244D01*
X122156352Y-113458244D02*
X122203971Y-113505863D01*
X122203971Y-113505863D02*
X122299209Y-113553482D01*
X124267780Y-107865714D02*
X124267780Y-107294286D01*
X124267780Y-107580000D02*
X125267780Y-107580000D01*
X125267780Y-107580000D02*
X125124923Y-107484762D01*
X125124923Y-107484762D02*
X125029685Y-107389524D01*
X125029685Y-107389524D02*
X124982066Y-107294286D01*
X130347780Y-113458244D02*
X130347780Y-113267768D01*
X130347780Y-113267768D02*
X130300161Y-113172530D01*
X130300161Y-113172530D02*
X130252542Y-113124911D01*
X130252542Y-113124911D02*
X130109685Y-113029673D01*
X130109685Y-113029673D02*
X129919209Y-112982054D01*
X129919209Y-112982054D02*
X129538257Y-112982054D01*
X129538257Y-112982054D02*
X129443019Y-113029673D01*
X129443019Y-113029673D02*
X129395400Y-113077292D01*
X129395400Y-113077292D02*
X129347780Y-113172530D01*
X129347780Y-113172530D02*
X129347780Y-113363006D01*
X129347780Y-113363006D02*
X129395400Y-113458244D01*
X129395400Y-113458244D02*
X129443019Y-113505863D01*
X129443019Y-113505863D02*
X129538257Y-113553482D01*
X129538257Y-113553482D02*
X129776352Y-113553482D01*
X129776352Y-113553482D02*
X129871590Y-113505863D01*
X129871590Y-113505863D02*
X129919209Y-113458244D01*
X129919209Y-113458244D02*
X129966828Y-113363006D01*
X129966828Y-113363006D02*
X129966828Y-113172530D01*
X129966828Y-113172530D02*
X129919209Y-113077292D01*
X129919209Y-113077292D02*
X129871590Y-113029673D01*
X129871590Y-113029673D02*
X129776352Y-112982054D01*
X134427780Y-91065564D02*
X134427780Y-90494136D01*
X134427780Y-90779850D02*
X135427780Y-90779850D01*
X135427780Y-90779850D02*
X135284923Y-90684612D01*
X135284923Y-90684612D02*
X135189685Y-90589374D01*
X135189685Y-90589374D02*
X135142066Y-90494136D01*
X134427780Y-91541755D02*
X134427780Y-91732231D01*
X134427780Y-91732231D02*
X134475400Y-91827469D01*
X134475400Y-91827469D02*
X134523019Y-91875088D01*
X134523019Y-91875088D02*
X134665876Y-91970326D01*
X134665876Y-91970326D02*
X134856352Y-92017945D01*
X134856352Y-92017945D02*
X135237304Y-92017945D01*
X135237304Y-92017945D02*
X135332542Y-91970326D01*
X135332542Y-91970326D02*
X135380161Y-91922707D01*
X135380161Y-91922707D02*
X135427780Y-91827469D01*
X135427780Y-91827469D02*
X135427780Y-91636993D01*
X135427780Y-91636993D02*
X135380161Y-91541755D01*
X135380161Y-91541755D02*
X135332542Y-91494136D01*
X135332542Y-91494136D02*
X135237304Y-91446517D01*
X135237304Y-91446517D02*
X134999209Y-91446517D01*
X134999209Y-91446517D02*
X134903971Y-91494136D01*
X134903971Y-91494136D02*
X134856352Y-91541755D01*
X134856352Y-91541755D02*
X134808733Y-91636993D01*
X134808733Y-91636993D02*
X134808733Y-91827469D01*
X134808733Y-91827469D02*
X134856352Y-91922707D01*
X134856352Y-91922707D02*
X134903971Y-91970326D01*
X134903971Y-91970326D02*
X134999209Y-92017945D01*
X131887780Y-91065564D02*
X131887780Y-90494136D01*
X131887780Y-90779850D02*
X132887780Y-90779850D01*
X132887780Y-90779850D02*
X132744923Y-90684612D01*
X132744923Y-90684612D02*
X132649685Y-90589374D01*
X132649685Y-90589374D02*
X132602066Y-90494136D01*
X132459209Y-91636993D02*
X132506828Y-91541755D01*
X132506828Y-91541755D02*
X132554447Y-91494136D01*
X132554447Y-91494136D02*
X132649685Y-91446517D01*
X132649685Y-91446517D02*
X132697304Y-91446517D01*
X132697304Y-91446517D02*
X132792542Y-91494136D01*
X132792542Y-91494136D02*
X132840161Y-91541755D01*
X132840161Y-91541755D02*
X132887780Y-91636993D01*
X132887780Y-91636993D02*
X132887780Y-91827469D01*
X132887780Y-91827469D02*
X132840161Y-91922707D01*
X132840161Y-91922707D02*
X132792542Y-91970326D01*
X132792542Y-91970326D02*
X132697304Y-92017945D01*
X132697304Y-92017945D02*
X132649685Y-92017945D01*
X132649685Y-92017945D02*
X132554447Y-91970326D01*
X132554447Y-91970326D02*
X132506828Y-91922707D01*
X132506828Y-91922707D02*
X132459209Y-91827469D01*
X132459209Y-91827469D02*
X132459209Y-91636993D01*
X132459209Y-91636993D02*
X132411590Y-91541755D01*
X132411590Y-91541755D02*
X132363971Y-91494136D01*
X132363971Y-91494136D02*
X132268733Y-91446517D01*
X132268733Y-91446517D02*
X132078257Y-91446517D01*
X132078257Y-91446517D02*
X131983019Y-91494136D01*
X131983019Y-91494136D02*
X131935400Y-91541755D01*
X131935400Y-91541755D02*
X131887780Y-91636993D01*
X131887780Y-91636993D02*
X131887780Y-91827469D01*
X131887780Y-91827469D02*
X131935400Y-91922707D01*
X131935400Y-91922707D02*
X131983019Y-91970326D01*
X131983019Y-91970326D02*
X132078257Y-92017945D01*
X132078257Y-92017945D02*
X132268733Y-92017945D01*
X132268733Y-92017945D02*
X132363971Y-91970326D01*
X132363971Y-91970326D02*
X132411590Y-91922707D01*
X132411590Y-91922707D02*
X132459209Y-91827469D01*
X121727780Y-91065564D02*
X121727780Y-90494136D01*
X121727780Y-90779850D02*
X122727780Y-90779850D01*
X122727780Y-90779850D02*
X122584923Y-90684612D01*
X122584923Y-90684612D02*
X122489685Y-90589374D01*
X122489685Y-90589374D02*
X122442066Y-90494136D01*
X122727780Y-91684612D02*
X122727780Y-91779850D01*
X122727780Y-91779850D02*
X122680161Y-91875088D01*
X122680161Y-91875088D02*
X122632542Y-91922707D01*
X122632542Y-91922707D02*
X122537304Y-91970326D01*
X122537304Y-91970326D02*
X122346828Y-92017945D01*
X122346828Y-92017945D02*
X122108733Y-92017945D01*
X122108733Y-92017945D02*
X121918257Y-91970326D01*
X121918257Y-91970326D02*
X121823019Y-91922707D01*
X121823019Y-91922707D02*
X121775400Y-91875088D01*
X121775400Y-91875088D02*
X121727780Y-91779850D01*
X121727780Y-91779850D02*
X121727780Y-91684612D01*
X121727780Y-91684612D02*
X121775400Y-91589374D01*
X121775400Y-91589374D02*
X121823019Y-91541755D01*
X121823019Y-91541755D02*
X121918257Y-91494136D01*
X121918257Y-91494136D02*
X122108733Y-91446517D01*
X122108733Y-91446517D02*
X122346828Y-91446517D01*
X122346828Y-91446517D02*
X122537304Y-91494136D01*
X122537304Y-91494136D02*
X122632542Y-91541755D01*
X122632542Y-91541755D02*
X122680161Y-91589374D01*
X122680161Y-91589374D02*
X122727780Y-91684612D01*
X144587780Y-90963659D02*
X145063971Y-90630326D01*
X144587780Y-90392231D02*
X145587780Y-90392231D01*
X145587780Y-90392231D02*
X145587780Y-90773183D01*
X145587780Y-90773183D02*
X145540161Y-90868421D01*
X145540161Y-90868421D02*
X145492542Y-90916040D01*
X145492542Y-90916040D02*
X145397304Y-90963659D01*
X145397304Y-90963659D02*
X145254447Y-90963659D01*
X145254447Y-90963659D02*
X145159209Y-90916040D01*
X145159209Y-90916040D02*
X145111590Y-90868421D01*
X145111590Y-90868421D02*
X145063971Y-90773183D01*
X145063971Y-90773183D02*
X145063971Y-90392231D01*
X144635400Y-91344612D02*
X144587780Y-91487469D01*
X144587780Y-91487469D02*
X144587780Y-91725564D01*
X144587780Y-91725564D02*
X144635400Y-91820802D01*
X144635400Y-91820802D02*
X144683019Y-91868421D01*
X144683019Y-91868421D02*
X144778257Y-91916040D01*
X144778257Y-91916040D02*
X144873495Y-91916040D01*
X144873495Y-91916040D02*
X144968733Y-91868421D01*
X144968733Y-91868421D02*
X145016352Y-91820802D01*
X145016352Y-91820802D02*
X145063971Y-91725564D01*
X145063971Y-91725564D02*
X145111590Y-91535088D01*
X145111590Y-91535088D02*
X145159209Y-91439850D01*
X145159209Y-91439850D02*
X145206828Y-91392231D01*
X145206828Y-91392231D02*
X145302066Y-91344612D01*
X145302066Y-91344612D02*
X145397304Y-91344612D01*
X145397304Y-91344612D02*
X145492542Y-91392231D01*
X145492542Y-91392231D02*
X145540161Y-91439850D01*
X145540161Y-91439850D02*
X145587780Y-91535088D01*
X145587780Y-91535088D02*
X145587780Y-91773183D01*
X145587780Y-91773183D02*
X145540161Y-91916040D01*
X145587780Y-92201755D02*
X145587780Y-92773183D01*
X144587780Y-92487469D02*
X145587780Y-92487469D01*
X125267782Y-102166667D02*
X125267782Y-102833333D01*
X125267782Y-102833333D02*
X124267782Y-102404762D01*
X143047780Y-89868422D02*
X143047780Y-90487469D01*
X143047780Y-90487469D02*
X142666828Y-90154136D01*
X142666828Y-90154136D02*
X142666828Y-90296993D01*
X142666828Y-90296993D02*
X142619209Y-90392231D01*
X142619209Y-90392231D02*
X142571590Y-90439850D01*
X142571590Y-90439850D02*
X142476352Y-90487469D01*
X142476352Y-90487469D02*
X142238257Y-90487469D01*
X142238257Y-90487469D02*
X142143019Y-90439850D01*
X142143019Y-90439850D02*
X142095400Y-90392231D01*
X142095400Y-90392231D02*
X142047780Y-90296993D01*
X142047780Y-90296993D02*
X142047780Y-90011279D01*
X142047780Y-90011279D02*
X142095400Y-89916041D01*
X142095400Y-89916041D02*
X142143019Y-89868422D01*
X142143019Y-90916041D02*
X142095400Y-90963660D01*
X142095400Y-90963660D02*
X142047780Y-90916041D01*
X142047780Y-90916041D02*
X142095400Y-90868422D01*
X142095400Y-90868422D02*
X142143019Y-90916041D01*
X142143019Y-90916041D02*
X142047780Y-90916041D01*
X143047780Y-91296993D02*
X143047780Y-91916040D01*
X143047780Y-91916040D02*
X142666828Y-91582707D01*
X142666828Y-91582707D02*
X142666828Y-91725564D01*
X142666828Y-91725564D02*
X142619209Y-91820802D01*
X142619209Y-91820802D02*
X142571590Y-91868421D01*
X142571590Y-91868421D02*
X142476352Y-91916040D01*
X142476352Y-91916040D02*
X142238257Y-91916040D01*
X142238257Y-91916040D02*
X142143019Y-91868421D01*
X142143019Y-91868421D02*
X142095400Y-91820802D01*
X142095400Y-91820802D02*
X142047780Y-91725564D01*
X142047780Y-91725564D02*
X142047780Y-91439850D01*
X142047780Y-91439850D02*
X142095400Y-91344612D01*
X142095400Y-91344612D02*
X142143019Y-91296993D01*
X142714447Y-92249374D02*
X142047780Y-92487469D01*
X142047780Y-92487469D02*
X142714447Y-92725564D01*
X124839209Y-113172530D02*
X124886828Y-113077292D01*
X124886828Y-113077292D02*
X124934447Y-113029673D01*
X124934447Y-113029673D02*
X125029685Y-112982054D01*
X125029685Y-112982054D02*
X125077304Y-112982054D01*
X125077304Y-112982054D02*
X125172542Y-113029673D01*
X125172542Y-113029673D02*
X125220161Y-113077292D01*
X125220161Y-113077292D02*
X125267780Y-113172530D01*
X125267780Y-113172530D02*
X125267780Y-113363006D01*
X125267780Y-113363006D02*
X125220161Y-113458244D01*
X125220161Y-113458244D02*
X125172542Y-113505863D01*
X125172542Y-113505863D02*
X125077304Y-113553482D01*
X125077304Y-113553482D02*
X125029685Y-113553482D01*
X125029685Y-113553482D02*
X124934447Y-113505863D01*
X124934447Y-113505863D02*
X124886828Y-113458244D01*
X124886828Y-113458244D02*
X124839209Y-113363006D01*
X124839209Y-113363006D02*
X124839209Y-113172530D01*
X124839209Y-113172530D02*
X124791590Y-113077292D01*
X124791590Y-113077292D02*
X124743971Y-113029673D01*
X124743971Y-113029673D02*
X124648733Y-112982054D01*
X124648733Y-112982054D02*
X124458257Y-112982054D01*
X124458257Y-112982054D02*
X124363019Y-113029673D01*
X124363019Y-113029673D02*
X124315400Y-113077292D01*
X124315400Y-113077292D02*
X124267780Y-113172530D01*
X124267780Y-113172530D02*
X124267780Y-113363006D01*
X124267780Y-113363006D02*
X124315400Y-113458244D01*
X124315400Y-113458244D02*
X124363019Y-113505863D01*
X124363019Y-113505863D02*
X124458257Y-113553482D01*
X124458257Y-113553482D02*
X124648733Y-113553482D01*
X124648733Y-113553482D02*
X124743971Y-113505863D01*
X124743971Y-113505863D02*
X124791590Y-113458244D01*
X124791590Y-113458244D02*
X124839209Y-113363006D01*
D11*
%TO.C,G\u002A\u002A\u002A*%
G36*
X174167144Y-94329866D02*
G01*
X174369486Y-94330299D01*
X174528282Y-94331561D01*
X174651981Y-94334320D01*
X174749032Y-94339245D01*
X174827886Y-94347005D01*
X174896990Y-94358269D01*
X174964794Y-94373706D01*
X175039749Y-94393986D01*
X175064073Y-94400880D01*
X175305111Y-94474039D01*
X175506486Y-94546771D01*
X175680120Y-94625177D01*
X175837933Y-94715357D01*
X175991849Y-94823411D01*
X176153788Y-94955440D01*
X176162507Y-94962951D01*
X176281430Y-95068360D01*
X176404480Y-95182035D01*
X176516604Y-95289821D01*
X176597953Y-95372446D01*
X176759160Y-95567806D01*
X176922523Y-95813244D01*
X177087095Y-96106935D01*
X177251931Y-96447056D01*
X177416087Y-96831779D01*
X177578616Y-97259282D01*
X177586035Y-97279938D01*
X177616784Y-97364993D01*
X177640032Y-97427855D01*
X177650913Y-97455379D01*
X177651019Y-97455553D01*
X177676617Y-97453190D01*
X177743322Y-97441960D01*
X177841343Y-97423631D01*
X177960889Y-97399967D01*
X177975215Y-97397057D01*
X178116179Y-97368371D01*
X178214014Y-97349102D01*
X178276591Y-97338531D01*
X178311777Y-97335937D01*
X178327443Y-97340600D01*
X178331457Y-97351798D01*
X178331559Y-97364432D01*
X178337273Y-97411654D01*
X178350103Y-97477535D01*
X178368237Y-97558141D01*
X178087547Y-97614045D01*
X177970762Y-97636754D01*
X177871559Y-97655021D01*
X177801816Y-97666723D01*
X177775103Y-97669928D01*
X177747603Y-97647479D01*
X177723468Y-97592891D01*
X177721913Y-97587183D01*
X177694276Y-97514927D01*
X177666572Y-97490983D01*
X177646490Y-97514696D01*
X177641718Y-97585411D01*
X177642296Y-97593969D01*
X177650870Y-97705732D01*
X177374026Y-97761511D01*
X177097183Y-97817290D01*
X177081242Y-97717601D01*
X177059189Y-97641478D01*
X177031426Y-97614034D01*
X177007175Y-97634140D01*
X176995660Y-97700670D01*
X176995999Y-97728022D01*
X177000921Y-97838132D01*
X176805936Y-97881521D01*
X176671429Y-97910186D01*
X176578736Y-97925042D01*
X176519263Y-97925039D01*
X176484419Y-97909130D01*
X176465612Y-97876266D01*
X176456679Y-97838894D01*
X176434635Y-97774224D01*
X176403546Y-97747975D01*
X176401790Y-97747902D01*
X176373913Y-97752929D01*
X176366050Y-97776354D01*
X176376779Y-97830691D01*
X176387845Y-97870486D01*
X176398910Y-97910608D01*
X176399282Y-97938351D01*
X176380933Y-97958464D01*
X176335836Y-97975698D01*
X176255963Y-97994801D01*
X176134789Y-98020211D01*
X176025470Y-98042888D01*
X175956788Y-98053949D01*
X175918251Y-98051240D01*
X175899370Y-98032608D01*
X175889652Y-97995901D01*
X175884724Y-97968884D01*
X175862482Y-97903806D01*
X175830951Y-97877937D01*
X175829528Y-97877891D01*
X175806157Y-97889240D01*
X175801664Y-97931025D01*
X175808031Y-97981883D01*
X175813390Y-98046657D01*
X175806759Y-98083432D01*
X175801838Y-98086542D01*
X175767459Y-98092261D01*
X175695792Y-98106908D01*
X175600213Y-98127713D01*
X175564764Y-98135670D01*
X175350510Y-98184131D01*
X175323281Y-98083007D01*
X175295612Y-98008800D01*
X175270056Y-97984061D01*
X175252697Y-98008181D01*
X175249620Y-98080551D01*
X175250323Y-98090310D01*
X175259058Y-98198737D01*
X175055247Y-98242361D01*
X174940613Y-98263877D01*
X174871342Y-98269265D01*
X174843459Y-98258806D01*
X174842935Y-98257424D01*
X174831378Y-98212324D01*
X174818305Y-98155522D01*
X174797290Y-98105862D01*
X174770638Y-98092796D01*
X174750791Y-98122125D01*
X174749511Y-98193111D01*
X174761049Y-98278671D01*
X174739964Y-98294516D01*
X174682523Y-98315287D01*
X174603618Y-98337097D01*
X174518135Y-98356060D01*
X174440964Y-98368290D01*
X174408368Y-98370718D01*
X174367208Y-98347114D01*
X174342179Y-98289127D01*
X174317517Y-98228625D01*
X174287110Y-98195262D01*
X174285564Y-98194676D01*
X174264536Y-98198197D01*
X174260545Y-98235242D01*
X174267401Y-98289360D01*
X174275754Y-98357302D01*
X174264490Y-98392093D01*
X174222567Y-98411867D01*
X174186783Y-98421754D01*
X174093564Y-98443491D01*
X173992373Y-98462883D01*
X173978659Y-98465114D01*
X173909714Y-98473783D01*
X173877738Y-98466704D01*
X173868597Y-98437723D01*
X173868168Y-98416991D01*
X173884538Y-98360262D01*
X173930277Y-98335903D01*
X173992386Y-98320314D01*
X174011547Y-97758189D01*
X174017514Y-97567909D01*
X174020623Y-97423370D01*
X174020700Y-97318388D01*
X174017568Y-97246777D01*
X174011053Y-97202355D01*
X174000978Y-97178934D01*
X173994935Y-97173405D01*
X173955107Y-97153100D01*
X173944111Y-97150347D01*
X173924389Y-97169624D01*
X173876575Y-97224133D01*
X173805125Y-97308559D01*
X173714494Y-97417586D01*
X173609139Y-97545898D01*
X173502146Y-97677515D01*
X173386902Y-97819642D01*
X173282232Y-97948180D01*
X173192624Y-98057662D01*
X173122566Y-98142622D01*
X173076545Y-98197593D01*
X173059304Y-98216972D01*
X173039231Y-98201014D01*
X172991403Y-98149823D01*
X172920492Y-98068808D01*
X172831175Y-97963379D01*
X172728126Y-97838944D01*
X172653944Y-97747902D01*
X172518152Y-97580495D01*
X172411077Y-97449733D01*
X172328864Y-97351732D01*
X172267661Y-97282605D01*
X172223615Y-97238466D01*
X172192873Y-97215429D01*
X172171581Y-97209608D01*
X172155887Y-97217117D01*
X172142990Y-97232585D01*
X172128236Y-97268445D01*
X172102442Y-97347238D01*
X172067795Y-97461612D01*
X172026480Y-97604213D01*
X171980682Y-97767689D01*
X171944319Y-97901010D01*
X171775332Y-98527759D01*
X171212003Y-98527800D01*
X171044050Y-98528516D01*
X170892206Y-98530497D01*
X170764693Y-98533527D01*
X170669734Y-98537392D01*
X170615550Y-98541875D01*
X170607551Y-98543621D01*
X170581425Y-98558845D01*
X170571245Y-98584030D01*
X170579114Y-98626892D01*
X170607133Y-98695146D01*
X170657408Y-98796508D01*
X170697346Y-98873039D01*
X170828265Y-99121721D01*
X170677848Y-99152348D01*
X170629106Y-99162369D01*
X170533628Y-99182091D01*
X170395588Y-99210649D01*
X170219160Y-99247177D01*
X170008519Y-99290811D01*
X169767839Y-99340686D01*
X169501295Y-99395937D01*
X169213061Y-99455698D01*
X168907311Y-99519106D01*
X168588221Y-99585294D01*
X168474442Y-99608898D01*
X168155654Y-99674760D01*
X167851591Y-99737046D01*
X167566090Y-99795000D01*
X167302987Y-99847869D01*
X167066118Y-99894900D01*
X166859319Y-99935339D01*
X166686425Y-99968431D01*
X166551272Y-99993424D01*
X166457697Y-100009564D01*
X166409535Y-100016096D01*
X166403751Y-100015773D01*
X166394827Y-99986881D01*
X166376914Y-99912597D01*
X166351225Y-99798514D01*
X166318973Y-99650227D01*
X166281370Y-99473330D01*
X166239628Y-99273415D01*
X166194961Y-99056076D01*
X166183230Y-98998449D01*
X166128537Y-98730497D01*
X166082287Y-98508695D01*
X166042848Y-98328186D01*
X166008591Y-98184109D01*
X165977885Y-98071604D01*
X165949100Y-97985812D01*
X165920605Y-97921873D01*
X165890770Y-97874928D01*
X165857966Y-97840116D01*
X165820561Y-97812579D01*
X165776980Y-97787486D01*
X165681774Y-97736077D01*
X165325965Y-97806193D01*
X165190831Y-97834848D01*
X165069606Y-97864286D01*
X164973773Y-97891454D01*
X164914816Y-97913298D01*
X164907276Y-97917510D01*
X164835260Y-97984884D01*
X164776978Y-98074857D01*
X164745361Y-98165785D01*
X164742983Y-98192474D01*
X164748140Y-98227257D01*
X164763124Y-98309182D01*
X164787162Y-98434483D01*
X164819483Y-98599399D01*
X164859313Y-98800165D01*
X164905881Y-99033019D01*
X164958415Y-99294196D01*
X165016141Y-99579935D01*
X165078288Y-99886470D01*
X165144082Y-100210039D01*
X165212753Y-100546879D01*
X165283527Y-100893227D01*
X165355632Y-101245318D01*
X165428296Y-101599389D01*
X165500746Y-101951678D01*
X165572210Y-102298420D01*
X165641915Y-102635853D01*
X165709090Y-102960213D01*
X165772961Y-103267737D01*
X165832757Y-103554661D01*
X165887705Y-103817222D01*
X165937033Y-104051656D01*
X165979968Y-104254201D01*
X166015739Y-104421093D01*
X166043572Y-104548569D01*
X166062695Y-104632865D01*
X166072336Y-104670218D01*
X166072536Y-104670738D01*
X166137689Y-104766500D01*
X166238340Y-104835117D01*
X166319643Y-104860785D01*
X166381409Y-104862019D01*
X166480836Y-104852640D01*
X166605183Y-104834795D01*
X166741704Y-104810634D01*
X166877659Y-104782306D01*
X167000303Y-104751960D01*
X167049354Y-104737726D01*
X167143476Y-104685232D01*
X167223680Y-104599003D01*
X167273703Y-104497249D01*
X167277492Y-104482255D01*
X167277299Y-104435376D01*
X167266020Y-104342467D01*
X167243510Y-104202709D01*
X167209623Y-104015283D01*
X167164214Y-103779370D01*
X167107136Y-103494152D01*
X167067205Y-103298898D01*
X167019731Y-103066734D01*
X166976160Y-102850597D01*
X166937503Y-102655734D01*
X166904772Y-102487391D01*
X166878979Y-102350814D01*
X166861136Y-102251249D01*
X166852254Y-102193943D01*
X166851758Y-102181848D01*
X166878329Y-102174252D01*
X166951826Y-102155786D01*
X167068524Y-102127335D01*
X167224700Y-102089783D01*
X167416629Y-102044013D01*
X167640587Y-101990908D01*
X167892849Y-101931354D01*
X168169691Y-101866234D01*
X168467389Y-101796431D01*
X168782218Y-101722830D01*
X168994596Y-101673297D01*
X169319600Y-101597532D01*
X169630655Y-101524950D01*
X169923950Y-101456444D01*
X170195676Y-101392907D01*
X170442023Y-101335233D01*
X170659181Y-101284314D01*
X170843341Y-101241043D01*
X170990691Y-101206315D01*
X171097423Y-101181020D01*
X171159726Y-101166054D01*
X171174459Y-101162327D01*
X171197299Y-101158670D01*
X171210475Y-101170388D01*
X171215246Y-101206665D01*
X171212875Y-101276685D01*
X171205000Y-101384792D01*
X171197276Y-101498918D01*
X171196348Y-101571548D01*
X171203129Y-101612851D01*
X171218535Y-101632992D01*
X171227748Y-101637568D01*
X171264114Y-101632498D01*
X171340802Y-101608347D01*
X171450866Y-101567691D01*
X171587358Y-101513111D01*
X171743330Y-101447182D01*
X171757947Y-101440840D01*
X171933694Y-101365439D01*
X172068614Y-101310169D01*
X172168868Y-101272891D01*
X172240613Y-101251466D01*
X172290009Y-101243754D01*
X172318369Y-101246216D01*
X172354935Y-101266388D01*
X172409692Y-101314682D01*
X172485498Y-101394171D01*
X172585212Y-101507925D01*
X172711693Y-101659015D01*
X172778683Y-101740714D01*
X172889518Y-101875871D01*
X172990417Y-101997603D01*
X173076451Y-102100068D01*
X173142687Y-102177422D01*
X173184197Y-102223823D01*
X173195350Y-102234482D01*
X173216967Y-102240370D01*
X173238696Y-102227466D01*
X173262366Y-102191029D01*
X173289808Y-102126317D01*
X173322854Y-102028587D01*
X173363333Y-101893099D01*
X173413077Y-101715109D01*
X173453655Y-101565425D01*
X173619090Y-100950298D01*
X173750128Y-101016648D01*
X173814352Y-101049607D01*
X173914880Y-101101734D01*
X174042004Y-101167969D01*
X174186019Y-101243257D01*
X174337220Y-101322539D01*
X174344379Y-101326299D01*
X174512987Y-101414300D01*
X174641738Y-101479750D01*
X174736447Y-101524959D01*
X174802925Y-101552234D01*
X174846986Y-101563884D01*
X174874443Y-101562218D01*
X174891107Y-101549544D01*
X174894389Y-101544731D01*
X174888703Y-101514560D01*
X174863900Y-101444847D01*
X174823018Y-101343091D01*
X174769091Y-101216791D01*
X174705155Y-101073448D01*
X174691835Y-101044270D01*
X174473910Y-100568679D01*
X174340026Y-100577038D01*
X174261623Y-100580224D01*
X174221917Y-100573355D01*
X174207807Y-100550922D01*
X174206141Y-100520709D01*
X174209851Y-100489425D01*
X174227359Y-100466275D01*
X174268234Y-100446378D01*
X174342045Y-100424852D01*
X174441018Y-100400878D01*
X174546070Y-100378133D01*
X174632051Y-100363089D01*
X174686473Y-100357759D01*
X174698051Y-100359428D01*
X174717227Y-100391993D01*
X174735233Y-100453904D01*
X174737330Y-100464401D01*
X174758650Y-100532435D01*
X174786359Y-100555928D01*
X174814805Y-100533384D01*
X174817555Y-100495413D01*
X174805933Y-100432382D01*
X174803785Y-100424615D01*
X174790094Y-100363810D01*
X174789173Y-100328597D01*
X174790239Y-100326888D01*
X174819230Y-100316025D01*
X174885697Y-100297521D01*
X174976362Y-100275023D01*
X174994927Y-100270668D01*
X175188362Y-100225702D01*
X175210711Y-100330102D01*
X175232719Y-100398454D01*
X175260276Y-100441234D01*
X175268427Y-100446219D01*
X175288470Y-100443078D01*
X175294087Y-100408866D01*
X175286739Y-100333965D01*
X175286147Y-100329631D01*
X175268501Y-100201328D01*
X175472357Y-100157522D01*
X175569613Y-100137040D01*
X175646251Y-100121678D01*
X175688929Y-100114089D01*
X175692833Y-100113715D01*
X175707079Y-100136622D01*
X175722556Y-100193894D01*
X175727021Y-100217707D01*
X175747792Y-100289771D01*
X175776579Y-100321113D01*
X175781302Y-100321699D01*
X175810008Y-100310157D01*
X175815799Y-100269798D01*
X175799452Y-100192025D01*
X175794563Y-100174592D01*
X175771112Y-100092824D01*
X175988607Y-100038275D01*
X176090021Y-100013517D01*
X176172543Y-99994628D01*
X176222908Y-99984595D01*
X176230755Y-99983726D01*
X176250038Y-100006678D01*
X176268331Y-100064050D01*
X176272978Y-100087717D01*
X176293749Y-100159781D01*
X176322536Y-100191123D01*
X176327259Y-100191709D01*
X176355902Y-100180275D01*
X176361772Y-100140211D01*
X176345629Y-100062881D01*
X176340251Y-100043664D01*
X176316531Y-99960958D01*
X176560525Y-99905374D01*
X176668322Y-99883037D01*
X176757785Y-99868622D01*
X176816410Y-99863932D01*
X176831225Y-99866296D01*
X176852913Y-99902942D01*
X176858330Y-99939763D01*
X176869573Y-100005755D01*
X176896316Y-100047966D01*
X176929620Y-100052581D01*
X176930867Y-100051847D01*
X176944668Y-100015102D01*
X176931691Y-99941407D01*
X176920050Y-99875912D01*
X176924217Y-99833341D01*
X176927344Y-99829184D01*
X176961392Y-99815398D01*
X177032741Y-99794993D01*
X177127749Y-99771769D01*
X177156909Y-99765240D01*
X177259394Y-99742483D01*
X177345438Y-99722880D01*
X177399760Y-99709925D01*
X177406580Y-99708138D01*
X177437265Y-99714652D01*
X177460082Y-99759933D01*
X177471575Y-99805603D01*
X177493601Y-99875473D01*
X177520886Y-99920074D01*
X177530249Y-99926260D01*
X177550167Y-99923176D01*
X177555844Y-99889293D01*
X177548689Y-99814998D01*
X177547666Y-99807471D01*
X177529717Y-99676966D01*
X177785278Y-99619237D01*
X177894960Y-99593791D01*
X177985311Y-99571579D01*
X178044480Y-99555583D01*
X178060643Y-99549911D01*
X178078588Y-99563786D01*
X178095382Y-99613193D01*
X178096390Y-99618031D01*
X178120480Y-99680209D01*
X178150698Y-99699302D01*
X178174316Y-99675894D01*
X178178991Y-99614255D01*
X178170829Y-99530762D01*
X178469268Y-99459880D01*
X178605413Y-99428848D01*
X178699205Y-99412319D01*
X178758470Y-99411184D01*
X178791038Y-99426337D01*
X178804737Y-99458669D01*
X178807381Y-99498430D01*
X178821637Y-99532911D01*
X178840276Y-99534598D01*
X178861881Y-99502886D01*
X178866599Y-99444569D01*
X178860425Y-99366034D01*
X179103639Y-99309832D01*
X179259571Y-99274204D01*
X179372211Y-99250213D01*
X179448840Y-99237415D01*
X179496739Y-99235365D01*
X179523189Y-99243620D01*
X179535471Y-99261735D01*
X179540014Y-99283200D01*
X179560358Y-99334598D01*
X179583484Y-99354161D01*
X179606724Y-99347464D01*
X179611215Y-99300454D01*
X179609482Y-99279315D01*
X179600716Y-99193012D01*
X179912692Y-99120970D01*
X180035395Y-99093166D01*
X180140890Y-99070249D01*
X180218165Y-99054545D01*
X180256209Y-99048378D01*
X180256669Y-99048364D01*
X180286200Y-99070029D01*
X180304984Y-99112794D01*
X180331558Y-99167929D01*
X180362592Y-99177194D01*
X180384568Y-99143509D01*
X180387253Y-99095025D01*
X180380655Y-99012260D01*
X180692630Y-98939602D01*
X180843468Y-98904899D01*
X180951041Y-98882180D01*
X181022653Y-98871325D01*
X181065609Y-98872213D01*
X181087210Y-98884725D01*
X181094762Y-98908741D01*
X181095598Y-98932975D01*
X181105802Y-98982033D01*
X181128096Y-98989088D01*
X181151653Y-98957914D01*
X181160593Y-98904007D01*
X181161967Y-98874756D01*
X181171224Y-98852379D01*
X181196073Y-98833495D01*
X181244221Y-98814724D01*
X181323374Y-98792683D01*
X181441241Y-98763993D01*
X181524565Y-98744342D01*
X181656770Y-98713673D01*
X181771813Y-98687803D01*
X181859776Y-98668900D01*
X181910741Y-98659133D01*
X181918215Y-98658269D01*
X181945774Y-98680060D01*
X181964670Y-98724672D01*
X181988941Y-98773321D01*
X182017546Y-98776396D01*
X182038950Y-98737837D01*
X182043523Y-98697733D01*
X182045166Y-98670126D01*
X182054091Y-98648560D01*
X182077586Y-98630018D01*
X182122936Y-98611485D01*
X182197428Y-98589943D01*
X182308350Y-98562375D01*
X182453564Y-98527985D01*
X182592145Y-98496324D01*
X182712317Y-98470718D01*
X182805309Y-98452887D01*
X182862346Y-98444553D01*
X182876031Y-98445086D01*
X182887501Y-98479524D01*
X182889457Y-98506175D01*
X182907774Y-98545874D01*
X182930315Y-98553838D01*
X182959919Y-98537037D01*
X182962812Y-98483159D01*
X182960911Y-98454788D01*
X182968087Y-98433109D01*
X182991992Y-98414680D01*
X183040282Y-98396056D01*
X183120611Y-98373794D01*
X183240633Y-98344450D01*
X183305424Y-98329018D01*
X183480260Y-98287521D01*
X183611110Y-98257176D01*
X183704595Y-98237212D01*
X183767340Y-98226856D01*
X183805968Y-98225336D01*
X183827102Y-98231881D01*
X183837366Y-98245718D01*
X183843382Y-98266075D01*
X183843441Y-98266302D01*
X183869573Y-98309383D01*
X183893906Y-98319857D01*
X183918470Y-98303265D01*
X183914337Y-98255993D01*
X183911476Y-98205434D01*
X183945222Y-98181102D01*
X183959338Y-98177216D01*
X184004595Y-98166408D01*
X184090484Y-98146113D01*
X184207007Y-98118686D01*
X184344168Y-98086481D01*
X184441183Y-98063742D01*
X184861998Y-97965182D01*
X184877608Y-98027375D01*
X184902237Y-98072617D01*
X184932138Y-98073528D01*
X184953054Y-98033967D01*
X184955730Y-98006232D01*
X184958354Y-97983606D01*
X184970299Y-97964658D01*
X184998359Y-97946884D01*
X185049329Y-97927779D01*
X185130004Y-97904839D01*
X185247176Y-97875559D01*
X185407642Y-97837435D01*
X185424258Y-97833528D01*
X185575438Y-97798465D01*
X185710986Y-97767931D01*
X185822053Y-97743846D01*
X185899791Y-97728132D01*
X185934685Y-97722707D01*
X185974319Y-97743918D01*
X185991431Y-97776515D01*
X186013872Y-97812558D01*
X186040522Y-97808102D01*
X186056603Y-97771050D01*
X186055952Y-97742004D01*
X186056929Y-97722554D01*
X186070386Y-97705238D01*
X186102834Y-97687778D01*
X186160785Y-97667895D01*
X186250750Y-97643310D01*
X186379240Y-97611745D01*
X186529171Y-97576428D01*
X186683911Y-97540253D01*
X186824326Y-97507336D01*
X186941326Y-97479816D01*
X187025821Y-97459829D01*
X187068628Y-97449538D01*
X187113590Y-97447693D01*
X187126995Y-97480554D01*
X187127124Y-97487427D01*
X187144045Y-97530795D01*
X187167929Y-97539918D01*
X187198797Y-97520497D01*
X187200426Y-97481423D01*
X187200049Y-97461828D01*
X187209123Y-97444823D01*
X187233756Y-97428307D01*
X187280055Y-97410175D01*
X187354130Y-97388325D01*
X187462087Y-97360655D01*
X187610034Y-97325062D01*
X187751074Y-97291866D01*
X187933673Y-97249359D01*
X188071967Y-97218211D01*
X188172175Y-97197495D01*
X188240515Y-97186285D01*
X188283207Y-97183656D01*
X188306469Y-97188679D01*
X188316520Y-97200431D01*
X188318338Y-97207373D01*
X188341123Y-97247735D01*
X188374091Y-97252019D01*
X188395875Y-97222776D01*
X188396158Y-97198077D01*
X188396334Y-97179720D01*
X188406622Y-97163331D01*
X188432931Y-97146947D01*
X188481167Y-97128606D01*
X188557238Y-97106346D01*
X188667053Y-97078206D01*
X188816517Y-97042223D01*
X188983667Y-97002948D01*
X189151757Y-96964050D01*
X189302150Y-96930014D01*
X189427742Y-96902388D01*
X189521429Y-96882714D01*
X189576106Y-96872538D01*
X189587325Y-96871699D01*
X189594702Y-96900360D01*
X189601997Y-96959566D01*
X189602634Y-96966878D01*
X189609928Y-97054041D01*
X184735312Y-98231803D01*
X184228857Y-98354164D01*
X183728038Y-98475157D01*
X183235885Y-98594048D01*
X182755426Y-98710108D01*
X182289690Y-98822604D01*
X181841706Y-98930805D01*
X181414505Y-99033980D01*
X181011113Y-99131397D01*
X180634562Y-99222324D01*
X180287879Y-99306030D01*
X179974094Y-99381784D01*
X179696236Y-99448854D01*
X179457333Y-99506509D01*
X179260416Y-99554017D01*
X179108513Y-99590647D01*
X179019253Y-99612152D01*
X178177811Y-99814739D01*
X178192984Y-99960061D01*
X178198800Y-100033221D01*
X178205607Y-100146877D01*
X178212821Y-100289557D01*
X178219856Y-100449784D01*
X178225463Y-100597011D01*
X178226042Y-101055400D01*
X178194906Y-101484272D01*
X178132608Y-101880816D01*
X178039703Y-102242220D01*
X177916744Y-102565673D01*
X177789972Y-102807088D01*
X177733833Y-102894019D01*
X177658225Y-103003172D01*
X177570026Y-103125448D01*
X177476108Y-103251751D01*
X177383347Y-103372981D01*
X177298617Y-103480043D01*
X177228794Y-103563837D01*
X177180753Y-103615268D01*
X177176156Y-103619368D01*
X177047068Y-103718695D01*
X176881366Y-103829615D01*
X176691106Y-103945420D01*
X176488347Y-104059407D01*
X176285143Y-104164871D01*
X176093552Y-104255107D01*
X175925631Y-104323410D01*
X175884352Y-104337740D01*
X175559468Y-104419530D01*
X175219987Y-104453999D01*
X175133709Y-104455373D01*
X174902403Y-104447612D01*
X174631446Y-104425245D01*
X174330666Y-104389652D01*
X174009890Y-104342210D01*
X173678946Y-104284297D01*
X173347662Y-104217291D01*
X173199413Y-104184152D01*
X172933562Y-104130592D01*
X172703926Y-104102575D01*
X172501220Y-104100476D01*
X172316160Y-104124669D01*
X172139461Y-104175529D01*
X172004847Y-104232344D01*
X171827816Y-104322218D01*
X171665922Y-104418228D01*
X171512030Y-104526343D01*
X171359000Y-104652536D01*
X171199695Y-104802775D01*
X171026979Y-104983032D01*
X170833712Y-105199278D01*
X170793394Y-105245718D01*
X170540818Y-105532445D01*
X170308391Y-105784054D01*
X170087517Y-106008751D01*
X169869597Y-106214743D01*
X169646032Y-106410237D01*
X169408225Y-106603439D01*
X169216159Y-106751165D01*
X169025075Y-106891525D01*
X168827194Y-107030207D01*
X168631662Y-107161251D01*
X168447624Y-107278697D01*
X168284225Y-107376583D01*
X168150610Y-107448949D01*
X168130676Y-107458687D01*
X167958983Y-107535795D01*
X167758206Y-107617773D01*
X167538295Y-107701260D01*
X167309200Y-107782893D01*
X167080869Y-107859310D01*
X166863254Y-107927150D01*
X166666302Y-107983050D01*
X166499964Y-108023648D01*
X166406755Y-108041210D01*
X166239238Y-108060735D01*
X166042005Y-108074131D01*
X165833982Y-108080875D01*
X165634097Y-108080441D01*
X165461276Y-108072305D01*
X165420128Y-108068556D01*
X164980441Y-107998570D01*
X164531359Y-107879801D01*
X164077092Y-107713651D01*
X163621848Y-107501519D01*
X163464900Y-107417685D01*
X163293835Y-107319030D01*
X163147271Y-107223444D01*
X163011124Y-107120199D01*
X162871311Y-106998568D01*
X162713748Y-106847824D01*
X162703731Y-106837925D01*
X162572109Y-106704075D01*
X162453775Y-106574841D01*
X162341329Y-106440882D01*
X162227370Y-106292856D01*
X162104497Y-106121421D01*
X161965311Y-105917236D01*
X161917285Y-105845213D01*
X161827392Y-105710069D01*
X161741386Y-105581159D01*
X161665882Y-105468367D01*
X161607493Y-105381576D01*
X161578782Y-105339304D01*
X161494322Y-105197125D01*
X161403058Y-105009044D01*
X161306612Y-104780464D01*
X161206606Y-104516791D01*
X161104665Y-104223430D01*
X161002410Y-103905786D01*
X160901464Y-103569265D01*
X160803450Y-103219271D01*
X160709991Y-102861210D01*
X160622711Y-102500486D01*
X160543230Y-102142505D01*
X160473173Y-101792673D01*
X160415543Y-101464913D01*
X160367330Y-101156064D01*
X160329520Y-100883859D01*
X160300753Y-100634294D01*
X160279669Y-100393366D01*
X160264908Y-100147070D01*
X160255110Y-99881402D01*
X160252771Y-99788741D01*
X160248671Y-99523315D01*
X160250747Y-99297480D01*
X160260706Y-99099023D01*
X160280251Y-98915732D01*
X160311089Y-98735393D01*
X160354925Y-98545796D01*
X160413464Y-98334726D01*
X160488411Y-98089972D01*
X160491207Y-98081105D01*
X160579229Y-97806533D01*
X160656981Y-97574320D01*
X160727484Y-97376559D01*
X160793760Y-97205340D01*
X160858831Y-97052755D01*
X160925717Y-96910895D01*
X160975927Y-96812423D01*
X161084062Y-96622851D01*
X161202572Y-96450656D01*
X161339748Y-96286160D01*
X161503880Y-96119688D01*
X161703260Y-95941563D01*
X161770796Y-95884731D01*
X162011905Y-95688872D01*
X162228389Y-95524762D01*
X162431020Y-95386068D01*
X162630571Y-95266451D01*
X162837815Y-95159578D01*
X163063524Y-95059110D01*
X163318471Y-94958714D01*
X163390993Y-94931797D01*
X163595477Y-94857099D01*
X163762491Y-94798399D01*
X163902942Y-94753746D01*
X164027736Y-94721188D01*
X164147780Y-94698776D01*
X164273983Y-94684559D01*
X164417251Y-94676585D01*
X164588491Y-94672904D01*
X164798611Y-94671564D01*
X164846878Y-94671404D01*
X165168655Y-94673184D01*
X165450713Y-94681680D01*
X165705058Y-94698309D01*
X165943697Y-94724487D01*
X166178635Y-94761631D01*
X166421878Y-94811157D01*
X166685433Y-94874481D01*
X166783725Y-94899911D01*
X167149863Y-95001387D01*
X167527211Y-95116881D01*
X167925001Y-95249435D01*
X168352467Y-95402091D01*
X168677312Y-95523687D01*
X168976072Y-95636772D01*
X169231637Y-95731815D01*
X169449057Y-95810158D01*
X169633384Y-95873145D01*
X169789669Y-95922119D01*
X169922964Y-95958422D01*
X170038320Y-95983397D01*
X170140788Y-95998388D01*
X170235419Y-96004737D01*
X170327265Y-96003788D01*
X170421378Y-95996882D01*
X170447224Y-95994236D01*
X170528897Y-95980374D01*
X170616112Y-95954138D01*
X170713991Y-95912657D01*
X170827656Y-95853057D01*
X170962229Y-95772467D01*
X171122833Y-95668014D01*
X171314590Y-95536826D01*
X171516274Y-95394781D01*
X171756478Y-95224539D01*
X171960674Y-95081503D01*
X172134857Y-94962235D01*
X172285023Y-94863295D01*
X172417169Y-94781244D01*
X172537291Y-94712643D01*
X172651385Y-94654053D01*
X172765448Y-94602036D01*
X172885475Y-94553153D01*
X173017464Y-94503963D01*
X173153224Y-94455967D01*
X173517195Y-94329171D01*
X174167144Y-94329866D01*
G37*
G36*
X185008950Y-85777536D02*
G01*
X185074342Y-85839548D01*
X185104213Y-85928126D01*
X185104809Y-85938867D01*
X185092892Y-85999686D01*
X185056188Y-86101372D01*
X184996605Y-86240175D01*
X184916052Y-86412342D01*
X184816437Y-86614123D01*
X184699668Y-86841763D01*
X184567655Y-87091514D01*
X184422305Y-87359621D01*
X184265528Y-87642334D01*
X184099230Y-87935901D01*
X184010748Y-88089662D01*
X183875691Y-88326798D01*
X183764332Y-88531570D01*
X183671458Y-88714829D01*
X183591854Y-88887427D01*
X183520304Y-89060215D01*
X183451594Y-89244044D01*
X183439151Y-89279068D01*
X183401617Y-89390901D01*
X183383162Y-89461591D01*
X183382487Y-89497832D01*
X183394993Y-89506551D01*
X183465552Y-89490926D01*
X183571749Y-89446018D01*
X183708426Y-89374778D01*
X183870420Y-89280155D01*
X184052573Y-89165100D01*
X184246035Y-89035041D01*
X185021289Y-89035041D01*
X185046478Y-89133513D01*
X185121539Y-89219573D01*
X185245719Y-89292653D01*
X185418262Y-89352187D01*
X185457018Y-89362058D01*
X185584561Y-89383440D01*
X185742295Y-89396029D01*
X185910542Y-89399491D01*
X186069624Y-89393488D01*
X186199865Y-89377684D01*
X186213195Y-89374990D01*
X186390774Y-89314421D01*
X186547004Y-89217080D01*
X186670231Y-89090898D01*
X186703369Y-89041451D01*
X186755630Y-88941631D01*
X186793731Y-88835926D01*
X186819943Y-88713250D01*
X186836538Y-88562518D01*
X186845789Y-88372642D01*
X186846625Y-88342360D01*
X186854145Y-88049101D01*
X186752979Y-88021894D01*
X186624055Y-88010141D01*
X186467150Y-88033301D01*
X186289782Y-88088295D01*
X186099471Y-88172045D01*
X185903734Y-88281471D01*
X185710090Y-88413495D01*
X185615628Y-88487656D01*
X185498476Y-88583576D01*
X185374730Y-88683998D01*
X185261564Y-88775027D01*
X185196776Y-88826558D01*
X185106220Y-88901649D01*
X185051851Y-88957392D01*
X185026191Y-89002671D01*
X185021289Y-89035041D01*
X184246035Y-89035041D01*
X184249723Y-89032562D01*
X184362168Y-88953647D01*
X184488206Y-88861731D01*
X184579027Y-88789257D01*
X184643417Y-88727966D01*
X184690160Y-88669598D01*
X184724025Y-88613440D01*
X184829833Y-88458661D01*
X184975130Y-88305230D01*
X185147982Y-88162195D01*
X185336456Y-88038600D01*
X185528618Y-87943492D01*
X185671238Y-87895453D01*
X185751496Y-87870654D01*
X185858765Y-87832060D01*
X185972596Y-87787110D01*
X185996564Y-87777076D01*
X186265024Y-87680095D01*
X186507866Y-87627940D01*
X186726137Y-87620798D01*
X186920885Y-87658856D01*
X187093157Y-87742303D01*
X187244002Y-87871326D01*
X187358856Y-88021162D01*
X187418753Y-88141416D01*
X187434962Y-88244325D01*
X187407880Y-88325869D01*
X187337905Y-88382031D01*
X187322576Y-88388461D01*
X187285925Y-88410525D01*
X187263365Y-88451261D01*
X187248529Y-88524745D01*
X187243763Y-88562702D01*
X187198060Y-88836913D01*
X187128332Y-89068682D01*
X187032648Y-89262634D01*
X186909079Y-89423396D01*
X186867154Y-89465028D01*
X186707522Y-89592220D01*
X186532923Y-89685868D01*
X186335216Y-89748654D01*
X186106256Y-89783259D01*
X185872392Y-89792528D01*
X185575546Y-89778607D01*
X185320674Y-89736404D01*
X185105699Y-89665263D01*
X184928546Y-89564527D01*
X184806090Y-89455073D01*
X184743073Y-89383146D01*
X184692177Y-89319969D01*
X184669016Y-89286585D01*
X184652524Y-89265636D01*
X184629142Y-89262376D01*
X184589445Y-89280529D01*
X184524012Y-89323819D01*
X184461032Y-89368775D01*
X184292574Y-89484495D01*
X184112139Y-89598478D01*
X183933637Y-89702536D01*
X183770980Y-89788482D01*
X183665078Y-89837253D01*
X183526152Y-89882850D01*
X183386331Y-89907033D01*
X183258141Y-89909354D01*
X183154109Y-89889366D01*
X183097259Y-89857523D01*
X183039476Y-89805527D01*
X182970966Y-89896073D01*
X182856437Y-90038181D01*
X182754680Y-90139788D01*
X182655318Y-90206955D01*
X182547976Y-90245741D01*
X182422280Y-90262204D01*
X182341083Y-90263938D01*
X182179855Y-90253243D01*
X182049862Y-90217989D01*
X181933263Y-90150797D01*
X181813835Y-90045898D01*
X181743471Y-89977448D01*
X181688889Y-89927040D01*
X181658941Y-89902747D01*
X181655928Y-89901893D01*
X181639479Y-89926130D01*
X181604463Y-89977793D01*
X181589071Y-90000512D01*
X181492818Y-90131290D01*
X181391247Y-90249989D01*
X181294037Y-90346322D01*
X181210872Y-90410000D01*
X181195828Y-90418398D01*
X181076977Y-90456392D01*
X180937858Y-90467304D01*
X180803036Y-90450391D01*
X180746662Y-90432004D01*
X180633306Y-90364966D01*
X180519781Y-90264591D01*
X180422450Y-90146840D01*
X180377124Y-90071537D01*
X180312637Y-89944279D01*
X180203657Y-90037777D01*
X179915977Y-90255036D01*
X179608700Y-90431884D01*
X179291451Y-90562887D01*
X179249744Y-90576340D01*
X179100173Y-90612617D01*
X178941583Y-90633589D01*
X178787761Y-90638933D01*
X178652493Y-90628328D01*
X178549568Y-90601454D01*
X178532161Y-90593069D01*
X178432067Y-90511974D01*
X178374205Y-90402775D01*
X178359486Y-90268928D01*
X178369689Y-90214995D01*
X178782025Y-90214995D01*
X178789088Y-90243294D01*
X178815752Y-90256719D01*
X178869659Y-90255115D01*
X178958446Y-90238323D01*
X179079203Y-90208893D01*
X179370915Y-90107572D01*
X179646364Y-89957430D01*
X179903486Y-89759666D01*
X179985756Y-89682392D01*
X180072845Y-89593375D01*
X180143104Y-89515419D01*
X180189726Y-89456534D01*
X180205905Y-89424727D01*
X180205685Y-89423607D01*
X180168945Y-89390294D01*
X180089873Y-89366876D01*
X179977469Y-89354964D01*
X179840734Y-89356169D01*
X179831799Y-89356703D01*
X179624278Y-89391318D01*
X179430538Y-89470008D01*
X179244612Y-89595721D01*
X179121334Y-89707833D01*
X179021591Y-89816395D01*
X178931003Y-89930892D01*
X178856390Y-90041127D01*
X178804575Y-90136906D01*
X178782379Y-90208030D01*
X178782025Y-90214995D01*
X178369689Y-90214995D01*
X178388817Y-90113886D01*
X178398485Y-90085005D01*
X178419478Y-90019351D01*
X178427648Y-89979769D01*
X178425927Y-89974514D01*
X178400614Y-89988506D01*
X178344405Y-90025517D01*
X178268537Y-90078102D01*
X178253481Y-90088774D01*
X178047027Y-90229154D01*
X177818413Y-90373482D01*
X177578956Y-90515376D01*
X177339969Y-90648454D01*
X177112769Y-90766332D01*
X176908670Y-90862629D01*
X176802644Y-90907142D01*
X176557306Y-90992237D01*
X176326159Y-91049550D01*
X176117043Y-91077731D01*
X175937802Y-91075429D01*
X175878947Y-91066238D01*
X175704012Y-91008001D01*
X175559849Y-90913691D01*
X175473618Y-90818195D01*
X175422626Y-90753726D01*
X175378746Y-90711709D01*
X175359519Y-90702456D01*
X175317486Y-90680373D01*
X175276685Y-90627121D01*
X175250037Y-90562197D01*
X175246059Y-90531260D01*
X175261712Y-90477553D01*
X175301068Y-90408355D01*
X175320602Y-90381825D01*
X175388530Y-90257766D01*
X175413149Y-90150768D01*
X175453887Y-89925201D01*
X175459352Y-89905508D01*
X175876778Y-89905508D01*
X175887777Y-89922518D01*
X175917031Y-89905061D01*
X175968683Y-89859861D01*
X176016676Y-89812026D01*
X176119064Y-89698209D01*
X176197127Y-89597914D01*
X176245709Y-89518360D01*
X176259979Y-89471599D01*
X176239145Y-89439629D01*
X176188603Y-89428288D01*
X176126293Y-89437391D01*
X176070155Y-89466754D01*
X176062631Y-89473631D01*
X176022789Y-89526286D01*
X175980390Y-89602342D01*
X175940011Y-89690046D01*
X175906230Y-89777644D01*
X175883626Y-89853383D01*
X175876778Y-89905508D01*
X175459352Y-89905508D01*
X175513952Y-89708769D01*
X175589441Y-89510941D01*
X175676453Y-89341184D01*
X175771084Y-89208966D01*
X175822409Y-89157848D01*
X175964516Y-89062829D01*
X176111414Y-89018937D01*
X176267599Y-89025301D01*
X176366833Y-89052596D01*
X176507205Y-89124365D01*
X176604611Y-89223010D01*
X176657846Y-89344430D01*
X176665706Y-89484525D01*
X176626986Y-89639195D01*
X176572403Y-89752405D01*
X176494044Y-89865693D01*
X176380373Y-89997930D01*
X176239971Y-90140185D01*
X176081417Y-90283529D01*
X175987001Y-90361665D01*
X175903523Y-90429568D01*
X175835386Y-90487068D01*
X175793110Y-90525201D01*
X175785536Y-90533363D01*
X175789695Y-90565996D01*
X175825500Y-90611567D01*
X175832482Y-90617963D01*
X175884525Y-90653236D01*
X175949460Y-90671113D01*
X176045782Y-90676431D01*
X176056192Y-90676458D01*
X176245821Y-90659065D01*
X176461667Y-90606458D01*
X176705162Y-90517994D01*
X176977740Y-90393031D01*
X177280833Y-90230927D01*
X177615873Y-90031038D01*
X177895758Y-89851478D01*
X178027116Y-89766827D01*
X178146750Y-89693239D01*
X178246770Y-89635291D01*
X178319286Y-89597558D01*
X178355808Y-89584603D01*
X178417548Y-89601302D01*
X178482240Y-89642067D01*
X178531586Y-89692728D01*
X178547799Y-89733297D01*
X178561785Y-89733531D01*
X178599052Y-89698532D01*
X178652560Y-89635309D01*
X178673840Y-89607788D01*
X178859553Y-89401008D01*
X179077109Y-89224906D01*
X179315853Y-89087042D01*
X179518737Y-89008203D01*
X179616646Y-88981827D01*
X179707138Y-88967260D01*
X179809114Y-88962767D01*
X179941475Y-88966608D01*
X179960703Y-88967567D01*
X180114277Y-88981863D01*
X180267665Y-89007408D01*
X180410774Y-89041359D01*
X180533507Y-89080875D01*
X180625771Y-89123113D01*
X180677470Y-89165231D01*
X180680512Y-89170224D01*
X180692375Y-89224337D01*
X180696182Y-89322951D01*
X180691730Y-89459167D01*
X180689965Y-89488242D01*
X180683076Y-89615485D01*
X180682788Y-89705472D01*
X180690438Y-89772676D01*
X180707363Y-89831571D01*
X180725853Y-89876522D01*
X180787329Y-89973956D01*
X180868027Y-90044574D01*
X180954604Y-90077429D01*
X180972040Y-90078505D01*
X181009903Y-90064053D01*
X181062403Y-90018974D01*
X181131580Y-89940682D01*
X181219471Y-89826592D01*
X181328113Y-89674119D01*
X181407355Y-89557490D01*
X182044828Y-89557490D01*
X182047327Y-89682141D01*
X182089861Y-89776241D01*
X182172093Y-89838616D01*
X182293687Y-89868092D01*
X182347790Y-89870425D01*
X182418296Y-89867038D01*
X182469366Y-89850402D01*
X182518831Y-89811008D01*
X182576541Y-89748430D01*
X182665189Y-89631936D01*
X182747831Y-89495014D01*
X182817749Y-89351772D01*
X182868224Y-89216317D01*
X182892535Y-89102758D01*
X182893699Y-89082482D01*
X182888907Y-88993896D01*
X182864712Y-88931521D01*
X182826499Y-88884726D01*
X182742204Y-88822424D01*
X182633385Y-88774600D01*
X182527436Y-88752904D01*
X182515916Y-88752610D01*
X182478738Y-88773650D01*
X182423075Y-88830464D01*
X182356087Y-88913592D01*
X182284931Y-89013576D01*
X182216765Y-89120956D01*
X182161285Y-89221229D01*
X182082702Y-89403461D01*
X182044828Y-89557490D01*
X181407355Y-89557490D01*
X181459545Y-89480677D01*
X181545787Y-89350563D01*
X181666935Y-89166726D01*
X181764336Y-89019837D01*
X181842705Y-88903331D01*
X181906758Y-88810643D01*
X181961211Y-88735206D01*
X182010778Y-88670454D01*
X182060175Y-88609823D01*
X182114118Y-88546746D01*
X182163902Y-88489896D01*
X182304503Y-88330130D01*
X182490584Y-88345851D01*
X182725189Y-88386763D01*
X182927093Y-88466820D01*
X183082896Y-88574695D01*
X183147044Y-88628602D01*
X183194082Y-88663338D01*
X183212433Y-88671320D01*
X183239957Y-88626469D01*
X183281662Y-88539816D01*
X183334454Y-88418604D01*
X183395245Y-88270074D01*
X183460940Y-88101469D01*
X183499578Y-87998669D01*
X183624423Y-87678211D01*
X183751566Y-87387660D01*
X183887507Y-87115234D01*
X184038748Y-86849149D01*
X184211790Y-86577620D01*
X184413135Y-86288866D01*
X184533130Y-86125372D01*
X184633096Y-85992051D01*
X184708551Y-85895083D01*
X184765491Y-85828715D01*
X184809914Y-85787197D01*
X184847816Y-85764775D01*
X184885195Y-85755699D01*
X184920127Y-85754179D01*
X185008950Y-85777536D01*
G37*
G36*
X159922696Y-84984779D02*
G01*
X160041625Y-85064796D01*
X160144811Y-85180355D01*
X160233215Y-85334004D01*
X160307800Y-85528293D01*
X160369528Y-85765770D01*
X160419362Y-86048984D01*
X160458264Y-86380482D01*
X160461051Y-86410461D01*
X160492873Y-86759100D01*
X160731831Y-86423460D01*
X160890539Y-86204913D01*
X161029738Y-86024282D01*
X161156241Y-85874643D01*
X161276859Y-85749069D01*
X161398406Y-85640636D01*
X161527695Y-85542419D01*
X161671537Y-85447493D01*
X161723044Y-85415900D01*
X161977358Y-85283704D01*
X162239760Y-85187257D01*
X162502684Y-85127614D01*
X162758560Y-85105831D01*
X162999821Y-85122964D01*
X163218899Y-85180069D01*
X163268384Y-85200302D01*
X163409694Y-85281877D01*
X163552728Y-85397180D01*
X163681138Y-85531185D01*
X163778575Y-85668864D01*
X163779015Y-85669639D01*
X163876074Y-85885118D01*
X163946355Y-86138367D01*
X163988675Y-86421894D01*
X164001848Y-86728206D01*
X163989311Y-87000135D01*
X163976351Y-87136647D01*
X163961709Y-87267943D01*
X163947347Y-87377504D01*
X163937120Y-87439713D01*
X163925262Y-87505937D01*
X163907455Y-87613167D01*
X163885368Y-87750974D01*
X163860673Y-87908932D01*
X163835038Y-88076610D01*
X163833067Y-88089662D01*
X163805392Y-88265967D01*
X163775964Y-88441120D01*
X163747053Y-88602439D01*
X163720931Y-88737242D01*
X163700421Y-88830604D01*
X163612798Y-89108086D01*
X163496293Y-89346075D01*
X163352100Y-89542855D01*
X163181408Y-89696710D01*
X163040020Y-89781295D01*
X162976635Y-89811169D01*
X162921899Y-89831983D01*
X162864447Y-89845346D01*
X162792909Y-89852869D01*
X162695921Y-89856159D01*
X162562115Y-89856826D01*
X162507062Y-89856742D01*
X162357361Y-89855896D01*
X162245369Y-89852653D01*
X162156797Y-89844881D01*
X162077359Y-89830447D01*
X161992768Y-89807220D01*
X161888736Y-89773068D01*
X161844114Y-89757804D01*
X161644362Y-89682600D01*
X161451016Y-89594874D01*
X161252076Y-89488350D01*
X161035539Y-89356750D01*
X160870423Y-89248600D01*
X160766971Y-89180488D01*
X160680034Y-89125572D01*
X160618079Y-89089033D01*
X160589577Y-89076052D01*
X160588815Y-89076316D01*
X160589852Y-89106954D01*
X160606020Y-89179870D01*
X160635172Y-89288301D01*
X160675158Y-89425484D01*
X160723833Y-89584657D01*
X160779047Y-89759056D01*
X160838652Y-89941918D01*
X160900502Y-90126481D01*
X160962448Y-90305982D01*
X161022341Y-90473658D01*
X161078035Y-90622745D01*
X161088763Y-90650460D01*
X161157309Y-90815587D01*
X161243902Y-91007807D01*
X161342714Y-91215515D01*
X161447915Y-91427103D01*
X161553676Y-91630966D01*
X161654167Y-91815497D01*
X161743560Y-91969088D01*
X161780775Y-92028352D01*
X162057633Y-92420117D01*
X162347679Y-92762546D01*
X162652831Y-93057063D01*
X162975007Y-93305092D01*
X163316128Y-93508057D01*
X163678112Y-93667383D01*
X164062878Y-93784492D01*
X164183930Y-93811792D01*
X164335700Y-93835009D01*
X164526554Y-93851304D01*
X164744042Y-93860665D01*
X164975714Y-93863084D01*
X165209119Y-93858549D01*
X165431806Y-93847050D01*
X165631326Y-93828577D01*
X165741173Y-93813080D01*
X166083505Y-93748056D01*
X166450554Y-93662782D01*
X166846899Y-93555987D01*
X167277117Y-93426405D01*
X167745788Y-93272767D01*
X167970199Y-93195532D01*
X168138895Y-93137661D01*
X168294475Y-93086108D01*
X168429187Y-93043295D01*
X168535281Y-93011647D01*
X168605006Y-92993587D01*
X168626647Y-92990276D01*
X168705044Y-93012768D01*
X168763354Y-93070231D01*
X168795800Y-93147649D01*
X168796603Y-93230005D01*
X168759983Y-93302282D01*
X168750375Y-93311808D01*
X168701732Y-93341061D01*
X168609352Y-93382708D01*
X168479432Y-93434661D01*
X168318172Y-93494828D01*
X168131772Y-93561120D01*
X167926430Y-93631449D01*
X167708346Y-93703723D01*
X167483718Y-93775853D01*
X167258747Y-93845750D01*
X167039632Y-93911323D01*
X166832571Y-93970484D01*
X166653736Y-94018569D01*
X166383218Y-94086497D01*
X166149484Y-94139839D01*
X165939977Y-94180400D01*
X165742136Y-94209986D01*
X165543401Y-94230401D01*
X165331213Y-94243452D01*
X165093013Y-94250943D01*
X165028864Y-94252144D01*
X164775135Y-94254299D01*
X164568538Y-94251321D01*
X164404449Y-94243058D01*
X164278243Y-94229356D01*
X164261924Y-94226761D01*
X163834205Y-94132090D01*
X163429668Y-93994442D01*
X163047419Y-93813049D01*
X162686562Y-93587140D01*
X162346201Y-93315946D01*
X162025443Y-92998697D01*
X161723391Y-92634622D01*
X161439151Y-92222953D01*
X161171828Y-91762920D01*
X160998476Y-91420456D01*
X160897281Y-91205310D01*
X160808957Y-91007436D01*
X160728320Y-90813815D01*
X160650185Y-90611433D01*
X160569367Y-90387271D01*
X160480683Y-90128314D01*
X160463987Y-90078505D01*
X160407131Y-89908755D01*
X160364352Y-89785815D01*
X160332809Y-89707327D01*
X160309659Y-89670934D01*
X160292063Y-89674279D01*
X160277177Y-89715005D01*
X160262161Y-89790755D01*
X160244611Y-89896520D01*
X160212763Y-90072097D01*
X160170165Y-90281206D01*
X160120522Y-90507430D01*
X160067537Y-90734355D01*
X160014914Y-90945564D01*
X159971837Y-91105425D01*
X159830782Y-91569005D01*
X159681625Y-91988235D01*
X159520893Y-92370551D01*
X159345112Y-92723393D01*
X159150808Y-93054199D01*
X158934508Y-93370406D01*
X158879921Y-93443651D01*
X158717232Y-93644508D01*
X158568984Y-93797114D01*
X158433227Y-93902564D01*
X158308012Y-93961951D01*
X158191387Y-93976369D01*
X158081405Y-93946914D01*
X158032759Y-93919101D01*
X157948702Y-93832700D01*
X157891711Y-93703793D01*
X157861729Y-93531924D01*
X157860901Y-93473101D01*
X158245435Y-93473101D01*
X158255591Y-93527127D01*
X158267380Y-93536233D01*
X158295336Y-93518042D01*
X158346046Y-93470241D01*
X158408770Y-93402993D01*
X158411640Y-93399744D01*
X158492649Y-93299985D01*
X158590910Y-93166886D01*
X158698314Y-93012500D01*
X158806754Y-92848880D01*
X158908122Y-92688078D01*
X158994309Y-92542147D01*
X159020763Y-92494270D01*
X159178287Y-92171853D01*
X159328685Y-91803751D01*
X159470206Y-91395994D01*
X159601099Y-90954613D01*
X159719612Y-90485640D01*
X159823996Y-89995106D01*
X159912498Y-89489043D01*
X159933438Y-89350563D01*
X159959783Y-89162093D01*
X159983406Y-88977329D01*
X160003658Y-88803069D01*
X160019889Y-88646106D01*
X160031448Y-88513239D01*
X160034619Y-88461404D01*
X160453224Y-88461404D01*
X160680706Y-88630689D01*
X160856757Y-88757905D01*
X161047821Y-88889506D01*
X161238892Y-89015530D01*
X161414963Y-89126014D01*
X161521844Y-89189108D01*
X161737525Y-89296008D01*
X161965181Y-89380484D01*
X162194551Y-89440456D01*
X162415373Y-89473842D01*
X162617387Y-89478561D01*
X162790330Y-89452533D01*
X162803022Y-89448936D01*
X162913748Y-89394659D01*
X163026306Y-89302656D01*
X163128797Y-89185353D01*
X163209324Y-89055174D01*
X163234063Y-88998785D01*
X163264113Y-88908563D01*
X163295999Y-88789788D01*
X163330535Y-88638484D01*
X163368533Y-88450674D01*
X163410808Y-88222381D01*
X163458172Y-87949629D01*
X163499791Y-87699693D01*
X163531497Y-87499849D01*
X163554425Y-87335551D01*
X163569934Y-87191347D01*
X163579383Y-87051784D01*
X163584131Y-86901409D01*
X163585537Y-86724770D01*
X163584968Y-86552320D01*
X163582237Y-86421147D01*
X163576377Y-86320543D01*
X163566423Y-86239802D01*
X163551408Y-86168219D01*
X163530367Y-86095088D01*
X163528067Y-86087820D01*
X163447567Y-85898041D01*
X163339124Y-85739856D01*
X163208480Y-85620833D01*
X163144574Y-85582371D01*
X163079182Y-85551692D01*
X163017459Y-85532178D01*
X162944699Y-85521422D01*
X162846200Y-85517019D01*
X162741606Y-85516449D01*
X162534426Y-85527557D01*
X162348204Y-85563138D01*
X162167206Y-85628002D01*
X161975699Y-85726964D01*
X161896033Y-85775048D01*
X161775215Y-85855099D01*
X161662132Y-85941339D01*
X161552516Y-86038704D01*
X161442098Y-86152130D01*
X161326608Y-86286552D01*
X161201778Y-86446905D01*
X161063339Y-86638126D01*
X160907020Y-86865148D01*
X160751216Y-87098562D01*
X160496311Y-87484442D01*
X160476293Y-87839048D01*
X160468600Y-87983314D01*
X160462025Y-88121614D01*
X160457220Y-88239182D01*
X160454836Y-88321252D01*
X160454749Y-88327529D01*
X160453224Y-88461404D01*
X160034619Y-88461404D01*
X160037687Y-88411261D01*
X160037954Y-88346970D01*
X160031600Y-88327161D01*
X160031300Y-88327325D01*
X160011015Y-88355840D01*
X159972207Y-88424554D01*
X159918316Y-88526532D01*
X159852779Y-88654841D01*
X159779032Y-88802548D01*
X159700515Y-88962720D01*
X159620664Y-89128422D01*
X159542918Y-89292723D01*
X159470714Y-89448688D01*
X159423836Y-89552495D01*
X159206813Y-90056660D01*
X159007103Y-90555390D01*
X158826509Y-91043162D01*
X158666833Y-91514449D01*
X158529878Y-91963726D01*
X158417446Y-92385466D01*
X158331340Y-92774145D01*
X158284380Y-93045609D01*
X158259928Y-93229519D01*
X158246913Y-93372958D01*
X158245435Y-93473101D01*
X157860901Y-93473101D01*
X157858698Y-93316639D01*
X157882559Y-93057481D01*
X157904394Y-92912282D01*
X157990946Y-92472845D01*
X158108618Y-92000003D01*
X158254985Y-91500085D01*
X158427624Y-90979415D01*
X158624111Y-90444322D01*
X158842023Y-89901131D01*
X159078937Y-89356168D01*
X159332429Y-88815761D01*
X159600075Y-88286236D01*
X159858678Y-87810661D01*
X160089253Y-87401671D01*
X160089253Y-87004565D01*
X160082992Y-86724426D01*
X160065124Y-86444054D01*
X160037020Y-86176831D01*
X160000050Y-85936138D01*
X159961519Y-85757861D01*
X159928519Y-85642388D01*
X159892790Y-85538358D01*
X159858650Y-85456563D01*
X159830413Y-85407795D01*
X159817957Y-85398874D01*
X159799137Y-85418104D01*
X159754162Y-85470972D01*
X159689022Y-85550246D01*
X159609705Y-85648696D01*
X159575727Y-85691351D01*
X159289204Y-86067998D01*
X159009474Y-86468647D01*
X158731080Y-86901530D01*
X158448571Y-87374879D01*
X158374274Y-87504708D01*
X158253576Y-87714892D01*
X158151112Y-87886790D01*
X158061287Y-88028333D01*
X157978506Y-88147449D01*
X157897174Y-88252068D01*
X157811697Y-88350119D01*
X157716478Y-88449531D01*
X157686361Y-88479631D01*
X157523649Y-88629495D01*
X157358368Y-88755704D01*
X157177384Y-88866556D01*
X156967562Y-88970348D01*
X156790068Y-89045847D01*
X156675175Y-89089494D01*
X156537193Y-89137573D01*
X156386155Y-89187062D01*
X156232096Y-89234941D01*
X156085050Y-89278188D01*
X155955050Y-89313783D01*
X155852133Y-89338705D01*
X155786330Y-89349932D01*
X155778910Y-89350268D01*
X155710503Y-89328444D01*
X155645517Y-89274029D01*
X155601185Y-89204558D01*
X155591607Y-89159640D01*
X155600554Y-89098597D01*
X155631813Y-89047942D01*
X155692006Y-89003270D01*
X155787756Y-88960174D01*
X155925686Y-88914251D01*
X155988282Y-88895792D01*
X156326012Y-88791906D01*
X156618003Y-88686360D01*
X156870442Y-88574776D01*
X157089513Y-88452776D01*
X157281403Y-88315982D01*
X157452298Y-88160015D01*
X157608384Y-87980499D01*
X157755846Y-87773054D01*
X157892425Y-87548153D01*
X158097475Y-87192736D01*
X158284723Y-86876878D01*
X158458846Y-86593251D01*
X158624518Y-86334526D01*
X158786415Y-86093375D01*
X158949212Y-85862471D01*
X159089491Y-85671852D01*
X159255393Y-85454311D01*
X159395655Y-85278934D01*
X159512049Y-85143701D01*
X159606343Y-85046591D01*
X159680309Y-84985583D01*
X159702835Y-84971780D01*
X159795519Y-84921656D01*
X159922696Y-84984779D01*
G37*
G36*
X193978947Y-93148424D02*
G01*
X194006963Y-93161328D01*
X194013753Y-93187452D01*
X194004270Y-93227261D01*
X193983465Y-93281223D01*
X193966187Y-93324186D01*
X193940394Y-93397049D01*
X193928767Y-93445735D01*
X193931450Y-93458239D01*
X193961624Y-93453073D01*
X194034025Y-93438746D01*
X194140044Y-93417020D01*
X194271071Y-93389655D01*
X194391815Y-93364098D01*
X194556390Y-93329796D01*
X194677140Y-93306670D01*
X194760822Y-93293870D01*
X194814195Y-93290542D01*
X194844018Y-93295832D01*
X194855407Y-93305603D01*
X194882541Y-93355923D01*
X194927578Y-93445393D01*
X194988217Y-93569093D01*
X195062155Y-93722101D01*
X195147090Y-93899497D01*
X195240720Y-94096359D01*
X195340744Y-94307767D01*
X195444859Y-94528800D01*
X195550764Y-94754537D01*
X195656156Y-94980056D01*
X195758734Y-95200438D01*
X195856196Y-95410761D01*
X195946239Y-95606105D01*
X196026562Y-95781547D01*
X196094862Y-95932169D01*
X196148838Y-96053047D01*
X196186189Y-96139263D01*
X196204611Y-96185894D01*
X196206019Y-96192814D01*
X196176369Y-96203402D01*
X196102132Y-96223588D01*
X195989518Y-96251867D01*
X195844735Y-96286730D01*
X195673993Y-96326672D01*
X195483501Y-96370186D01*
X195369590Y-96395759D01*
X195171459Y-96440156D01*
X194990192Y-96481148D01*
X194831867Y-96517330D01*
X194702564Y-96547299D01*
X194608360Y-96569650D01*
X194555333Y-96582981D01*
X194545844Y-96586021D01*
X194558129Y-96607011D01*
X194598569Y-96652493D01*
X194641009Y-96695451D01*
X194711860Y-96772497D01*
X194740062Y-96825855D01*
X194726714Y-96859939D01*
X194686028Y-96876489D01*
X194639411Y-96887334D01*
X194553740Y-96907333D01*
X194440590Y-96933783D01*
X194311531Y-96963980D01*
X194290949Y-96968798D01*
X194163588Y-96997154D01*
X194053143Y-97019011D01*
X193970110Y-97032490D01*
X193924983Y-97035711D01*
X193921467Y-97034974D01*
X193906388Y-97015769D01*
X193910418Y-96970223D01*
X193934668Y-96888507D01*
X193939644Y-96873900D01*
X193965254Y-96794196D01*
X193980259Y-96736896D01*
X193981830Y-96716562D01*
X193955320Y-96718895D01*
X193889757Y-96730481D01*
X193796746Y-96748854D01*
X193687893Y-96771552D01*
X193574803Y-96796109D01*
X193469082Y-96820061D01*
X193382334Y-96840943D01*
X193331318Y-96854699D01*
X193308691Y-96867359D01*
X193312642Y-96890712D01*
X193347546Y-96933985D01*
X193389814Y-96978092D01*
X193460542Y-97056502D01*
X193491456Y-97109477D01*
X193484455Y-97142625D01*
X193451126Y-97159122D01*
X193330008Y-97190827D01*
X193195831Y-97222630D01*
X193058386Y-97252611D01*
X192927463Y-97278855D01*
X192812852Y-97299443D01*
X192724345Y-97312459D01*
X192671731Y-97315985D01*
X192662000Y-97313648D01*
X192656120Y-97275131D01*
X192670920Y-97200023D01*
X192688996Y-97141860D01*
X192712997Y-97064194D01*
X192724366Y-97010577D01*
X192721783Y-96993814D01*
X192690208Y-96999081D01*
X192619676Y-97013390D01*
X192521943Y-97034305D01*
X192449224Y-97050326D01*
X192194763Y-97106985D01*
X192299736Y-97213944D01*
X192352480Y-97267896D01*
X192387509Y-97309493D01*
X192400320Y-97342069D01*
X192386410Y-97368957D01*
X192341279Y-97393488D01*
X192260423Y-97418994D01*
X192139340Y-97448810D01*
X191973527Y-97486266D01*
X191913753Y-97499633D01*
X191776524Y-97530287D01*
X191682107Y-97550276D01*
X191622511Y-97560013D01*
X191589745Y-97559908D01*
X191575818Y-97550373D01*
X191572738Y-97531820D01*
X191572774Y-97517189D01*
X191581201Y-97463231D01*
X191602336Y-97386189D01*
X191612048Y-97357146D01*
X191633798Y-97289016D01*
X191643566Y-97244929D01*
X191642824Y-97237331D01*
X191614891Y-97238121D01*
X191557173Y-97251056D01*
X191545225Y-97254385D01*
X191480655Y-97271472D01*
X191439442Y-97279784D01*
X191436783Y-97279938D01*
X191416997Y-97258328D01*
X191381476Y-97200881D01*
X191336905Y-97118678D01*
X191323072Y-97091453D01*
X191278669Y-97003323D01*
X191243937Y-96935434D01*
X191224761Y-96899256D01*
X191222940Y-96896322D01*
X191196617Y-96896957D01*
X191125172Y-96902065D01*
X191015233Y-96911079D01*
X190873428Y-96923435D01*
X190706386Y-96938568D01*
X190520736Y-96955913D01*
X190495252Y-96958332D01*
X190276096Y-96979096D01*
X190103224Y-96994626D01*
X189971142Y-97004425D01*
X189874354Y-97008000D01*
X189807365Y-97004856D01*
X189764680Y-96994499D01*
X189740804Y-96976434D01*
X189730242Y-96950167D01*
X189727499Y-96915203D01*
X189727317Y-96889226D01*
X189728614Y-96870653D01*
X189736178Y-96854143D01*
X189755154Y-96837914D01*
X189790685Y-96820184D01*
X189847915Y-96799170D01*
X189931988Y-96773089D01*
X190048048Y-96740160D01*
X190201238Y-96698601D01*
X190396702Y-96646628D01*
X190526356Y-96612361D01*
X190751438Y-96553237D01*
X190931608Y-96506807D01*
X191072089Y-96471987D01*
X191178107Y-96447689D01*
X191254884Y-96432828D01*
X191307645Y-96426317D01*
X191341614Y-96427071D01*
X191362015Y-96434003D01*
X191366837Y-96437617D01*
X191424201Y-96465986D01*
X191475399Y-96474002D01*
X191515759Y-96469166D01*
X191600843Y-96455379D01*
X191725040Y-96433721D01*
X191882735Y-96405273D01*
X192068314Y-96371114D01*
X192276164Y-96332326D01*
X192500671Y-96289988D01*
X192736221Y-96245182D01*
X192977202Y-96198987D01*
X193217998Y-96152485D01*
X193452997Y-96106754D01*
X193676584Y-96062877D01*
X193883147Y-96021932D01*
X194067070Y-95985002D01*
X194222742Y-95953165D01*
X194344547Y-95927503D01*
X194426873Y-95909095D01*
X194464106Y-95899023D01*
X194464913Y-95898639D01*
X194493852Y-95856537D01*
X194506433Y-95780374D01*
X194504447Y-95684817D01*
X194489683Y-95584533D01*
X194463932Y-95494186D01*
X194428984Y-95428444D01*
X194404933Y-95407221D01*
X194380299Y-95403912D01*
X194328274Y-95407031D01*
X194246019Y-95417056D01*
X194130692Y-95434468D01*
X193979451Y-95459746D01*
X193789455Y-95493370D01*
X193557863Y-95535820D01*
X193281833Y-95587576D01*
X192958524Y-95649117D01*
X192855535Y-95668859D01*
X192583188Y-95721293D01*
X192326021Y-95771106D01*
X192088585Y-95817397D01*
X191875428Y-95859266D01*
X191691100Y-95895810D01*
X191540150Y-95926129D01*
X191427126Y-95949321D01*
X191356579Y-95964484D01*
X191333200Y-95970498D01*
X191302948Y-95976533D01*
X191227175Y-95987412D01*
X191112052Y-96002370D01*
X190963749Y-96020642D01*
X190788438Y-96041462D01*
X190592289Y-96064067D01*
X190441830Y-96080995D01*
X189572586Y-96177817D01*
X189555628Y-96064729D01*
X189547332Y-95994257D01*
X189546309Y-95949254D01*
X189548301Y-95942327D01*
X189576756Y-95930652D01*
X189647811Y-95906297D01*
X189754255Y-95871485D01*
X189888873Y-95828441D01*
X190044454Y-95779389D01*
X190213784Y-95726554D01*
X190389649Y-95672160D01*
X190564838Y-95618432D01*
X190732137Y-95567593D01*
X190884334Y-95521869D01*
X191014214Y-95483483D01*
X191114566Y-95454659D01*
X191178177Y-95437623D01*
X191196988Y-95433902D01*
X191241414Y-95428910D01*
X191329863Y-95414805D01*
X191456824Y-95392672D01*
X191616789Y-95363597D01*
X191804249Y-95328667D01*
X192013694Y-95288967D01*
X192239616Y-95245584D01*
X192476505Y-95199602D01*
X192718851Y-95152109D01*
X192961147Y-95104190D01*
X193197883Y-95056930D01*
X193423549Y-95011417D01*
X193632636Y-94968735D01*
X193819636Y-94929970D01*
X193979039Y-94896209D01*
X194105336Y-94868538D01*
X194193019Y-94848042D01*
X194236577Y-94835807D01*
X194240029Y-94834085D01*
X194263455Y-94804138D01*
X194273231Y-94756332D01*
X194271227Y-94676846D01*
X194267419Y-94631715D01*
X194243612Y-94490696D01*
X194203294Y-94395465D01*
X194147352Y-94347722D01*
X194115734Y-94342170D01*
X194080397Y-94346946D01*
X193998816Y-94360685D01*
X193875801Y-94382502D01*
X193716164Y-94411510D01*
X193524714Y-94446825D01*
X193306263Y-94487562D01*
X193065622Y-94532833D01*
X192807600Y-94581756D01*
X192632555Y-94615148D01*
X192366928Y-94665858D01*
X192116466Y-94713510D01*
X191885847Y-94757225D01*
X191679752Y-94796123D01*
X191502862Y-94829325D01*
X191359855Y-94855953D01*
X191255412Y-94875126D01*
X191194213Y-94885965D01*
X191179728Y-94888127D01*
X191145508Y-94904964D01*
X191096775Y-94945834D01*
X191093325Y-94949245D01*
X191071235Y-94967509D01*
X191040170Y-94984097D01*
X190994362Y-95000273D01*
X190928044Y-95017303D01*
X190835447Y-95036451D01*
X190710805Y-95058982D01*
X190548349Y-95086163D01*
X190342312Y-95119259D01*
X190256073Y-95132910D01*
X190059721Y-95164094D01*
X189878723Y-95193186D01*
X189719816Y-95219074D01*
X189589736Y-95240650D01*
X189495220Y-95256803D01*
X189443006Y-95266424D01*
X189436010Y-95268031D01*
X189401991Y-95262714D01*
X189375995Y-95217873D01*
X189365220Y-95183320D01*
X189349462Y-95120242D01*
X189343539Y-95083848D01*
X189344154Y-95080906D01*
X189369176Y-95071240D01*
X189436961Y-95046492D01*
X189541251Y-95008908D01*
X189675786Y-94960734D01*
X189834305Y-94904218D01*
X190010551Y-94841605D01*
X190038894Y-94831555D01*
X190727840Y-94587334D01*
X190719595Y-94362412D01*
X190711350Y-94137490D01*
X190870838Y-94106112D01*
X191030326Y-94074735D01*
X190924579Y-93966987D01*
X190860247Y-93894096D01*
X190823357Y-93836745D01*
X190818015Y-93802509D01*
X190832023Y-93796213D01*
X190860850Y-93790865D01*
X190930813Y-93776193D01*
X191032312Y-93754256D01*
X191155748Y-93727111D01*
X191195803Y-93718219D01*
X191385641Y-93677941D01*
X191528852Y-93651896D01*
X191624495Y-93640217D01*
X191671630Y-93643041D01*
X191676765Y-93649154D01*
X191668984Y-93676473D01*
X191648755Y-93738505D01*
X191625241Y-93807842D01*
X191573716Y-93957601D01*
X191631740Y-93944129D01*
X191680192Y-93933546D01*
X191766470Y-93915319D01*
X191877452Y-93892202D01*
X191975742Y-93871929D01*
X192091052Y-93847687D01*
X192186240Y-93826613D01*
X192250568Y-93811155D01*
X192273097Y-93804162D01*
X192262427Y-93782624D01*
X192223350Y-93735355D01*
X192170297Y-93678785D01*
X192108931Y-93609181D01*
X192079431Y-93559598D01*
X192080926Y-93540184D01*
X192115218Y-93526116D01*
X192188532Y-93505598D01*
X192290339Y-93480814D01*
X192410109Y-93453944D01*
X192537315Y-93427170D01*
X192661427Y-93402673D01*
X192771917Y-93382636D01*
X192858257Y-93369239D01*
X192909918Y-93364665D01*
X192919512Y-93366424D01*
X192920109Y-93397799D01*
X192904833Y-93462885D01*
X192879464Y-93540495D01*
X192822301Y-93697450D01*
X192879983Y-93683743D01*
X192931748Y-93672097D01*
X193018126Y-93653310D01*
X193122840Y-93630912D01*
X193153031Y-93624516D01*
X193368396Y-93578995D01*
X193263522Y-93472137D01*
X193206451Y-93409299D01*
X193168361Y-93358384D01*
X193158649Y-93336375D01*
X193182105Y-93317273D01*
X193244075Y-93293340D01*
X193331960Y-93269290D01*
X193347134Y-93265845D01*
X193555569Y-93219657D01*
X193718016Y-93184354D01*
X193839426Y-93160403D01*
X193924752Y-93148271D01*
X193978947Y-93148424D01*
G37*
G36*
X168914125Y-89933866D02*
G01*
X168984775Y-89978275D01*
X169058444Y-90067899D01*
X169138266Y-90205669D01*
X169140229Y-90209486D01*
X169230464Y-90407011D01*
X169305587Y-90614033D01*
X169359475Y-90812030D01*
X169381926Y-90940565D01*
X169383346Y-91156865D01*
X169339099Y-91372063D01*
X169253490Y-91574612D01*
X169130824Y-91752963D01*
X169047274Y-91838213D01*
X168915558Y-91955731D01*
X169110542Y-91938390D01*
X169187575Y-91930244D01*
X169307319Y-91915940D01*
X169461002Y-91896603D01*
X169639852Y-91873357D01*
X169835098Y-91847329D01*
X170037966Y-91819643D01*
X170058069Y-91816863D01*
X170289623Y-91785157D01*
X170475225Y-91761092D01*
X170620368Y-91744780D01*
X170730548Y-91736329D01*
X170811260Y-91735848D01*
X170867997Y-91743447D01*
X170906255Y-91759235D01*
X170931528Y-91783321D01*
X170949312Y-91815814D01*
X170956919Y-91834740D01*
X170979408Y-91915259D01*
X170969570Y-91975624D01*
X170923899Y-92038836D01*
X170909849Y-92053833D01*
X170893754Y-92067085D01*
X170871444Y-92079337D01*
X170838747Y-92091330D01*
X170791494Y-92103805D01*
X170725512Y-92117506D01*
X170636633Y-92133174D01*
X170520684Y-92151552D01*
X170373495Y-92173380D01*
X170190896Y-92199403D01*
X169968716Y-92230361D01*
X169702783Y-92266996D01*
X169435517Y-92303664D01*
X169285033Y-92319839D01*
X169091915Y-92333667D01*
X168865480Y-92344953D01*
X168615047Y-92353504D01*
X168349931Y-92359127D01*
X168079451Y-92361630D01*
X167812923Y-92360818D01*
X167559666Y-92356500D01*
X167328996Y-92348481D01*
X167311989Y-92347683D01*
X167125885Y-92337639D01*
X166985416Y-92326129D01*
X166884232Y-92310741D01*
X166815980Y-92289063D01*
X166774308Y-92258685D01*
X166752865Y-92217195D01*
X166745298Y-92162182D01*
X166744728Y-92132344D01*
X166748002Y-92070331D01*
X166762010Y-92022918D01*
X166793038Y-91987806D01*
X166847367Y-91962698D01*
X166931281Y-91945298D01*
X167051064Y-91933309D01*
X167212999Y-91924433D01*
X167325795Y-91919915D01*
X167603465Y-91905336D01*
X167839566Y-91883094D01*
X168044173Y-91851551D01*
X168227363Y-91809069D01*
X168399210Y-91754009D01*
X168439852Y-91738754D01*
X168618532Y-91652642D01*
X168768307Y-91545679D01*
X168881141Y-91424664D01*
X168943048Y-91313119D01*
X168970396Y-91192571D01*
X168976788Y-91042438D01*
X168963202Y-90880275D01*
X168930618Y-90723641D01*
X168905995Y-90648905D01*
X168865874Y-90546008D01*
X168832804Y-90480311D01*
X168797152Y-90449985D01*
X168749284Y-90453202D01*
X168679566Y-90488131D01*
X168578365Y-90552946D01*
X168538587Y-90579153D01*
X168376157Y-90688101D01*
X168217843Y-90799005D01*
X168054801Y-90918468D01*
X167878185Y-91053093D01*
X167679150Y-91209480D01*
X167476105Y-91372224D01*
X167253483Y-91548669D01*
X167059086Y-91694716D01*
X166883675Y-91816020D01*
X166718010Y-91918239D01*
X166552852Y-92007030D01*
X166378962Y-92088049D01*
X166187101Y-92166953D01*
X166162403Y-92176559D01*
X165945055Y-92255403D01*
X165764879Y-92308133D01*
X165614660Y-92335714D01*
X165487183Y-92339112D01*
X165375234Y-92319294D01*
X165301619Y-92291842D01*
X165164725Y-92202066D01*
X165060652Y-92072441D01*
X164989796Y-91903764D01*
X164952552Y-91696831D01*
X164946622Y-91576393D01*
X164943573Y-91482600D01*
X164937582Y-91413182D01*
X164929827Y-91380644D01*
X164928095Y-91379665D01*
X164904917Y-91399027D01*
X164859093Y-91448822D01*
X164800157Y-91518642D01*
X164794882Y-91525125D01*
X164701519Y-91631597D01*
X164580635Y-91757169D01*
X164445237Y-91889386D01*
X164308333Y-92015796D01*
X164182927Y-92123943D01*
X164107992Y-92182821D01*
X163872589Y-92337302D01*
X163644534Y-92448477D01*
X163427387Y-92515164D01*
X163224711Y-92536178D01*
X163087503Y-92521909D01*
X162935197Y-92474673D01*
X162798385Y-92394482D01*
X162693462Y-92305003D01*
X162580671Y-92177433D01*
X162514530Y-92049568D01*
X162491046Y-91909332D01*
X162492351Y-91895177D01*
X162898494Y-91895177D01*
X162924689Y-91979456D01*
X162994631Y-92057969D01*
X163099265Y-92108509D01*
X163228289Y-92129168D01*
X163371404Y-92118039D01*
X163490801Y-92084329D01*
X163653589Y-92004385D01*
X163835952Y-91882350D01*
X164033390Y-91722221D01*
X164241409Y-91527996D01*
X164455509Y-91303673D01*
X164671194Y-91053249D01*
X164723714Y-90988434D01*
X164983918Y-90663459D01*
X164869901Y-90646856D01*
X164702780Y-90638691D01*
X164506011Y-90655288D01*
X164294040Y-90693852D01*
X164081312Y-90751589D01*
X163882273Y-90825706D01*
X163835265Y-90846976D01*
X163636629Y-90953798D01*
X163453170Y-91077635D01*
X163288947Y-91213437D01*
X163148022Y-91356153D01*
X163034454Y-91500735D01*
X162952303Y-91642132D01*
X162905630Y-91775296D01*
X162898494Y-91895177D01*
X162492351Y-91895177D01*
X162506227Y-91744645D01*
X162506942Y-91740782D01*
X162571752Y-91527430D01*
X162682977Y-91316401D01*
X162835082Y-91112236D01*
X163022535Y-90919478D01*
X163239800Y-90742669D01*
X163481346Y-90586352D01*
X163741636Y-90455068D01*
X164015139Y-90353360D01*
X164274923Y-90289586D01*
X164577425Y-90252701D01*
X164888857Y-90248845D01*
X165190657Y-90277567D01*
X165385439Y-90316610D01*
X165483475Y-90361413D01*
X165544311Y-90430242D01*
X165565324Y-90512178D01*
X165543891Y-90596298D01*
X165477389Y-90671683D01*
X165471713Y-90675829D01*
X165438579Y-90703352D01*
X165415541Y-90737397D01*
X165398912Y-90789363D01*
X165385005Y-90870655D01*
X165370612Y-90988448D01*
X165354277Y-91165408D01*
X165344740Y-91342084D01*
X165342014Y-91507664D01*
X165346112Y-91651338D01*
X165357048Y-91762294D01*
X165369572Y-91817038D01*
X165401805Y-91884883D01*
X165446772Y-91927792D01*
X165510975Y-91946077D01*
X165600916Y-91940052D01*
X165723097Y-91910028D01*
X165884021Y-91856320D01*
X165919419Y-91843498D01*
X166149774Y-91753814D01*
X166356720Y-91660022D01*
X166551211Y-91555578D01*
X166744201Y-91433937D01*
X166946646Y-91288556D01*
X167169500Y-91112889D01*
X167241586Y-91053627D01*
X167396947Y-90927900D01*
X167567979Y-90794674D01*
X167748869Y-90658021D01*
X167933801Y-90522013D01*
X168116961Y-90390723D01*
X168292535Y-90268223D01*
X168454709Y-90158586D01*
X168597668Y-90065883D01*
X168715598Y-89994188D01*
X168802684Y-89947572D01*
X168843360Y-89931739D01*
X168914125Y-89933866D01*
G37*
G36*
X165675515Y-97883935D02*
G01*
X165707820Y-97893402D01*
X165738092Y-97910761D01*
X165741176Y-97912774D01*
X165799799Y-97963731D01*
X165836838Y-98015756D01*
X165847677Y-98053363D01*
X165867548Y-98136021D01*
X165895156Y-98257822D01*
X165929207Y-98412857D01*
X165968405Y-98595217D01*
X166011457Y-98798994D01*
X166057066Y-99018278D01*
X166065830Y-99060798D01*
X166123865Y-99346238D01*
X166170276Y-99582229D01*
X166205267Y-99769954D01*
X166229046Y-99910596D01*
X166241818Y-100005339D01*
X166243789Y-100055365D01*
X166240463Y-100064188D01*
X166204701Y-100075342D01*
X166129376Y-100093898D01*
X166025931Y-100117162D01*
X165919293Y-100139690D01*
X165803900Y-100165170D01*
X165709971Y-100189326D01*
X165647614Y-100209323D01*
X165626816Y-100221715D01*
X165632239Y-100235507D01*
X165653684Y-100241371D01*
X165698915Y-100238566D01*
X165775696Y-100226348D01*
X165891793Y-100203977D01*
X165962898Y-100189591D01*
X166076511Y-100168205D01*
X166172714Y-100153405D01*
X166239167Y-100146899D01*
X166261428Y-100148218D01*
X166280785Y-100176829D01*
X166303762Y-100238745D01*
X166325826Y-100316553D01*
X166342446Y-100392836D01*
X166349088Y-100450181D01*
X166345164Y-100469950D01*
X166317473Y-100478734D01*
X166249073Y-100495617D01*
X166150180Y-100518192D01*
X166031007Y-100544052D01*
X166027717Y-100544749D01*
X165889178Y-100574554D01*
X165794630Y-100596552D01*
X165737077Y-100613112D01*
X165709518Y-100626599D01*
X165704956Y-100639381D01*
X165713482Y-100651012D01*
X165742869Y-100651779D01*
X165811249Y-100643584D01*
X165906815Y-100628539D01*
X166017757Y-100608761D01*
X166132266Y-100586363D01*
X166238535Y-100563460D01*
X166324754Y-100542167D01*
X166331024Y-100540430D01*
X166354923Y-100544424D01*
X166374289Y-100577561D01*
X166392857Y-100648529D01*
X166405179Y-100712934D01*
X166420073Y-100803811D01*
X166428693Y-100871895D01*
X166429373Y-100903756D01*
X166428914Y-100904456D01*
X166401298Y-100912347D01*
X166333331Y-100928090D01*
X166235640Y-100949303D01*
X166133777Y-100970555D01*
X165983143Y-101003582D01*
X165880549Y-101031393D01*
X165822443Y-101055258D01*
X165805277Y-101076447D01*
X165810583Y-101086086D01*
X165838881Y-101085332D01*
X165907668Y-101074963D01*
X166006693Y-101056730D01*
X166125707Y-101032383D01*
X166128846Y-101031712D01*
X166248032Y-101007105D01*
X166347266Y-100988316D01*
X166416372Y-100977153D01*
X166445172Y-100975423D01*
X166445295Y-100975524D01*
X166455633Y-101003877D01*
X166473180Y-101068401D01*
X166491886Y-101145577D01*
X166528977Y-101306130D01*
X166331377Y-101348870D01*
X166176799Y-101383048D01*
X166067376Y-101409325D01*
X165997190Y-101429549D01*
X165960324Y-101445567D01*
X165950859Y-101459229D01*
X165955125Y-101466343D01*
X165989545Y-101470808D01*
X166064516Y-101463233D01*
X166170325Y-101444883D01*
X166250838Y-101427821D01*
X166390641Y-101398906D01*
X166483708Y-101385897D01*
X166532705Y-101388488D01*
X166540866Y-101394284D01*
X166555055Y-101435655D01*
X166570332Y-101506679D01*
X166575526Y-101538229D01*
X166588843Y-101616249D01*
X166601656Y-101674596D01*
X166605489Y-101686988D01*
X166592393Y-101706801D01*
X166537073Y-101730918D01*
X166436260Y-101760503D01*
X166317420Y-101789645D01*
X166200579Y-101818714D01*
X166104929Y-101846125D01*
X166040367Y-101868786D01*
X166016786Y-101883565D01*
X166021371Y-101898171D01*
X166040400Y-101904329D01*
X166081783Y-101901068D01*
X166153428Y-101887417D01*
X166263246Y-101862408D01*
X166341760Y-101843705D01*
X166451414Y-101819347D01*
X166541481Y-101803015D01*
X166600609Y-101796549D01*
X166617574Y-101798949D01*
X166633718Y-101836668D01*
X166650617Y-101905299D01*
X166665483Y-101987620D01*
X166675530Y-102066410D01*
X166677970Y-102124451D01*
X166673379Y-102143794D01*
X166641023Y-102156874D01*
X166569733Y-102177480D01*
X166471435Y-102202334D01*
X166400256Y-102218867D01*
X166293604Y-102245056D01*
X166209086Y-102270051D01*
X166157514Y-102290405D01*
X166146776Y-102299677D01*
X166150613Y-102314320D01*
X166167691Y-102320791D01*
X166206360Y-102318186D01*
X166274969Y-102305604D01*
X166381867Y-102282142D01*
X166447338Y-102267185D01*
X166553429Y-102244274D01*
X166639138Y-102228511D01*
X166692877Y-102221878D01*
X166704960Y-102223111D01*
X166712696Y-102250390D01*
X166729327Y-102322272D01*
X166753540Y-102432375D01*
X166784020Y-102574317D01*
X166819454Y-102741717D01*
X166858529Y-102928194D01*
X166899931Y-103127367D01*
X166942346Y-103332852D01*
X166984461Y-103538270D01*
X167024963Y-103737239D01*
X167062536Y-103923377D01*
X167095869Y-104090303D01*
X167123647Y-104231635D01*
X167144557Y-104340992D01*
X167157285Y-104411993D01*
X167160696Y-104437086D01*
X167144538Y-104484110D01*
X167105331Y-104541934D01*
X167102200Y-104545586D01*
X167067184Y-104577329D01*
X167017350Y-104603965D01*
X166942695Y-104629104D01*
X166833214Y-104656358D01*
X166738133Y-104677025D01*
X166584377Y-104708390D01*
X166472157Y-104728213D01*
X166392473Y-104737194D01*
X166336328Y-104736034D01*
X166294723Y-104725434D01*
X166270585Y-104713449D01*
X166219356Y-104667715D01*
X166200297Y-104640209D01*
X166192116Y-104609501D01*
X166174353Y-104531585D01*
X166147781Y-104410204D01*
X166113170Y-104249107D01*
X166071293Y-104052037D01*
X166022920Y-103822742D01*
X165968823Y-103564966D01*
X165909774Y-103282456D01*
X165846544Y-102978957D01*
X165779905Y-102658215D01*
X165710628Y-102323976D01*
X165639484Y-101979986D01*
X165567245Y-101629989D01*
X165494683Y-101277733D01*
X165422570Y-100926963D01*
X165351675Y-100581424D01*
X165282772Y-100244862D01*
X165216631Y-99921024D01*
X165154025Y-99613654D01*
X165095723Y-99326499D01*
X165042499Y-99063305D01*
X164995124Y-98827816D01*
X164954368Y-98623780D01*
X164921004Y-98454941D01*
X164895803Y-98325045D01*
X164879536Y-98237839D01*
X164872976Y-98197067D01*
X164872876Y-98195299D01*
X164889327Y-98138425D01*
X164929141Y-98075630D01*
X164931371Y-98073007D01*
X164963179Y-98043152D01*
X165007209Y-98018247D01*
X165072894Y-97995058D01*
X165169666Y-97970349D01*
X165306957Y-97940884D01*
X165330525Y-97936078D01*
X165468680Y-97908432D01*
X165565716Y-97890895D01*
X165631404Y-97882915D01*
X165675515Y-97883935D01*
G37*
G36*
X171908189Y-89488653D02*
G01*
X172058964Y-89529929D01*
X172186211Y-89609265D01*
X172228291Y-89651227D01*
X172298505Y-89715263D01*
X172367308Y-89739582D01*
X172386672Y-89740532D01*
X172476671Y-89764281D01*
X172528834Y-89802724D01*
X172591026Y-89864917D01*
X172575772Y-90382391D01*
X172571734Y-90695921D01*
X172576649Y-91026032D01*
X172589974Y-91342046D01*
X172593912Y-91405613D01*
X172612619Y-91714799D01*
X172624344Y-91979086D01*
X172628624Y-92205163D01*
X172624999Y-92399716D01*
X172613007Y-92569434D01*
X172592188Y-92721003D01*
X172562078Y-92861112D01*
X172522218Y-92996447D01*
X172475233Y-93125830D01*
X172387588Y-93312470D01*
X172264839Y-93520422D01*
X172114250Y-93740855D01*
X171943084Y-93964943D01*
X171758607Y-94183854D01*
X171568083Y-94388761D01*
X171378775Y-94570834D01*
X171197949Y-94721244D01*
X171112385Y-94782218D01*
X170988457Y-94858781D01*
X170866214Y-94919780D01*
X170737223Y-94967144D01*
X170593054Y-95002800D01*
X170425276Y-95028677D01*
X170225457Y-95046702D01*
X169985166Y-95058803D01*
X169888729Y-95062032D01*
X169380017Y-95077386D01*
X169323273Y-95005248D01*
X169274229Y-94912493D01*
X169276858Y-94823723D01*
X169315603Y-94755291D01*
X169335826Y-94733324D01*
X169361030Y-94716956D01*
X169399194Y-94704935D01*
X169458299Y-94696007D01*
X169546324Y-94688917D01*
X169671249Y-94682411D01*
X169819510Y-94676115D01*
X170060954Y-94663992D01*
X170257919Y-94648654D01*
X170417879Y-94629030D01*
X170548307Y-94604055D01*
X170656675Y-94572658D01*
X170721230Y-94547250D01*
X170865951Y-94467051D01*
X171028629Y-94348051D01*
X171202035Y-94196935D01*
X171378938Y-94020388D01*
X171552107Y-93825097D01*
X171688074Y-93653224D01*
X171844033Y-93437964D01*
X171967045Y-93250440D01*
X172060968Y-93081663D01*
X172129660Y-92922641D01*
X172176980Y-92764386D01*
X172206788Y-92597907D01*
X172222941Y-92414214D01*
X172223371Y-92406127D01*
X172225715Y-92314516D01*
X172225381Y-92191095D01*
X172222725Y-92043611D01*
X172218105Y-91879814D01*
X172211876Y-91707451D01*
X172204396Y-91534272D01*
X172196022Y-91368024D01*
X172187109Y-91216456D01*
X172178016Y-91087317D01*
X172169099Y-90988355D01*
X172160715Y-90927318D01*
X172154529Y-90911001D01*
X172132938Y-90930843D01*
X172090755Y-90982409D01*
X172036982Y-91054670D01*
X172035312Y-91057003D01*
X171894963Y-91229161D01*
X171739437Y-91378050D01*
X171576614Y-91498294D01*
X171414377Y-91584518D01*
X171260608Y-91631346D01*
X171182843Y-91638362D01*
X171025094Y-91616443D01*
X170895274Y-91550905D01*
X170793662Y-91442160D01*
X170720532Y-91290621D01*
X170676161Y-91096702D01*
X170662055Y-90879718D01*
X171057600Y-90879718D01*
X171061909Y-90998081D01*
X171073019Y-91094495D01*
X171089260Y-91150727D01*
X171131928Y-91216454D01*
X171177968Y-91242791D01*
X171240916Y-91232634D01*
X171314904Y-91198970D01*
X171417877Y-91130156D01*
X171535191Y-91025088D01*
X171657012Y-90893550D01*
X171773508Y-90745321D01*
X171779801Y-90736548D01*
X171833918Y-90654586D01*
X171896677Y-90550044D01*
X171962612Y-90433249D01*
X172026259Y-90314529D01*
X172082152Y-90204211D01*
X172124828Y-90112622D01*
X172148820Y-90050088D01*
X172152102Y-90033009D01*
X172130450Y-90007093D01*
X172097560Y-90000512D01*
X172042260Y-89984319D01*
X171976725Y-89944461D01*
X171965576Y-89935517D01*
X171888534Y-89887880D01*
X171801975Y-89873250D01*
X171693009Y-89890735D01*
X171624127Y-89911911D01*
X171470849Y-89989818D01*
X171330709Y-90110243D01*
X171211502Y-90263983D01*
X171121022Y-90441838D01*
X171086246Y-90546904D01*
X171069692Y-90638733D01*
X171060168Y-90754803D01*
X171057600Y-90879718D01*
X170662055Y-90879718D01*
X170660826Y-90860814D01*
X170660820Y-90858444D01*
X170679421Y-90577935D01*
X170737524Y-90328409D01*
X170837003Y-90104969D01*
X170979732Y-89902715D01*
X171059176Y-89816698D01*
X171217113Y-89683308D01*
X171388348Y-89582766D01*
X171565516Y-89516114D01*
X171741251Y-89484396D01*
X171908189Y-89488653D01*
G37*
G36*
X187929806Y-95392030D02*
G01*
X187946819Y-95423213D01*
X187952505Y-95471475D01*
X187951144Y-95535768D01*
X187929223Y-95566593D01*
X187900509Y-95576651D01*
X187854290Y-95586754D01*
X187770354Y-95604538D01*
X187657874Y-95628107D01*
X187526022Y-95655565D01*
X187383972Y-95685017D01*
X187240896Y-95714566D01*
X187105968Y-95742317D01*
X186988360Y-95766375D01*
X186897245Y-95784844D01*
X186841795Y-95795827D01*
X186829191Y-95798055D01*
X186815476Y-95776425D01*
X186794420Y-95723971D01*
X186793046Y-95720061D01*
X186761589Y-95657816D01*
X186733437Y-95642047D01*
X186718015Y-95671295D01*
X186722063Y-95731051D01*
X186738756Y-95820034D01*
X186588467Y-95850313D01*
X186506067Y-95867123D01*
X186387575Y-95891567D01*
X186247783Y-95920582D01*
X186101484Y-95951105D01*
X186076598Y-95956314D01*
X185919423Y-95989007D01*
X185805978Y-96011433D01*
X185729124Y-96024092D01*
X185681723Y-96027483D01*
X185656635Y-96022106D01*
X185646723Y-96008461D01*
X185644847Y-95987048D01*
X185644842Y-95986540D01*
X185632503Y-95926737D01*
X185604076Y-95888395D01*
X185572068Y-95886068D01*
X185557809Y-95924067D01*
X185567347Y-95980391D01*
X185581250Y-96034141D01*
X185584421Y-96057967D01*
X185584214Y-96058035D01*
X185558126Y-96063003D01*
X185490881Y-96076565D01*
X185392224Y-96096709D01*
X185271899Y-96121422D01*
X185139651Y-96148690D01*
X185005226Y-96176500D01*
X184878369Y-96202840D01*
X184768825Y-96225697D01*
X184686338Y-96243057D01*
X184640654Y-96252908D01*
X184639090Y-96253263D01*
X184598884Y-96253768D01*
X184573263Y-96223875D01*
X184555302Y-96170164D01*
X184539687Y-96107886D01*
X184533914Y-96072754D01*
X184534532Y-96070242D01*
X184560336Y-96064619D01*
X184632860Y-96049638D01*
X184747845Y-96026160D01*
X184901030Y-95995048D01*
X185088154Y-95957163D01*
X185304956Y-95913369D01*
X185547177Y-95864527D01*
X185810555Y-95811499D01*
X186090831Y-95755148D01*
X186191197Y-95734987D01*
X186477901Y-95677389D01*
X186750393Y-95622606D01*
X187004252Y-95571529D01*
X187235059Y-95525050D01*
X187438392Y-95484061D01*
X187609832Y-95449452D01*
X187744958Y-95422115D01*
X187839349Y-95402940D01*
X187888586Y-95392820D01*
X187894063Y-95391644D01*
X187929806Y-95392030D01*
G37*
G36*
X175034884Y-89049806D02*
G01*
X175115290Y-89102753D01*
X175141264Y-89133018D01*
X175157663Y-89164718D01*
X175165779Y-89208816D01*
X175166901Y-89276275D01*
X175162320Y-89378058D01*
X175157367Y-89460225D01*
X175118904Y-89876417D01*
X175057967Y-90251799D01*
X174975008Y-90585276D01*
X174870479Y-90875758D01*
X174744833Y-91122150D01*
X174598522Y-91323361D01*
X174432000Y-91478299D01*
X174284135Y-91568391D01*
X174067294Y-91646687D01*
X173831624Y-91684682D01*
X173593031Y-91680766D01*
X173439201Y-91653832D01*
X173240701Y-91580106D01*
X173073914Y-91465702D01*
X172941064Y-91312410D01*
X172878590Y-91202559D01*
X172840553Y-91088169D01*
X172815307Y-90939799D01*
X172804056Y-90774160D01*
X172808001Y-90607960D01*
X172825857Y-90470095D01*
X172879476Y-90271518D01*
X172959474Y-90070723D01*
X173057655Y-89885247D01*
X173165825Y-89732630D01*
X173175834Y-89721034D01*
X173247715Y-89672199D01*
X173330550Y-89662583D01*
X173410163Y-89687135D01*
X173472382Y-89740804D01*
X173503030Y-89818537D01*
X173504129Y-89838024D01*
X173490866Y-89896726D01*
X173456290Y-89979829D01*
X173411734Y-90062637D01*
X173310236Y-90259359D01*
X173240375Y-90456203D01*
X173202467Y-90646336D01*
X173196829Y-90822925D01*
X173223776Y-90979137D01*
X173283626Y-91108140D01*
X173359521Y-91190446D01*
X173449409Y-91238311D01*
X173571852Y-91273401D01*
X173708204Y-91292001D01*
X173839818Y-91290391D01*
X173853096Y-91288835D01*
X174040273Y-91241125D01*
X174203355Y-91148278D01*
X174310343Y-91050189D01*
X174400960Y-90934926D01*
X174480141Y-90796107D01*
X174549163Y-90629267D01*
X174609302Y-90429941D01*
X174661836Y-90193662D01*
X174708041Y-89915966D01*
X174749195Y-89592387D01*
X174762456Y-89469267D01*
X174777983Y-89328202D01*
X174791868Y-89229540D01*
X174806404Y-89163836D01*
X174823882Y-89121647D01*
X174846595Y-89093529D01*
X174855545Y-89085797D01*
X174943721Y-89043593D01*
X175034884Y-89049806D01*
G37*
G36*
X184470922Y-96117872D02*
G01*
X184482721Y-96176417D01*
X184485193Y-96189901D01*
X184501952Y-96282770D01*
X184040177Y-96378559D01*
X183890710Y-96409234D01*
X183758125Y-96435819D01*
X183651107Y-96456624D01*
X183578340Y-96469959D01*
X183549155Y-96474175D01*
X183524144Y-96451536D01*
X183504551Y-96397203D01*
X183504309Y-96396008D01*
X183481950Y-96333424D01*
X183457011Y-96318889D01*
X183440293Y-96350208D01*
X183440348Y-96409007D01*
X183446856Y-96469022D01*
X183449149Y-96499166D01*
X183448977Y-96500000D01*
X183424226Y-96505040D01*
X183356874Y-96519010D01*
X183255208Y-96540183D01*
X183127520Y-96566834D01*
X183011947Y-96590993D01*
X182868431Y-96620863D01*
X182743361Y-96646612D01*
X182645295Y-96666502D01*
X182582794Y-96678793D01*
X182564198Y-96681986D01*
X182554454Y-96659771D01*
X182551484Y-96620174D01*
X182534510Y-96556658D01*
X182509192Y-96523263D01*
X182483381Y-96506681D01*
X182473374Y-96521061D01*
X182475318Y-96575462D01*
X182477381Y-96598074D01*
X182478450Y-96669055D01*
X182466992Y-96706141D01*
X182461178Y-96708712D01*
X182427740Y-96714088D01*
X182352738Y-96728458D01*
X182245463Y-96749973D01*
X182115203Y-96776781D01*
X182029088Y-96794803D01*
X181623683Y-96880166D01*
X181595560Y-96774804D01*
X181579240Y-96709600D01*
X181571763Y-96671388D01*
X181571999Y-96667436D01*
X181600017Y-96661027D01*
X181673143Y-96645720D01*
X181785842Y-96622618D01*
X181932575Y-96592826D01*
X182107808Y-96557447D01*
X182306004Y-96517585D01*
X182521627Y-96474343D01*
X182749140Y-96428826D01*
X182983007Y-96382137D01*
X183217692Y-96335380D01*
X183447659Y-96289658D01*
X183667370Y-96246076D01*
X183871290Y-96205736D01*
X184053883Y-96169744D01*
X184209612Y-96139202D01*
X184332940Y-96115215D01*
X184418333Y-96098885D01*
X184460252Y-96091318D01*
X184463632Y-96090947D01*
X184470922Y-96117872D01*
G37*
G36*
X169825486Y-100246741D02*
G01*
X169762943Y-100294347D01*
X169746698Y-100334637D01*
X169778089Y-100368835D01*
X169858454Y-100398163D01*
X169989134Y-100423844D01*
X170025275Y-100429197D01*
X170135127Y-100446279D01*
X170197355Y-100460143D01*
X170216138Y-100472064D01*
X170199172Y-100482241D01*
X170163774Y-100491135D01*
X170081964Y-100510302D01*
X169958094Y-100538761D01*
X169796516Y-100575528D01*
X169601581Y-100619619D01*
X169377640Y-100670052D01*
X169129044Y-100725844D01*
X168860146Y-100786012D01*
X168575296Y-100849572D01*
X168434595Y-100880904D01*
X168144353Y-100945542D01*
X167868506Y-101007060D01*
X167611336Y-101064498D01*
X167377126Y-101116896D01*
X167170157Y-101163294D01*
X166994712Y-101202730D01*
X166855073Y-101234245D01*
X166755522Y-101256878D01*
X166700341Y-101269668D01*
X166690784Y-101272055D01*
X166666319Y-101268140D01*
X166646554Y-101233846D01*
X166627537Y-101160466D01*
X166618070Y-101111830D01*
X166603159Y-101024328D01*
X166594513Y-100960160D01*
X166593988Y-100933116D01*
X166594021Y-100933087D01*
X166620102Y-100926631D01*
X166692677Y-100910174D01*
X166807411Y-100884668D01*
X166959969Y-100851060D01*
X167146016Y-100810300D01*
X167361215Y-100763338D01*
X167601231Y-100711123D01*
X167861729Y-100654605D01*
X168138374Y-100594733D01*
X168187615Y-100584091D01*
X168468148Y-100523447D01*
X168734485Y-100465815D01*
X168982129Y-100412172D01*
X169206583Y-100363495D01*
X169403349Y-100320761D01*
X169567930Y-100284946D01*
X169695829Y-100257027D01*
X169782549Y-100237981D01*
X169823593Y-100228786D01*
X169825486Y-100228328D01*
X169877482Y-100215224D01*
X169825486Y-100246741D01*
G37*
G36*
X171241976Y-100884261D02*
G01*
X171238676Y-100971823D01*
X171230562Y-101039547D01*
X171222478Y-101066319D01*
X171194811Y-101076615D01*
X171120222Y-101097696D01*
X171002454Y-101128642D01*
X170845247Y-101168537D01*
X170652342Y-101216462D01*
X170427481Y-101271500D01*
X170174403Y-101332733D01*
X169896851Y-101399243D01*
X169598565Y-101470112D01*
X169283287Y-101544423D01*
X169071545Y-101594012D01*
X168746313Y-101669999D01*
X168434899Y-101742778D01*
X168141126Y-101811453D01*
X167868816Y-101875130D01*
X167621792Y-101932914D01*
X167403877Y-101983912D01*
X167218892Y-102027228D01*
X167070661Y-102061969D01*
X166963006Y-102087239D01*
X166899748Y-102102144D01*
X166884403Y-102105812D01*
X166854213Y-102108111D01*
X166832595Y-102090217D01*
X166813752Y-102042161D01*
X166791888Y-101953976D01*
X166789206Y-101942090D01*
X166770593Y-101853130D01*
X166759279Y-101786670D01*
X166757563Y-101756334D01*
X166757822Y-101755954D01*
X166783562Y-101749206D01*
X166855548Y-101731941D01*
X166969325Y-101705180D01*
X167120439Y-101669944D01*
X167304436Y-101627254D01*
X167516861Y-101578129D01*
X167753261Y-101523591D01*
X168009181Y-101464660D01*
X168280166Y-101402356D01*
X168561764Y-101337701D01*
X168849518Y-101271715D01*
X169138975Y-101205418D01*
X169425682Y-101139831D01*
X169705183Y-101075975D01*
X169973024Y-101014870D01*
X170224751Y-100957536D01*
X170455910Y-100904996D01*
X170662046Y-100858268D01*
X170838706Y-100818374D01*
X170981434Y-100786334D01*
X171085778Y-100763169D01*
X171147282Y-100749899D01*
X171157881Y-100747778D01*
X171242374Y-100731880D01*
X171241976Y-100884261D01*
G37*
G36*
X170879521Y-99221907D02*
G01*
X170913729Y-99279032D01*
X170950683Y-99348833D01*
X170982431Y-99415752D01*
X171001024Y-99464232D01*
X171002044Y-99478781D01*
X170975722Y-99485536D01*
X170902208Y-99502270D01*
X170785179Y-99528188D01*
X170628310Y-99562496D01*
X170435279Y-99604400D01*
X170209760Y-99653105D01*
X169955431Y-99707818D01*
X169675967Y-99767744D01*
X169375044Y-99832088D01*
X169056339Y-99900057D01*
X168783971Y-99958012D01*
X168452464Y-100028524D01*
X168135033Y-100096133D01*
X167835429Y-100160035D01*
X167557406Y-100219425D01*
X167304716Y-100273498D01*
X167081114Y-100321449D01*
X166890351Y-100362474D01*
X166736181Y-100395768D01*
X166622358Y-100420527D01*
X166552634Y-100435946D01*
X166531111Y-100441020D01*
X166491338Y-100434959D01*
X166472826Y-100394670D01*
X166446340Y-100274912D01*
X166426734Y-100179382D01*
X166415826Y-100117357D01*
X166414716Y-100097936D01*
X166442475Y-100090431D01*
X166516606Y-100073648D01*
X166632634Y-100048499D01*
X166786078Y-100015896D01*
X166972461Y-99976753D01*
X167187304Y-99931980D01*
X167426130Y-99882491D01*
X167684460Y-99829199D01*
X167957816Y-99773015D01*
X168241719Y-99714852D01*
X168531692Y-99655623D01*
X168823256Y-99596240D01*
X169111934Y-99537615D01*
X169393246Y-99480661D01*
X169662714Y-99426290D01*
X169915861Y-99375416D01*
X170148208Y-99328949D01*
X170355278Y-99287803D01*
X170532590Y-99252890D01*
X170675669Y-99225122D01*
X170780034Y-99205413D01*
X170841209Y-99194674D01*
X170856009Y-99193015D01*
X170879521Y-99221907D01*
G37*
G36*
X181520543Y-96714416D02*
G01*
X181524533Y-96777980D01*
X181524565Y-96788881D01*
X181524565Y-96899321D01*
X181186591Y-96971755D01*
X181029975Y-97004982D01*
X180917010Y-97027329D01*
X180840562Y-97039058D01*
X180793495Y-97040430D01*
X180768672Y-97031705D01*
X180758957Y-97013145D01*
X180757227Y-96987461D01*
X180746181Y-96920918D01*
X180719855Y-96878003D01*
X180686964Y-96872510D01*
X180685245Y-96873501D01*
X180671657Y-96910082D01*
X180679600Y-96980824D01*
X180691029Y-97040366D01*
X180692978Y-97070895D01*
X180691972Y-97071955D01*
X180665452Y-97076984D01*
X180599527Y-97090464D01*
X180505644Y-97109985D01*
X180395245Y-97133140D01*
X180279778Y-97157518D01*
X180170686Y-97180710D01*
X180079414Y-97200306D01*
X180017407Y-97213898D01*
X180013275Y-97214830D01*
X179976179Y-97215062D01*
X179951821Y-97186901D01*
X179930321Y-97118842D01*
X179930109Y-97118010D01*
X179914337Y-97051052D01*
X179907168Y-97010660D01*
X179907520Y-97005645D01*
X179933307Y-96999970D01*
X180003745Y-96985371D01*
X180112499Y-96963135D01*
X180253237Y-96934551D01*
X180419627Y-96900907D01*
X180605335Y-96863494D01*
X180666632Y-96851171D01*
X180859909Y-96812333D01*
X181038386Y-96776457D01*
X181195201Y-96744924D01*
X181323488Y-96719116D01*
X181416384Y-96700412D01*
X181467024Y-96690193D01*
X181472569Y-96689066D01*
X181505360Y-96688883D01*
X181520543Y-96714416D01*
G37*
G36*
X170866682Y-99581527D02*
G01*
X170853072Y-99595620D01*
X170814614Y-99623423D01*
X170746988Y-99667960D01*
X170645873Y-99732254D01*
X170506945Y-99819327D01*
X170423439Y-99871424D01*
X170007472Y-100130719D01*
X168304606Y-100499433D01*
X168014984Y-100562084D01*
X167740364Y-100621375D01*
X167484958Y-100676404D01*
X167252979Y-100726269D01*
X167048639Y-100770067D01*
X166876151Y-100806897D01*
X166739727Y-100835857D01*
X166643579Y-100856043D01*
X166591919Y-100866555D01*
X166584084Y-100867901D01*
X166570081Y-100844501D01*
X166551820Y-100784082D01*
X166537053Y-100718168D01*
X166519316Y-100631437D01*
X166504177Y-100563500D01*
X166497029Y-100536182D01*
X166492530Y-100506382D01*
X166495124Y-100503685D01*
X166521091Y-100498436D01*
X166593407Y-100483327D01*
X166707563Y-100459314D01*
X166859051Y-100427355D01*
X167043360Y-100388407D01*
X167255984Y-100343426D01*
X167492411Y-100293369D01*
X167748134Y-100239193D01*
X168018644Y-100181855D01*
X168299431Y-100122311D01*
X168585986Y-100061519D01*
X168873800Y-100000435D01*
X169158365Y-99940016D01*
X169435172Y-99881219D01*
X169699711Y-99825001D01*
X169947473Y-99772319D01*
X170173950Y-99724129D01*
X170374632Y-99681388D01*
X170545011Y-99645054D01*
X170680577Y-99616083D01*
X170776822Y-99595431D01*
X170829236Y-99584056D01*
X170836652Y-99582382D01*
X170859769Y-99578123D01*
X170866682Y-99581527D01*
G37*
G36*
X171092263Y-98662346D02*
G01*
X171189218Y-98663668D01*
X171611368Y-98670829D01*
X171508263Y-98800819D01*
X171356917Y-99027079D01*
X171253699Y-99266006D01*
X171196387Y-99524065D01*
X171182094Y-99749744D01*
X171199825Y-100012165D01*
X171255483Y-100245085D01*
X171323285Y-100405410D01*
X171349525Y-100464324D01*
X171356970Y-100497767D01*
X171353394Y-100500822D01*
X171323177Y-100496312D01*
X171248712Y-100485129D01*
X171137166Y-100468352D01*
X170995703Y-100447059D01*
X170831493Y-100422328D01*
X170689723Y-100400969D01*
X170512955Y-100373893D01*
X170353671Y-100348658D01*
X170218947Y-100326453D01*
X170115861Y-100308468D01*
X170051491Y-100295892D01*
X170032631Y-100290530D01*
X170050058Y-100273734D01*
X170106065Y-100233334D01*
X170195019Y-100173086D01*
X170311283Y-100096745D01*
X170449223Y-100008064D01*
X170591782Y-99917959D01*
X170748506Y-99818262D01*
X170888191Y-99726692D01*
X171005206Y-99647155D01*
X171093920Y-99583553D01*
X171148701Y-99539790D01*
X171164380Y-99521038D01*
X171152763Y-99486541D01*
X171120557Y-99414492D01*
X171071733Y-99313169D01*
X171010258Y-99190852D01*
X170953783Y-99081814D01*
X170886063Y-98950843D01*
X170828763Y-98836384D01*
X170785550Y-98746067D01*
X170760089Y-98687519D01*
X170755127Y-98668448D01*
X170783845Y-98664852D01*
X170855582Y-98662570D01*
X170961376Y-98661702D01*
X171092263Y-98662346D01*
G37*
G36*
X170847856Y-100552757D02*
G01*
X171008789Y-100576487D01*
X171124689Y-100594650D01*
X171202037Y-100608755D01*
X171247311Y-100620315D01*
X171266992Y-100630839D01*
X171267557Y-100641839D01*
X171261512Y-100649201D01*
X171234382Y-100657197D01*
X171160262Y-100675819D01*
X171042870Y-100704197D01*
X170885925Y-100741464D01*
X170693148Y-100786751D01*
X170468256Y-100839191D01*
X170214969Y-100897915D01*
X169937006Y-100962056D01*
X169638086Y-101030745D01*
X169321929Y-101103115D01*
X169092849Y-101155385D01*
X168764533Y-101230223D01*
X168449151Y-101302155D01*
X168150616Y-101370284D01*
X167872840Y-101433717D01*
X167619735Y-101491559D01*
X167395212Y-101542915D01*
X167203184Y-101586891D01*
X167047563Y-101622592D01*
X166932260Y-101649124D01*
X166861188Y-101665591D01*
X166840511Y-101670486D01*
X166768692Y-101682452D01*
X166735326Y-101671774D01*
X166731738Y-101664763D01*
X166709185Y-101579001D01*
X166692410Y-101488207D01*
X166683345Y-101407618D01*
X166683925Y-101352471D01*
X166690217Y-101337585D01*
X166719057Y-101329632D01*
X166794625Y-101311356D01*
X166912884Y-101283676D01*
X167069794Y-101247510D01*
X167261317Y-101203777D01*
X167483417Y-101153397D01*
X167732055Y-101097288D01*
X168003192Y-101036370D01*
X168292791Y-100971560D01*
X168577716Y-100908030D01*
X170440338Y-100493440D01*
X170847856Y-100552757D01*
G37*
G36*
X191285011Y-96070847D02*
G01*
X191286796Y-96109535D01*
X191283038Y-96164554D01*
X191273978Y-96188015D01*
X191273770Y-96188024D01*
X191245912Y-96192401D01*
X191173103Y-96204803D01*
X191061581Y-96224142D01*
X190917587Y-96249328D01*
X190747358Y-96279273D01*
X190557136Y-96312885D01*
X190454862Y-96331013D01*
X190257039Y-96366058D01*
X190076191Y-96397992D01*
X189918528Y-96425724D01*
X189790259Y-96448169D01*
X189697593Y-96464236D01*
X189646741Y-96472839D01*
X189638905Y-96474002D01*
X189629501Y-96450898D01*
X189617092Y-96392276D01*
X189610930Y-96354628D01*
X189601993Y-96282838D01*
X189599741Y-96236890D01*
X189601478Y-96228964D01*
X189628456Y-96224739D01*
X189700750Y-96215805D01*
X189811968Y-96202887D01*
X189955715Y-96186711D01*
X190125597Y-96168003D01*
X190315220Y-96147487D01*
X190389867Y-96139502D01*
X190588205Y-96118145D01*
X190771852Y-96097975D01*
X190933859Y-96079787D01*
X191067278Y-96064376D01*
X191165161Y-96052534D01*
X191220558Y-96045056D01*
X191228301Y-96043688D01*
X191269506Y-96042047D01*
X191285011Y-96070847D01*
G37*
G36*
X189317413Y-95655990D02*
G01*
X189339224Y-95691995D01*
X189360054Y-95769923D01*
X189361118Y-95774851D01*
X189375945Y-95851494D01*
X189383030Y-95903821D01*
X189382308Y-95917350D01*
X189355770Y-95924823D01*
X189285775Y-95941441D01*
X189179722Y-95965535D01*
X189045012Y-95995433D01*
X188889045Y-96029463D01*
X188816313Y-96045160D01*
X188650840Y-96080888D01*
X188500982Y-96113493D01*
X188374748Y-96141213D01*
X188280147Y-96162285D01*
X188225186Y-96174947D01*
X188216106Y-96177259D01*
X188188588Y-96172904D01*
X188167417Y-96135213D01*
X188147546Y-96055056D01*
X188146968Y-96052155D01*
X188132837Y-95975062D01*
X188125449Y-95922701D01*
X188125483Y-95909132D01*
X188151426Y-95902220D01*
X188220862Y-95886169D01*
X188326417Y-95862615D01*
X188460719Y-95833196D01*
X188616393Y-95799550D01*
X188688582Y-95784080D01*
X188854036Y-95748572D01*
X189003954Y-95716130D01*
X189130292Y-95688514D01*
X189225010Y-95667488D01*
X189280065Y-95654814D01*
X189289084Y-95652505D01*
X189317413Y-95655990D01*
G37*
G36*
X191020984Y-95085361D02*
G01*
X191045863Y-95091212D01*
X191054271Y-95098468D01*
X191064365Y-95138208D01*
X191058231Y-95150760D01*
X191029241Y-95160839D01*
X190956130Y-95181571D01*
X190845290Y-95211280D01*
X190703113Y-95248288D01*
X190535992Y-95290916D01*
X190350318Y-95337488D01*
X190285875Y-95353482D01*
X190094174Y-95401007D01*
X189917687Y-95444894D01*
X189763053Y-95483482D01*
X189636910Y-95515108D01*
X189545899Y-95538112D01*
X189496658Y-95550832D01*
X189490895Y-95552433D01*
X189461078Y-95546501D01*
X189437697Y-95502279D01*
X189423421Y-95449229D01*
X189409315Y-95377799D01*
X189412206Y-95341479D01*
X189435383Y-95325225D01*
X189451462Y-95320880D01*
X189490284Y-95313598D01*
X189573533Y-95299256D01*
X189694287Y-95279004D01*
X189845630Y-95253989D01*
X190020643Y-95225362D01*
X190212406Y-95194269D01*
X190268916Y-95185156D01*
X190492009Y-95149595D01*
X190669073Y-95122371D01*
X190805305Y-95102909D01*
X190905902Y-95090636D01*
X190976063Y-95084978D01*
X191020984Y-95085361D01*
G37*
G36*
X186756806Y-95910645D02*
G01*
X186776581Y-95973771D01*
X186782270Y-95997875D01*
X186797909Y-96070083D01*
X186806222Y-96116280D01*
X186806520Y-96125021D01*
X186779205Y-96131493D01*
X186710222Y-96146421D01*
X186608851Y-96167887D01*
X186484375Y-96193968D01*
X186346075Y-96222746D01*
X186203232Y-96252299D01*
X186065128Y-96280707D01*
X185941044Y-96306049D01*
X185840262Y-96326406D01*
X185772063Y-96339857D01*
X185745819Y-96344490D01*
X185730489Y-96321413D01*
X185709981Y-96263273D01*
X185699152Y-96223859D01*
X185682942Y-96152732D01*
X185675736Y-96106946D01*
X185676567Y-96098517D01*
X185703231Y-96091979D01*
X185772849Y-96076889D01*
X185877397Y-96054929D01*
X186008852Y-96027785D01*
X186159191Y-95997142D01*
X186165199Y-95995925D01*
X186320013Y-95964471D01*
X186459985Y-95935841D01*
X186576048Y-95911905D01*
X186659134Y-95894533D01*
X186699905Y-95885660D01*
X186733967Y-95884980D01*
X186756806Y-95910645D01*
G37*
G36*
X187968597Y-95632149D02*
G01*
X187989661Y-95676806D01*
X187996538Y-95708122D01*
X188011578Y-95779443D01*
X188025201Y-95830421D01*
X188026565Y-95834223D01*
X188012202Y-95858268D01*
X187948994Y-95881725D01*
X187875552Y-95898051D01*
X187791842Y-95914676D01*
X187670932Y-95939435D01*
X187526448Y-95969504D01*
X187372019Y-96002058D01*
X187302388Y-96016876D01*
X187163564Y-96045242D01*
X187043387Y-96067378D01*
X186950634Y-96081861D01*
X186894082Y-96087269D01*
X186880871Y-96085211D01*
X186866748Y-96044187D01*
X186855083Y-95981174D01*
X186848041Y-95915240D01*
X186847786Y-95865453D01*
X186854177Y-95850051D01*
X186885048Y-95844997D01*
X186957461Y-95831116D01*
X187062085Y-95810332D01*
X187189590Y-95784564D01*
X187330645Y-95755738D01*
X187475919Y-95725773D01*
X187616082Y-95696593D01*
X187741803Y-95670119D01*
X187843751Y-95648275D01*
X187912596Y-95632981D01*
X187936519Y-95627079D01*
X187968597Y-95632149D01*
G37*
G36*
X188113125Y-96288377D02*
G01*
X188132995Y-96341533D01*
X188147953Y-96404601D01*
X188152679Y-96456698D01*
X188147026Y-96475477D01*
X188116864Y-96485664D01*
X188043845Y-96504696D01*
X187935983Y-96530655D01*
X187801289Y-96561620D01*
X187647776Y-96595673D01*
X187621085Y-96601479D01*
X187463269Y-96635854D01*
X187321017Y-96667111D01*
X187202849Y-96693357D01*
X187117284Y-96712698D01*
X187072841Y-96723239D01*
X187070394Y-96723902D01*
X187039639Y-96720112D01*
X187017648Y-96681057D01*
X187003376Y-96624682D01*
X186989824Y-96556089D01*
X186982903Y-96513833D01*
X186982714Y-96508064D01*
X187007543Y-96501310D01*
X187074306Y-96485682D01*
X187174080Y-96463122D01*
X187297940Y-96435577D01*
X187436964Y-96404989D01*
X187582228Y-96373303D01*
X187724808Y-96342464D01*
X187855780Y-96314414D01*
X187966222Y-96291100D01*
X188047208Y-96274464D01*
X188089816Y-96266452D01*
X188093664Y-96266018D01*
X188113125Y-96288377D01*
G37*
G36*
X191309112Y-96261564D02*
G01*
X191320242Y-96291692D01*
X191319891Y-96327886D01*
X191287860Y-96352625D01*
X191231170Y-96370988D01*
X191020845Y-96427390D01*
X190807685Y-96484130D01*
X190597816Y-96539613D01*
X190397366Y-96592249D01*
X190212461Y-96640445D01*
X190049227Y-96682607D01*
X189913792Y-96717144D01*
X189812281Y-96742462D01*
X189750822Y-96756970D01*
X189735170Y-96759850D01*
X189703279Y-96738500D01*
X189692090Y-96714483D01*
X189667922Y-96620031D01*
X189660196Y-96563832D01*
X189670564Y-96534293D01*
X189700675Y-96519820D01*
X189720441Y-96515270D01*
X189768178Y-96506150D01*
X189856262Y-96490078D01*
X189977005Y-96468402D01*
X190122722Y-96442469D01*
X190285727Y-96413630D01*
X190458332Y-96383232D01*
X190632851Y-96352623D01*
X190801598Y-96323152D01*
X190956886Y-96296167D01*
X191091029Y-96273017D01*
X191196340Y-96255050D01*
X191265134Y-96243614D01*
X191289516Y-96240020D01*
X191309112Y-96261564D01*
G37*
G36*
X182721035Y-97771147D02*
G01*
X182741043Y-97825956D01*
X182744669Y-97843835D01*
X182759483Y-97920303D01*
X182773076Y-97979630D01*
X182774822Y-97985918D01*
X182772534Y-98005212D01*
X182748977Y-98023705D01*
X182697151Y-98043996D01*
X182610052Y-98068681D01*
X182480681Y-98100361D01*
X182441962Y-98109433D01*
X182269072Y-98149908D01*
X182140177Y-98179559D01*
X182048446Y-98198535D01*
X181987048Y-98206987D01*
X181949155Y-98205063D01*
X181927934Y-98192914D01*
X181916557Y-98170688D01*
X181908192Y-98138536D01*
X181903688Y-98121220D01*
X181886277Y-98056839D01*
X181879608Y-98009368D01*
X181890073Y-97974187D01*
X181924065Y-97946673D01*
X181987975Y-97922203D01*
X182088194Y-97896155D01*
X182231114Y-97863906D01*
X182272035Y-97854829D01*
X182410296Y-97823843D01*
X182531428Y-97796177D01*
X182625958Y-97774037D01*
X182684413Y-97759624D01*
X182697786Y-97755778D01*
X182721035Y-97771147D01*
G37*
G36*
X186901283Y-96549089D02*
G01*
X186920823Y-96602214D01*
X186936815Y-96666668D01*
X186944133Y-96722332D01*
X186939501Y-96747912D01*
X186913040Y-96755506D01*
X186843780Y-96772473D01*
X186739689Y-96796941D01*
X186608733Y-96827039D01*
X186458879Y-96860895D01*
X186451177Y-96862621D01*
X186297462Y-96897216D01*
X186159255Y-96928637D01*
X186045354Y-96954859D01*
X185964559Y-96973856D01*
X185925670Y-96983602D01*
X185925584Y-96983627D01*
X185885499Y-96976935D01*
X185866933Y-96936943D01*
X185852285Y-96876345D01*
X185844590Y-96830335D01*
X185849753Y-96795271D01*
X185873680Y-96767513D01*
X185922276Y-96743419D01*
X186001448Y-96719348D01*
X186117100Y-96691660D01*
X186275139Y-96656713D01*
X186347185Y-96640850D01*
X186503689Y-96606507D01*
X186643534Y-96576280D01*
X186758527Y-96551901D01*
X186840473Y-96535104D01*
X186881179Y-96527624D01*
X186883320Y-96527408D01*
X186901283Y-96549089D01*
G37*
G36*
X186963964Y-96822135D02*
G01*
X186976774Y-96852795D01*
X186992859Y-96912046D01*
X187007783Y-96979871D01*
X187017109Y-97036256D01*
X187016882Y-97060873D01*
X186990184Y-97068940D01*
X186920930Y-97086438D01*
X186817291Y-97111397D01*
X186687441Y-97141847D01*
X186550077Y-97173420D01*
X186398228Y-97208088D01*
X186260222Y-97239747D01*
X186145595Y-97266195D01*
X186063886Y-97285234D01*
X186027107Y-97294032D01*
X185974298Y-97298737D01*
X185950052Y-97288544D01*
X185938065Y-97251105D01*
X185923703Y-97183789D01*
X185919330Y-97158799D01*
X185911387Y-97088090D01*
X185920870Y-97052109D01*
X185948828Y-97036217D01*
X186008068Y-97020425D01*
X186101581Y-96998130D01*
X186220033Y-96971300D01*
X186354088Y-96941904D01*
X186494412Y-96911911D01*
X186631671Y-96883288D01*
X186756530Y-96858005D01*
X186859654Y-96838030D01*
X186931710Y-96825332D01*
X186963362Y-96821879D01*
X186963964Y-96822135D01*
G37*
G36*
X184513841Y-96348727D02*
G01*
X184525898Y-96380297D01*
X184539481Y-96439811D01*
X184551506Y-96508882D01*
X184558887Y-96569125D01*
X184558541Y-96602155D01*
X184556674Y-96604023D01*
X184526341Y-96609260D01*
X184455355Y-96623498D01*
X184353845Y-96644566D01*
X184231940Y-96670293D01*
X184099768Y-96698507D01*
X183967459Y-96727037D01*
X183845140Y-96753711D01*
X183742941Y-96776359D01*
X183670990Y-96792809D01*
X183641356Y-96800243D01*
X183612382Y-96794722D01*
X183589105Y-96752248D01*
X183571698Y-96688822D01*
X183558375Y-96613722D01*
X183556487Y-96561126D01*
X183560741Y-96548375D01*
X183590102Y-96538340D01*
X183659947Y-96520654D01*
X183760552Y-96497353D01*
X183882191Y-96470474D01*
X184015137Y-96442054D01*
X184149666Y-96414132D01*
X184276051Y-96388744D01*
X184384567Y-96367927D01*
X184465488Y-96353720D01*
X184509089Y-96348158D01*
X184513841Y-96348727D01*
G37*
G36*
X185906809Y-97427461D02*
G01*
X185921873Y-97491582D01*
X185933986Y-97562647D01*
X185939741Y-97620970D01*
X185936565Y-97646391D01*
X185907113Y-97656523D01*
X185836596Y-97675620D01*
X185734711Y-97701400D01*
X185611160Y-97731585D01*
X185475640Y-97763892D01*
X185337851Y-97796041D01*
X185207493Y-97825752D01*
X185094265Y-97850745D01*
X185007866Y-97868738D01*
X184957996Y-97877451D01*
X184951900Y-97877917D01*
X184929328Y-97854840D01*
X184905840Y-97796108D01*
X184895241Y-97754732D01*
X184881602Y-97681507D01*
X184876278Y-97632938D01*
X184877665Y-97622881D01*
X184904725Y-97614228D01*
X184972722Y-97596673D01*
X185072354Y-97572352D01*
X185194316Y-97543400D01*
X185329304Y-97511955D01*
X185468016Y-97480150D01*
X185601146Y-97450124D01*
X185719393Y-97424011D01*
X185813451Y-97403947D01*
X185874018Y-97392068D01*
X185892198Y-97389967D01*
X185906809Y-97427461D01*
G37*
G36*
X180716289Y-97146252D02*
G01*
X180716342Y-97146328D01*
X180725946Y-97179953D01*
X180738648Y-97246277D01*
X180744868Y-97285247D01*
X180753800Y-97359716D01*
X180748242Y-97398200D01*
X180723438Y-97415791D01*
X180701903Y-97421566D01*
X180650214Y-97432972D01*
X180562500Y-97451912D01*
X180453615Y-97475187D01*
X180393654Y-97487922D01*
X180280449Y-97511993D01*
X180181501Y-97533184D01*
X180111293Y-97548385D01*
X180090736Y-97552940D01*
X180056140Y-97554056D01*
X180032806Y-97530542D01*
X180012560Y-97471315D01*
X180003313Y-97434376D01*
X179987803Y-97357886D01*
X179982257Y-97304436D01*
X179984817Y-97290140D01*
X180015709Y-97278445D01*
X180085212Y-97260562D01*
X180182176Y-97238684D01*
X180295452Y-97215002D01*
X180413890Y-97191708D01*
X180526342Y-97170995D01*
X180621659Y-97155053D01*
X180688691Y-97146074D01*
X180716289Y-97146252D01*
G37*
G36*
X181621372Y-97293157D02*
G01*
X181642541Y-97326687D01*
X181662712Y-97400313D01*
X181667754Y-97423894D01*
X181681997Y-97505197D01*
X181687372Y-97563910D01*
X181684481Y-97583652D01*
X181655801Y-97593566D01*
X181587473Y-97611436D01*
X181490776Y-97634743D01*
X181376992Y-97660965D01*
X181257401Y-97687583D01*
X181143285Y-97712076D01*
X181045923Y-97731924D01*
X180976597Y-97744605D01*
X180949337Y-97747902D01*
X180926779Y-97724457D01*
X180902529Y-97663235D01*
X180887187Y-97602851D01*
X180872296Y-97523281D01*
X180864994Y-97467829D01*
X180865845Y-97451091D01*
X180893122Y-97443578D01*
X180961640Y-97427727D01*
X181061716Y-97405703D01*
X181183668Y-97379670D01*
X181212589Y-97373594D01*
X181341942Y-97346252D01*
X181455357Y-97321815D01*
X181541810Y-97302691D01*
X181590275Y-97291289D01*
X181593989Y-97290278D01*
X181621372Y-97293157D01*
G37*
G36*
X182571258Y-97116827D02*
G01*
X182576739Y-97122749D01*
X182596822Y-97174591D01*
X182611975Y-97246626D01*
X182619571Y-97318819D01*
X182616980Y-97371137D01*
X182610961Y-97383653D01*
X182581500Y-97393441D01*
X182511856Y-97411429D01*
X182412752Y-97435221D01*
X182294911Y-97462424D01*
X182169055Y-97490644D01*
X182045907Y-97517488D01*
X181936190Y-97540560D01*
X181850626Y-97557468D01*
X181799938Y-97565818D01*
X181792887Y-97566292D01*
X181778523Y-97542890D01*
X181759656Y-97482754D01*
X181745119Y-97420865D01*
X181730226Y-97341241D01*
X181722925Y-97285682D01*
X181723778Y-97268849D01*
X181750883Y-97261411D01*
X181820176Y-97245326D01*
X181922939Y-97222538D01*
X182050455Y-97194992D01*
X182144023Y-97175131D01*
X182303264Y-97142420D01*
X182418781Y-97121061D01*
X182497402Y-97110227D01*
X182545952Y-97109091D01*
X182571258Y-97116827D01*
G37*
G36*
X183538308Y-96914618D02*
G01*
X183539862Y-96916704D01*
X183557349Y-96963117D01*
X183572598Y-97032018D01*
X183582456Y-97103125D01*
X183583771Y-97156156D01*
X183579332Y-97170684D01*
X183550395Y-97180849D01*
X183481187Y-97199226D01*
X183382341Y-97223415D01*
X183264488Y-97251016D01*
X183138259Y-97279629D01*
X183014287Y-97306854D01*
X182903203Y-97330290D01*
X182815638Y-97347538D01*
X182762223Y-97356197D01*
X182755122Y-97356749D01*
X182723859Y-97340540D01*
X182698420Y-97284911D01*
X182682936Y-97223435D01*
X182670240Y-97144785D01*
X182668789Y-97088120D01*
X182674282Y-97071303D01*
X182705444Y-97060352D01*
X182778562Y-97041448D01*
X182884585Y-97016728D01*
X183014464Y-96988334D01*
X183107145Y-96968970D01*
X183269503Y-96936662D01*
X183387561Y-96915826D01*
X183467555Y-96905709D01*
X183515725Y-96905558D01*
X183538308Y-96914618D01*
G37*
G36*
X185668618Y-96450156D02*
G01*
X185674829Y-96453813D01*
X185692939Y-96503146D01*
X185706473Y-96573975D01*
X185713017Y-96645664D01*
X185710157Y-96697573D01*
X185704717Y-96709422D01*
X185673767Y-96720745D01*
X185600450Y-96740490D01*
X185493321Y-96766566D01*
X185360934Y-96796881D01*
X185229273Y-96825632D01*
X185081139Y-96857523D01*
X184950104Y-96886185D01*
X184844868Y-96909679D01*
X184774132Y-96926066D01*
X184747318Y-96933072D01*
X184728139Y-96915587D01*
X184705869Y-96859803D01*
X184689206Y-96794928D01*
X184673503Y-96714730D01*
X184664688Y-96658891D01*
X184664201Y-96641633D01*
X184690302Y-96634959D01*
X184759419Y-96619267D01*
X184863694Y-96596287D01*
X184995270Y-96567749D01*
X185146291Y-96535381D01*
X185164119Y-96531583D01*
X185365164Y-96490407D01*
X185516301Y-96463104D01*
X185617471Y-96449684D01*
X185668618Y-96450156D01*
G37*
G36*
X189280243Y-95389421D02*
G01*
X189292276Y-95450482D01*
X189297095Y-95478555D01*
X189305721Y-95548134D01*
X189297447Y-95582996D01*
X189266767Y-95599156D01*
X189254568Y-95602241D01*
X189210825Y-95611900D01*
X189125240Y-95630300D01*
X189006861Y-95655514D01*
X188864735Y-95685614D01*
X188707911Y-95718675D01*
X188700000Y-95720339D01*
X188543975Y-95753196D01*
X188403421Y-95782881D01*
X188287047Y-95807548D01*
X188203560Y-95825350D01*
X188161671Y-95834442D01*
X188160568Y-95834693D01*
X188116095Y-95834292D01*
X188103023Y-95825632D01*
X188091468Y-95789286D01*
X188077900Y-95723546D01*
X188074712Y-95704561D01*
X188058476Y-95603028D01*
X188661971Y-95478481D01*
X188831601Y-95443836D01*
X188983366Y-95413532D01*
X189110168Y-95388929D01*
X189204905Y-95371389D01*
X189260479Y-95362273D01*
X189272240Y-95361512D01*
X189280243Y-95389421D01*
G37*
G36*
X180763611Y-97475480D02*
G01*
X180785394Y-97508876D01*
X180806751Y-97582529D01*
X180811845Y-97604698D01*
X180827280Y-97695578D01*
X180827268Y-97755266D01*
X180820452Y-97770561D01*
X180786608Y-97783929D01*
X180713078Y-97804167D01*
X180611242Y-97828360D01*
X180510645Y-97849913D01*
X180389548Y-97874788D01*
X180282848Y-97896949D01*
X180203571Y-97913675D01*
X180168480Y-97921354D01*
X180135566Y-97923225D01*
X180113583Y-97902782D01*
X180095551Y-97849222D01*
X180081715Y-97787076D01*
X180067116Y-97705792D01*
X180060892Y-97647440D01*
X180063004Y-97627920D01*
X180091623Y-97618290D01*
X180160892Y-97600765D01*
X180260507Y-97577811D01*
X180380164Y-97551895D01*
X180383750Y-97551141D01*
X180507592Y-97524787D01*
X180615435Y-97501232D01*
X180695575Y-97483072D01*
X180736020Y-97472993D01*
X180763611Y-97475480D01*
G37*
G36*
X180931909Y-98186511D02*
G01*
X180947618Y-98243310D01*
X180951103Y-98261361D01*
X180965658Y-98336746D01*
X180978805Y-98394384D01*
X180980338Y-98399915D01*
X180976606Y-98419381D01*
X180948752Y-98438315D01*
X180889774Y-98459284D01*
X180792669Y-98484858D01*
X180673476Y-98512458D01*
X180548002Y-98540762D01*
X180438521Y-98565777D01*
X180356404Y-98584883D01*
X180313024Y-98595460D01*
X180311961Y-98595750D01*
X180283050Y-98590929D01*
X180259648Y-98551941D01*
X180237369Y-98474605D01*
X180223007Y-98394506D01*
X180221953Y-98337693D01*
X180228069Y-98321750D01*
X180258392Y-98310857D01*
X180327823Y-98292034D01*
X180424575Y-98267988D01*
X180536860Y-98241429D01*
X180652892Y-98215065D01*
X180760882Y-98191606D01*
X180849044Y-98173759D01*
X180905590Y-98164235D01*
X180917219Y-98163372D01*
X180931909Y-98186511D01*
G37*
G36*
X186827744Y-96210986D02*
G01*
X186846684Y-96268225D01*
X186850766Y-96289743D01*
X186864813Y-96365018D01*
X186878788Y-96421368D01*
X186881208Y-96428406D01*
X186876078Y-96446472D01*
X186842455Y-96465284D01*
X186774152Y-96486928D01*
X186664988Y-96513487D01*
X186562789Y-96535731D01*
X186412829Y-96567688D01*
X186257773Y-96601108D01*
X186116973Y-96631799D01*
X186019051Y-96653486D01*
X185807908Y-96700861D01*
X185776254Y-96559416D01*
X185760403Y-96481032D01*
X185752626Y-96426786D01*
X185753416Y-96411169D01*
X185780867Y-96403555D01*
X185849940Y-96387485D01*
X185951316Y-96364935D01*
X186075677Y-96337878D01*
X186213706Y-96308290D01*
X186356085Y-96278146D01*
X186493495Y-96249421D01*
X186616620Y-96224089D01*
X186716140Y-96204127D01*
X186782739Y-96191507D01*
X186806235Y-96188024D01*
X186827744Y-96210986D01*
G37*
G36*
X187028451Y-97134010D02*
G01*
X187050421Y-97168290D01*
X187070559Y-97244172D01*
X187070685Y-97244760D01*
X187084515Y-97318737D01*
X187090094Y-97368183D01*
X187088741Y-97378983D01*
X187061533Y-97387701D01*
X186992981Y-97405584D01*
X186892482Y-97430437D01*
X186769434Y-97460065D01*
X186633231Y-97492274D01*
X186493272Y-97524871D01*
X186358953Y-97555659D01*
X186239670Y-97582445D01*
X186144820Y-97603035D01*
X186083799Y-97615233D01*
X186066891Y-97617622D01*
X186029022Y-97597215D01*
X186022812Y-97585414D01*
X186009409Y-97539717D01*
X185990641Y-97470219D01*
X185987800Y-97459312D01*
X185963553Y-97365707D01*
X186458005Y-97254437D01*
X186613905Y-97219271D01*
X186754414Y-97187420D01*
X186870863Y-97160863D01*
X186954581Y-97141577D01*
X186996898Y-97131540D01*
X186998186Y-97131208D01*
X187028451Y-97134010D01*
G37*
G36*
X171431700Y-100606854D02*
G01*
X171465696Y-100655510D01*
X171473276Y-100667688D01*
X171548055Y-100764260D01*
X171654952Y-100870993D01*
X171779476Y-100974995D01*
X171907137Y-101063378D01*
X171939659Y-101082550D01*
X172077987Y-101160673D01*
X171874664Y-101249697D01*
X171696938Y-101327526D01*
X171561394Y-101386531D01*
X171462509Y-101428570D01*
X171394758Y-101455498D01*
X171352617Y-101469171D01*
X171330560Y-101471446D01*
X171323065Y-101464177D01*
X171324606Y-101449222D01*
X171328588Y-101433157D01*
X171335078Y-101386087D01*
X171343005Y-101298754D01*
X171351448Y-101182837D01*
X171359484Y-101050016D01*
X171360899Y-101023644D01*
X171369025Y-100889959D01*
X171378247Y-100771968D01*
X171387536Y-100680986D01*
X171395859Y-100628332D01*
X171397344Y-100623323D01*
X171411907Y-100597872D01*
X171431700Y-100606854D01*
G37*
G36*
X176498973Y-98398128D02*
G01*
X176507989Y-98406680D01*
X176523268Y-98460586D01*
X176540006Y-98534326D01*
X176554803Y-98610393D01*
X176564257Y-98671277D01*
X176564969Y-98699468D01*
X176564873Y-98699575D01*
X176536991Y-98708736D01*
X176471280Y-98724918D01*
X176380891Y-98744924D01*
X176362506Y-98748791D01*
X176262470Y-98770245D01*
X176178287Y-98789352D01*
X176126537Y-98802335D01*
X176123362Y-98803281D01*
X176079568Y-98799591D01*
X176065547Y-98783113D01*
X176050783Y-98731641D01*
X176033835Y-98659111D01*
X176018231Y-98582890D01*
X176007498Y-98520352D01*
X176005164Y-98488865D01*
X176005616Y-98487998D01*
X176032549Y-98479881D01*
X176098868Y-98463761D01*
X176193083Y-98442365D01*
X176255190Y-98428783D01*
X176378352Y-98404388D01*
X176457633Y-98394343D01*
X176498973Y-98398128D01*
G37*
G36*
X177099821Y-98251767D02*
G01*
X177118019Y-98276259D01*
X177137734Y-98331970D01*
X177161990Y-98426587D01*
X177179715Y-98504040D01*
X177184664Y-98537222D01*
X177175290Y-98560026D01*
X177142189Y-98577767D01*
X177075954Y-98595761D01*
X176980838Y-98616438D01*
X176874283Y-98639133D01*
X176781580Y-98659189D01*
X176719067Y-98673065D01*
X176709575Y-98675270D01*
X176665675Y-98675364D01*
X176642102Y-98639752D01*
X176635558Y-98614868D01*
X176616895Y-98535404D01*
X176596134Y-98451308D01*
X176582573Y-98391298D01*
X176578581Y-98359135D01*
X176579159Y-98357747D01*
X176605478Y-98351345D01*
X176671095Y-98337583D01*
X176764241Y-98318897D01*
X176815223Y-98308903D01*
X176921817Y-98287464D01*
X177010819Y-98268286D01*
X177068435Y-98254394D01*
X177080115Y-98250804D01*
X177099821Y-98251767D01*
G37*
G36*
X177759102Y-98142843D02*
G01*
X177778471Y-98199778D01*
X177791819Y-98255902D01*
X177806128Y-98338706D01*
X177809045Y-98400541D01*
X177802832Y-98423466D01*
X177768535Y-98437935D01*
X177696909Y-98458490D01*
X177601667Y-98481311D01*
X177572876Y-98487536D01*
X177469618Y-98509731D01*
X177382184Y-98529242D01*
X177326245Y-98542555D01*
X177319268Y-98544432D01*
X177276333Y-98539754D01*
X177263085Y-98523133D01*
X177245706Y-98459414D01*
X177227383Y-98381572D01*
X177211626Y-98306259D01*
X177201949Y-98250129D01*
X177201234Y-98229836D01*
X177228411Y-98222388D01*
X177294428Y-98207373D01*
X177387156Y-98187509D01*
X177429887Y-98178633D01*
X177537426Y-98156356D01*
X177630489Y-98136834D01*
X177693416Y-98123363D01*
X177704851Y-98120817D01*
X177736851Y-98120079D01*
X177759102Y-98142843D01*
G37*
G36*
X177921378Y-98862682D02*
G01*
X177923318Y-98864956D01*
X177946436Y-98923293D01*
X177960649Y-98998024D01*
X177964128Y-99069594D01*
X177955040Y-99118448D01*
X177947852Y-99127026D01*
X177909710Y-99140840D01*
X177834791Y-99161200D01*
X177737283Y-99184341D01*
X177706369Y-99191128D01*
X177605011Y-99213524D01*
X177522051Y-99232883D01*
X177471633Y-99245871D01*
X177465014Y-99248010D01*
X177428936Y-99244657D01*
X177422932Y-99238057D01*
X177410719Y-99200458D01*
X177395949Y-99134342D01*
X177392780Y-99117447D01*
X177377922Y-99044278D01*
X177364265Y-98991120D01*
X177362202Y-98985170D01*
X177378978Y-98964231D01*
X177435230Y-98939695D01*
X177518808Y-98914164D01*
X177617564Y-98890240D01*
X177719348Y-98870528D01*
X177812011Y-98857628D01*
X177883404Y-98854145D01*
X177921378Y-98862682D01*
G37*
G36*
X179431595Y-98882717D02*
G01*
X179453917Y-98925876D01*
X179472336Y-98993434D01*
X179484133Y-99067493D01*
X179486589Y-99130160D01*
X179476983Y-99163539D01*
X179474474Y-99164871D01*
X179439617Y-99173787D01*
X179368206Y-99190813D01*
X179272381Y-99213171D01*
X179164287Y-99238078D01*
X179056066Y-99262754D01*
X178959860Y-99284418D01*
X178887813Y-99300291D01*
X178852066Y-99307590D01*
X178850425Y-99307779D01*
X178840747Y-99284718D01*
X178824352Y-99225046D01*
X178809600Y-99162773D01*
X178793463Y-99083159D01*
X178785324Y-99027371D01*
X178785964Y-99010187D01*
X178820113Y-98996744D01*
X178891520Y-98977782D01*
X178988138Y-98955680D01*
X179097918Y-98932816D01*
X179208810Y-98911570D01*
X179308767Y-98894320D01*
X179385739Y-98883446D01*
X179427678Y-98881326D01*
X179431595Y-98882717D01*
G37*
G36*
X179887945Y-97328450D02*
G01*
X179909328Y-97383950D01*
X179930364Y-97454374D01*
X179945937Y-97521663D01*
X179950929Y-97567754D01*
X179948119Y-97576998D01*
X179921049Y-97584923D01*
X179854767Y-97600767D01*
X179760997Y-97621998D01*
X179651463Y-97646083D01*
X179537886Y-97670491D01*
X179431991Y-97692688D01*
X179345501Y-97710143D01*
X179290140Y-97720323D01*
X179277281Y-97721904D01*
X179261572Y-97698893D01*
X179241175Y-97639788D01*
X179227770Y-97588022D01*
X179211689Y-97512135D01*
X179203538Y-97460850D01*
X179203807Y-97448043D01*
X179230621Y-97440401D01*
X179296651Y-97424923D01*
X179390157Y-97404109D01*
X179499398Y-97380458D01*
X179612631Y-97356470D01*
X179718115Y-97334644D01*
X179804110Y-97317481D01*
X179858872Y-97307479D01*
X179871330Y-97305936D01*
X179887945Y-97328450D01*
G37*
G36*
X179971131Y-97666712D02*
G01*
X179989572Y-97723538D01*
X180007902Y-97797013D01*
X180022128Y-97869766D01*
X180028257Y-97924422D01*
X180025301Y-97942934D01*
X179995805Y-97953588D01*
X179927475Y-97971699D01*
X179832471Y-97994568D01*
X179722956Y-98019497D01*
X179611089Y-98043787D01*
X179509031Y-98064740D01*
X179428943Y-98079657D01*
X179382985Y-98085839D01*
X179381162Y-98085875D01*
X179351210Y-98068762D01*
X179325974Y-98012569D01*
X179307490Y-97938170D01*
X179291841Y-97858350D01*
X179283083Y-97803095D01*
X179282625Y-97786410D01*
X179309377Y-97779463D01*
X179375390Y-97764553D01*
X179468985Y-97744148D01*
X179578486Y-97720716D01*
X179692215Y-97696728D01*
X179798493Y-97674652D01*
X179885644Y-97656958D01*
X179941989Y-97646115D01*
X179956572Y-97643910D01*
X179971131Y-97666712D01*
G37*
G36*
X180117769Y-98360112D02*
G01*
X180133308Y-98371260D01*
X180148740Y-98412666D01*
X180164540Y-98478258D01*
X180176996Y-98548100D01*
X180182393Y-98602256D01*
X180179725Y-98620445D01*
X180152875Y-98628871D01*
X180085521Y-98646095D01*
X179987906Y-98669586D01*
X179873387Y-98696107D01*
X179751914Y-98724001D01*
X179646542Y-98748644D01*
X179569111Y-98767239D01*
X179532651Y-98776622D01*
X179501746Y-98771852D01*
X179481777Y-98728600D01*
X179474169Y-98690991D01*
X179459275Y-98610979D01*
X179444556Y-98545112D01*
X179443023Y-98539362D01*
X179440591Y-98517054D01*
X179452280Y-98498785D01*
X179485651Y-98481606D01*
X179548265Y-98462569D01*
X179647683Y-98438724D01*
X179770367Y-98411694D01*
X179914227Y-98381585D01*
X180015130Y-98363504D01*
X180080502Y-98356622D01*
X180117769Y-98360112D01*
G37*
G36*
X188039971Y-95946562D02*
G01*
X188056968Y-95984386D01*
X188073323Y-96053212D01*
X188078599Y-96086227D01*
X188094647Y-96203311D01*
X187565389Y-96316781D01*
X187405013Y-96351380D01*
X187261033Y-96382851D01*
X187141530Y-96409393D01*
X187054586Y-96429207D01*
X187008283Y-96440493D01*
X187003852Y-96441825D01*
X186968355Y-96432583D01*
X186959773Y-96418204D01*
X186939491Y-96350686D01*
X186920223Y-96275695D01*
X186906075Y-96210804D01*
X186901153Y-96173587D01*
X186901927Y-96170573D01*
X186932845Y-96159203D01*
X187005169Y-96140713D01*
X187109915Y-96116870D01*
X187238098Y-96089443D01*
X187380735Y-96060201D01*
X187528840Y-96030912D01*
X187673429Y-96003345D01*
X187805519Y-95979268D01*
X187916124Y-95960449D01*
X187996260Y-95948658D01*
X188036943Y-95945662D01*
X188039971Y-95946562D01*
G37*
G36*
X173438135Y-101130995D02*
G01*
X173425214Y-101175225D01*
X173401473Y-101259748D01*
X173369660Y-101374664D01*
X173332520Y-101510072D01*
X173306990Y-101603773D01*
X173269022Y-101742292D01*
X173235587Y-101862002D01*
X173209099Y-101954439D01*
X173191974Y-102011140D01*
X173186820Y-102025063D01*
X173168887Y-102008211D01*
X173123828Y-101957107D01*
X173057014Y-101878091D01*
X172973814Y-101777500D01*
X172893244Y-101678560D01*
X172799707Y-101562381D01*
X172717992Y-101459848D01*
X172653578Y-101377919D01*
X172611943Y-101323555D01*
X172598601Y-101304325D01*
X172617217Y-101293213D01*
X172674341Y-101285699D01*
X172737837Y-101283623D01*
X172924730Y-101266389D01*
X173123380Y-101218854D01*
X173308562Y-101147266D01*
X173329107Y-101137140D01*
X173456707Y-101072480D01*
X173438135Y-101130995D01*
G37*
G36*
X176410938Y-98043770D02*
G01*
X176432023Y-98077632D01*
X176451152Y-98140626D01*
X176453541Y-98152429D01*
X176468827Y-98224370D01*
X176482993Y-98276572D01*
X176484309Y-98280207D01*
X176474616Y-98303795D01*
X176423437Y-98327241D01*
X176325724Y-98352818D01*
X176320297Y-98354023D01*
X176182905Y-98384609D01*
X176088178Y-98404608D01*
X176027751Y-98413406D01*
X175993260Y-98410389D01*
X175976338Y-98394942D01*
X175968622Y-98366450D01*
X175962379Y-98327730D01*
X175946947Y-98247179D01*
X175932786Y-98180245D01*
X175931314Y-98173966D01*
X175929169Y-98147270D01*
X175943856Y-98127475D01*
X175984425Y-98110465D01*
X176059928Y-98092127D01*
X176151990Y-98073652D01*
X176257671Y-98055230D01*
X176344488Y-98044003D01*
X176399553Y-98041460D01*
X176410938Y-98043770D01*
G37*
G36*
X177296174Y-99006675D02*
G01*
X177309255Y-99065390D01*
X177324197Y-99145789D01*
X177338973Y-99212145D01*
X177340683Y-99218585D01*
X177343341Y-99243955D01*
X177329365Y-99263725D01*
X177290198Y-99281833D01*
X177217278Y-99302217D01*
X177102046Y-99328817D01*
X177100216Y-99329224D01*
X176991135Y-99353157D01*
X176901817Y-99372086D01*
X176843897Y-99383583D01*
X176828521Y-99385920D01*
X176813046Y-99363093D01*
X176792665Y-99305452D01*
X176783025Y-99270268D01*
X176762598Y-99183294D01*
X176759686Y-99127028D01*
X176782075Y-99091685D01*
X176837554Y-99067480D01*
X176933910Y-99044629D01*
X176968423Y-99037321D01*
X177074671Y-99014703D01*
X177166645Y-98994832D01*
X177228260Y-98981192D01*
X177237774Y-98978990D01*
X177275050Y-98978143D01*
X177296174Y-99006675D01*
G37*
G36*
X179188567Y-97822580D02*
G01*
X179214902Y-97879484D01*
X179238847Y-97967002D01*
X179254481Y-98057694D01*
X179255293Y-98086620D01*
X179242860Y-98108032D01*
X179208321Y-98126110D01*
X179142819Y-98145037D01*
X179037495Y-98168993D01*
X179002763Y-98176503D01*
X178884978Y-98202134D01*
X178779568Y-98225539D01*
X178701312Y-98243415D01*
X178673434Y-98250138D01*
X178632076Y-98256982D01*
X178607431Y-98243203D01*
X178589963Y-98197687D01*
X178575942Y-98136548D01*
X178559718Y-98054729D01*
X178549548Y-97991569D01*
X178547799Y-97971810D01*
X178573307Y-97950168D01*
X178648453Y-97923676D01*
X178771172Y-97892994D01*
X178840276Y-97878221D01*
X178959382Y-97853344D01*
X179060865Y-97831381D01*
X179133183Y-97814878D01*
X179163663Y-97806849D01*
X179188567Y-97822580D01*
G37*
G36*
X179348148Y-98538802D02*
G01*
X179373894Y-98593834D01*
X179397164Y-98664961D01*
X179412719Y-98734545D01*
X179415317Y-98784945D01*
X179408660Y-98798534D01*
X179379814Y-98806853D01*
X179312333Y-98823516D01*
X179218375Y-98845749D01*
X179110098Y-98870776D01*
X178999660Y-98895821D01*
X178899217Y-98918108D01*
X178820929Y-98934863D01*
X178776952Y-98943309D01*
X178772328Y-98943807D01*
X178760460Y-98920904D01*
X178742239Y-98862128D01*
X178729280Y-98811715D01*
X178714932Y-98731248D01*
X178714123Y-98674265D01*
X178720188Y-98658600D01*
X178751723Y-98646314D01*
X178821572Y-98626613D01*
X178917095Y-98602446D01*
X179025652Y-98576760D01*
X179134603Y-98552504D01*
X179231310Y-98532625D01*
X179303132Y-98520072D01*
X179325169Y-98517505D01*
X179348148Y-98538802D01*
G37*
G36*
X180066661Y-98056375D02*
G01*
X180081349Y-98119988D01*
X180091647Y-98190520D01*
X180094362Y-98247345D01*
X180089239Y-98268817D01*
X180059526Y-98279520D01*
X179990960Y-98298321D01*
X179895524Y-98322406D01*
X179785202Y-98348961D01*
X179671978Y-98375171D01*
X179567836Y-98398222D01*
X179484760Y-98415299D01*
X179434734Y-98423587D01*
X179428675Y-98423955D01*
X179414987Y-98400806D01*
X179397489Y-98341681D01*
X179387024Y-98294390D01*
X179374033Y-98215946D01*
X179376132Y-98174051D01*
X179394860Y-98155055D01*
X179403078Y-98152046D01*
X179459454Y-98137131D01*
X179546296Y-98117014D01*
X179651886Y-98094080D01*
X179764504Y-98070711D01*
X179872431Y-98049291D01*
X179963948Y-98032204D01*
X180027337Y-98021833D01*
X180050774Y-98020306D01*
X180066661Y-98056375D01*
G37*
G36*
X180211963Y-98706729D02*
G01*
X180227518Y-98763437D01*
X180241345Y-98835958D01*
X180250322Y-98906301D01*
X180251329Y-98956471D01*
X180247263Y-98969035D01*
X180215380Y-98981931D01*
X180144986Y-99002759D01*
X180048403Y-99028508D01*
X179937954Y-99056170D01*
X179825959Y-99082736D01*
X179724739Y-99105197D01*
X179646618Y-99120543D01*
X179605363Y-99125793D01*
X179580865Y-99102042D01*
X179556050Y-99039090D01*
X179543683Y-98989304D01*
X179529239Y-98911950D01*
X179522313Y-98858757D01*
X179523035Y-98844498D01*
X179548740Y-98836663D01*
X179613617Y-98819947D01*
X179706159Y-98797089D01*
X179814856Y-98770830D01*
X179928201Y-98743910D01*
X180034686Y-98719070D01*
X180122803Y-98699048D01*
X180181043Y-98686586D01*
X180197799Y-98683828D01*
X180211963Y-98706729D01*
G37*
G36*
X182789422Y-98123011D02*
G01*
X182811850Y-98181158D01*
X182826202Y-98234556D01*
X182842639Y-98314267D01*
X182843974Y-98357341D01*
X182829191Y-98377192D01*
X182814988Y-98382733D01*
X182774959Y-98392907D01*
X182694881Y-98412084D01*
X182585409Y-98437750D01*
X182457196Y-98467390D01*
X182421494Y-98475578D01*
X182291437Y-98505585D01*
X182178605Y-98532055D01*
X182093201Y-98552561D01*
X182045431Y-98564677D01*
X182040176Y-98566240D01*
X182005270Y-98556058D01*
X181996771Y-98542521D01*
X181985030Y-98496887D01*
X181971275Y-98423352D01*
X181966764Y-98394675D01*
X181949817Y-98280860D01*
X182348143Y-98192481D01*
X182486181Y-98162022D01*
X182606634Y-98135760D01*
X182700219Y-98115694D01*
X182757654Y-98103824D01*
X182770682Y-98101488D01*
X182789422Y-98123011D01*
G37*
G36*
X184657127Y-97037220D02*
G01*
X184672287Y-97070684D01*
X184688010Y-97128458D01*
X184700340Y-97191085D01*
X184705320Y-97239107D01*
X184701195Y-97253940D01*
X184673709Y-97259372D01*
X184603700Y-97274467D01*
X184499360Y-97297422D01*
X184368881Y-97326437D01*
X184228352Y-97357932D01*
X184061478Y-97395527D01*
X183938541Y-97423127D01*
X183852695Y-97441913D01*
X183797094Y-97453068D01*
X183764896Y-97457774D01*
X183749254Y-97457211D01*
X183743325Y-97452562D01*
X183740263Y-97445008D01*
X183738924Y-97442426D01*
X183727685Y-97406246D01*
X183713966Y-97340298D01*
X183710280Y-97318935D01*
X183693169Y-97214944D01*
X184165207Y-97115214D01*
X184315349Y-97084826D01*
X184447943Y-97060522D01*
X184554665Y-97043621D01*
X184627192Y-97035442D01*
X184657127Y-97037220D01*
G37*
G36*
X185811161Y-97094907D02*
G01*
X185835500Y-97148714D01*
X185858470Y-97216072D01*
X185873883Y-97278348D01*
X185875550Y-97316908D01*
X185873643Y-97320181D01*
X185847005Y-97328197D01*
X185777731Y-97345698D01*
X185673905Y-97370732D01*
X185543615Y-97401350D01*
X185398010Y-97434901D01*
X185247443Y-97469493D01*
X185113314Y-97500704D01*
X185004300Y-97526485D01*
X184929078Y-97544783D01*
X184896815Y-97553370D01*
X184859607Y-97545280D01*
X184851676Y-97532980D01*
X184839279Y-97488180D01*
X184823046Y-97416963D01*
X184818884Y-97396929D01*
X184797749Y-97292937D01*
X185279990Y-97183775D01*
X185432510Y-97149519D01*
X185568323Y-97119526D01*
X185679005Y-97095613D01*
X185756134Y-97079600D01*
X185791286Y-97073305D01*
X185791642Y-97073284D01*
X185811161Y-97094907D01*
G37*
G36*
X189230056Y-95155814D02*
G01*
X189243437Y-95212494D01*
X189243992Y-95215079D01*
X189261101Y-95295050D01*
X188668575Y-95416915D01*
X188499754Y-95451474D01*
X188348158Y-95482198D01*
X188221132Y-95507622D01*
X188126020Y-95526284D01*
X188070167Y-95536720D01*
X188058616Y-95538428D01*
X188041617Y-95515778D01*
X188024362Y-95461426D01*
X188023645Y-95458223D01*
X188013994Y-95400332D01*
X188014781Y-95370171D01*
X188015079Y-95369829D01*
X188042121Y-95362263D01*
X188111221Y-95346693D01*
X188213767Y-95324838D01*
X188341147Y-95298421D01*
X188484747Y-95269162D01*
X188635955Y-95238784D01*
X188786158Y-95209007D01*
X188926744Y-95181553D01*
X189049100Y-95158142D01*
X189144613Y-95140496D01*
X189204671Y-95130337D01*
X189221392Y-95128745D01*
X189230056Y-95155814D01*
G37*
G36*
X189410369Y-96014255D02*
G01*
X189417677Y-96074976D01*
X189419540Y-96095959D01*
X189427942Y-96198352D01*
X188881985Y-96321875D01*
X188717607Y-96358561D01*
X188567836Y-96391038D01*
X188440994Y-96417576D01*
X188345400Y-96436449D01*
X188289376Y-96445927D01*
X188280935Y-96446701D01*
X188241423Y-96436329D01*
X188218961Y-96394168D01*
X188210242Y-96351877D01*
X188202153Y-96287594D01*
X188201865Y-96250102D01*
X188203052Y-96247340D01*
X188230180Y-96239075D01*
X188299223Y-96222134D01*
X188401580Y-96198388D01*
X188528652Y-96169707D01*
X188671838Y-96137961D01*
X188822539Y-96105020D01*
X188972153Y-96072754D01*
X189112082Y-96043035D01*
X189233724Y-96017731D01*
X189328480Y-95998713D01*
X189387749Y-95987851D01*
X189403795Y-95986224D01*
X189410369Y-96014255D01*
G37*
G36*
X189486810Y-96375362D02*
G01*
X189499745Y-96447114D01*
X189505460Y-96492166D01*
X189504635Y-96500000D01*
X189478464Y-96505554D01*
X189408910Y-96521116D01*
X189303263Y-96545032D01*
X189168814Y-96575649D01*
X189012850Y-96611314D01*
X188931402Y-96629990D01*
X188765752Y-96667684D01*
X188616290Y-96701086D01*
X188490740Y-96728517D01*
X188396830Y-96748301D01*
X188342284Y-96758761D01*
X188332539Y-96759979D01*
X188308004Y-96737016D01*
X188284441Y-96679211D01*
X188277040Y-96649488D01*
X188264598Y-96580015D01*
X188260495Y-96535614D01*
X188261717Y-96528958D01*
X188288177Y-96520668D01*
X188358268Y-96502823D01*
X188464858Y-96477124D01*
X188600815Y-96445273D01*
X188759006Y-96408971D01*
X188865806Y-96384822D01*
X189462166Y-96250725D01*
X189486810Y-96375362D01*
G37*
G36*
X189523444Y-96585687D02*
G01*
X189539559Y-96627555D01*
X189554995Y-96690772D01*
X189565586Y-96753850D01*
X189567163Y-96795303D01*
X189565106Y-96800468D01*
X189538123Y-96808925D01*
X189469197Y-96826760D01*
X189367111Y-96851922D01*
X189240647Y-96882361D01*
X189098587Y-96916027D01*
X188949712Y-96950869D01*
X188802805Y-96984837D01*
X188666648Y-97015882D01*
X188550024Y-97041952D01*
X188461713Y-97060997D01*
X188410499Y-97070966D01*
X188402250Y-97071955D01*
X188367954Y-97051391D01*
X188361595Y-97039457D01*
X188351588Y-96992416D01*
X188343316Y-96922346D01*
X188342912Y-96917274D01*
X188336028Y-96827588D01*
X188920982Y-96692672D01*
X189138272Y-96643859D01*
X189306369Y-96609030D01*
X189426118Y-96588035D01*
X189498362Y-96580723D01*
X189523444Y-96585687D01*
G37*
G36*
X174387572Y-100723461D02*
G01*
X174421998Y-100783445D01*
X174468709Y-100874175D01*
X174523272Y-100987273D01*
X174543197Y-101030143D01*
X174597647Y-101149011D01*
X174642888Y-101248907D01*
X174675154Y-101321424D01*
X174690678Y-101358157D01*
X174691449Y-101361004D01*
X174668200Y-101349351D01*
X174605744Y-101317150D01*
X174510940Y-101267962D01*
X174390648Y-101205349D01*
X174251730Y-101132872D01*
X174210258Y-101111206D01*
X174068932Y-101035878D01*
X173946342Y-100967694D01*
X173848916Y-100910469D01*
X173783087Y-100868020D01*
X173755283Y-100844162D01*
X173755294Y-100841223D01*
X173789725Y-100827708D01*
X173869482Y-100806675D01*
X173988655Y-100779459D01*
X174141334Y-100747392D01*
X174321607Y-100711808D01*
X174369864Y-100702600D01*
X174387572Y-100723461D01*
G37*
G36*
X176079382Y-99269488D02*
G01*
X176107978Y-99343021D01*
X176118784Y-99385773D01*
X176135027Y-99465215D01*
X176142823Y-99521272D01*
X176141756Y-99538599D01*
X176113325Y-99549003D01*
X176048701Y-99566879D01*
X175962512Y-99588702D01*
X175869386Y-99610948D01*
X175783951Y-99630094D01*
X175720834Y-99642614D01*
X175697847Y-99645549D01*
X175675291Y-99622795D01*
X175655841Y-99566096D01*
X175652364Y-99548260D01*
X175637306Y-99467685D01*
X175622241Y-99400684D01*
X175620823Y-99395376D01*
X175617499Y-99366896D01*
X175632513Y-99346144D01*
X175675288Y-99328153D01*
X175755251Y-99307960D01*
X175809294Y-99296095D01*
X175909888Y-99274799D01*
X175993163Y-99257856D01*
X176044071Y-99248311D01*
X176049517Y-99247495D01*
X176079382Y-99269488D01*
G37*
G36*
X176590342Y-98795136D02*
G01*
X176610289Y-98855710D01*
X176619556Y-98894099D01*
X176635032Y-98971627D01*
X176641333Y-99025862D01*
X176639341Y-99041075D01*
X176610719Y-99051356D01*
X176545366Y-99068938D01*
X176457457Y-99090529D01*
X176361164Y-99112834D01*
X176270662Y-99132559D01*
X176200126Y-99146410D01*
X176165810Y-99151124D01*
X176143741Y-99128610D01*
X176124491Y-99071661D01*
X176120369Y-99050072D01*
X176106171Y-98974351D01*
X176091869Y-98917179D01*
X176089409Y-98910058D01*
X176093279Y-98887710D01*
X176128571Y-98867097D01*
X176202815Y-98844922D01*
X176277838Y-98827607D01*
X176381349Y-98805013D01*
X176470471Y-98785396D01*
X176528548Y-98772424D01*
X176534622Y-98771032D01*
X176567624Y-98770539D01*
X176590342Y-98795136D01*
G37*
G36*
X178618009Y-98701107D02*
G01*
X178625263Y-98708968D01*
X178642301Y-98753935D01*
X178658038Y-98821861D01*
X178669076Y-98892654D01*
X178672016Y-98946221D01*
X178668085Y-98962177D01*
X178639719Y-98972270D01*
X178573250Y-98990385D01*
X178481388Y-99013512D01*
X178376844Y-99038641D01*
X178272326Y-99062762D01*
X178180545Y-99082866D01*
X178114210Y-99095943D01*
X178088928Y-99099327D01*
X178066589Y-99076570D01*
X178041577Y-99017694D01*
X178027336Y-98967703D01*
X178013063Y-98887842D01*
X178012155Y-98831309D01*
X178018243Y-98815694D01*
X178051565Y-98802454D01*
X178124463Y-98781908D01*
X178225551Y-98757060D01*
X178322536Y-98735359D01*
X178450719Y-98709147D01*
X178537038Y-98695194D01*
X178589975Y-98692761D01*
X178618009Y-98701107D01*
G37*
G36*
X183690678Y-97574988D02*
G01*
X183704682Y-97639561D01*
X183718636Y-97714982D01*
X183732314Y-97771183D01*
X183734952Y-97778988D01*
X183727915Y-97796192D01*
X183690445Y-97815655D01*
X183617184Y-97839130D01*
X183502773Y-97868368D01*
X183364538Y-97900092D01*
X183225792Y-97931024D01*
X183101606Y-97958815D01*
X183002480Y-97981107D01*
X182938921Y-97995542D01*
X182924791Y-97998829D01*
X182874090Y-97999090D01*
X182853095Y-97986146D01*
X182839904Y-97945933D01*
X182825912Y-97875930D01*
X182821462Y-97846413D01*
X182805866Y-97732629D01*
X183192967Y-97648321D01*
X183332139Y-97617859D01*
X183456562Y-97590346D01*
X183555823Y-97568104D01*
X183619510Y-97553457D01*
X183634076Y-97549889D01*
X183670085Y-97548079D01*
X183690678Y-97574988D01*
G37*
G36*
X184714248Y-97321214D02*
G01*
X184735502Y-97359757D01*
X184754139Y-97435999D01*
X184766022Y-97511963D01*
X184768237Y-97563791D01*
X184764206Y-97576650D01*
X184733961Y-97585672D01*
X184663547Y-97603241D01*
X184563589Y-97626791D01*
X184449334Y-97652722D01*
X184310986Y-97683748D01*
X184172400Y-97715083D01*
X184052211Y-97742502D01*
X183986310Y-97757730D01*
X183890752Y-97777191D01*
X183835727Y-97780412D01*
X183812499Y-97767779D01*
X183811517Y-97765459D01*
X183799500Y-97721995D01*
X183782794Y-97651345D01*
X183777812Y-97628717D01*
X183754852Y-97522532D01*
X184199585Y-97425655D01*
X184347303Y-97393317D01*
X184479195Y-97364142D01*
X184586074Y-97340186D01*
X184658756Y-97323505D01*
X184686248Y-97316738D01*
X184714248Y-97321214D01*
G37*
G36*
X185747296Y-96801493D02*
G01*
X185766057Y-96841245D01*
X185783469Y-96907588D01*
X185785283Y-96917292D01*
X185801643Y-97009610D01*
X185352971Y-97107743D01*
X185203272Y-97140540D01*
X185068082Y-97170262D01*
X184956917Y-97194809D01*
X184879290Y-97212081D01*
X184847453Y-97219314D01*
X184809684Y-97220566D01*
X184784813Y-97194164D01*
X184762588Y-97128649D01*
X184760954Y-97122629D01*
X184745566Y-97039508D01*
X184754870Y-96998217D01*
X184757049Y-96996595D01*
X184797452Y-96981863D01*
X184876577Y-96960965D01*
X184984762Y-96935804D01*
X185112345Y-96908285D01*
X185249665Y-96880310D01*
X185387059Y-96853784D01*
X185514866Y-96830610D01*
X185623424Y-96812691D01*
X185703071Y-96801931D01*
X185744144Y-96800234D01*
X185747296Y-96801493D01*
G37*
G36*
X174865900Y-98755832D02*
G01*
X174888131Y-98819373D01*
X174893007Y-98846315D01*
X174907278Y-98929098D01*
X174920947Y-98997713D01*
X174923872Y-99010225D01*
X174925626Y-99039456D01*
X174906609Y-99060103D01*
X174856787Y-99077572D01*
X174766128Y-99097270D01*
X174760142Y-99098450D01*
X174667107Y-99117422D01*
X174593178Y-99133742D01*
X174554317Y-99143885D01*
X174554268Y-99143903D01*
X174533444Y-99126370D01*
X174510680Y-99065641D01*
X174493967Y-98994655D01*
X174479587Y-98909372D01*
X174473432Y-98846313D01*
X174476115Y-98821155D01*
X174507989Y-98807852D01*
X174574046Y-98788914D01*
X174657378Y-98768363D01*
X174741077Y-98750219D01*
X174808236Y-98738501D01*
X174833269Y-98736230D01*
X174865900Y-98755832D01*
G37*
G36*
X176656284Y-99125991D02*
G01*
X176679181Y-99177734D01*
X176701153Y-99247979D01*
X176717653Y-99320299D01*
X176724137Y-99378272D01*
X176718560Y-99403821D01*
X176687729Y-99416252D01*
X176620537Y-99435623D01*
X176531560Y-99458433D01*
X176435375Y-99481179D01*
X176346558Y-99500357D01*
X176279683Y-99512465D01*
X176256432Y-99514875D01*
X176225656Y-99498425D01*
X176204377Y-99442197D01*
X176195845Y-99395448D01*
X176182640Y-99316929D01*
X176170281Y-99258600D01*
X176166215Y-99244937D01*
X176184438Y-99223800D01*
X176251965Y-99198784D01*
X176366322Y-99170780D01*
X176380732Y-99167746D01*
X176485562Y-99145389D01*
X176572150Y-99125871D01*
X176626915Y-99112297D01*
X176637008Y-99109174D01*
X176656284Y-99125991D01*
G37*
G36*
X177195638Y-98640175D02*
G01*
X177219680Y-98670709D01*
X177233395Y-98729324D01*
X177247956Y-98804729D01*
X177261115Y-98862402D01*
X177262649Y-98867935D01*
X177258786Y-98889334D01*
X177228629Y-98909255D01*
X177164564Y-98930770D01*
X177058974Y-98956954D01*
X177020782Y-98965574D01*
X176911763Y-98989451D01*
X176822270Y-99008307D01*
X176764086Y-99019700D01*
X176748663Y-99021949D01*
X176730802Y-98999422D01*
X176709024Y-98943583D01*
X176703311Y-98924309D01*
X176680467Y-98830600D01*
X176681314Y-98773531D01*
X176713069Y-98740429D01*
X176782945Y-98718617D01*
X176825435Y-98709766D01*
X176926509Y-98688614D01*
X177022134Y-98666925D01*
X177065916Y-98656072D01*
X177148842Y-98637245D01*
X177195638Y-98640175D01*
G37*
G36*
X178447265Y-97970951D02*
G01*
X178468328Y-98007473D01*
X178488536Y-98085290D01*
X178492098Y-98102634D01*
X178508184Y-98185669D01*
X178518970Y-98246984D01*
X178521801Y-98268874D01*
X178498975Y-98284526D01*
X178442332Y-98300450D01*
X178424309Y-98303841D01*
X178351819Y-98317690D01*
X178248832Y-98339186D01*
X178135473Y-98364106D01*
X178115155Y-98368712D01*
X177903493Y-98416957D01*
X177870984Y-98263771D01*
X177855459Y-98180992D01*
X177848048Y-98121087D01*
X177849507Y-98099554D01*
X177878029Y-98089873D01*
X177946187Y-98072539D01*
X178042674Y-98050312D01*
X178119675Y-98033604D01*
X178233327Y-98009223D01*
X178330666Y-97987799D01*
X178398597Y-97972244D01*
X178420604Y-97966709D01*
X178447265Y-97970951D01*
G37*
G36*
X179117093Y-97476595D02*
G01*
X179130489Y-97506888D01*
X179147836Y-97566010D01*
X179165048Y-97636502D01*
X179178038Y-97700904D01*
X179182722Y-97741758D01*
X179180585Y-97747902D01*
X179152875Y-97753073D01*
X179084678Y-97767148D01*
X178986309Y-97787966D01*
X178870252Y-97812896D01*
X178731641Y-97842705D01*
X178635625Y-97862295D01*
X178573968Y-97872408D01*
X178538440Y-97873788D01*
X178520805Y-97867179D01*
X178512831Y-97853324D01*
X178510344Y-97845394D01*
X178498574Y-97800759D01*
X178481276Y-97729329D01*
X178475806Y-97705867D01*
X178451093Y-97598837D01*
X178776280Y-97529903D01*
X178899796Y-97505120D01*
X179004280Y-97486795D01*
X179079633Y-97476510D01*
X179115754Y-97475843D01*
X179117093Y-97476595D01*
G37*
G36*
X184584220Y-96676819D02*
G01*
X184597692Y-96711292D01*
X184612177Y-96779031D01*
X184619156Y-96824974D01*
X184636197Y-96954964D01*
X184172295Y-97053405D01*
X184023608Y-97084719D01*
X183892802Y-97111816D01*
X183788234Y-97133003D01*
X183718264Y-97146583D01*
X183691487Y-97150897D01*
X183676456Y-97127391D01*
X183656193Y-97068141D01*
X183643061Y-97018556D01*
X183627850Y-96941624D01*
X183623126Y-96887289D01*
X183626364Y-96872339D01*
X183657855Y-96860125D01*
X183729688Y-96840923D01*
X183832064Y-96816732D01*
X183955182Y-96789552D01*
X184089242Y-96761386D01*
X184224442Y-96734232D01*
X184350982Y-96710091D01*
X184459062Y-96690964D01*
X184538881Y-96678852D01*
X184580639Y-96675755D01*
X184584220Y-96676819D01*
G37*
G36*
X184791184Y-97663385D02*
G01*
X184807493Y-97702858D01*
X184818967Y-97772374D01*
X184820983Y-97800309D01*
X184826305Y-97912756D01*
X184423336Y-98007655D01*
X184280462Y-98041379D01*
X184151055Y-98072064D01*
X184045580Y-98097220D01*
X183974502Y-98114354D01*
X183953853Y-98119458D01*
X183914572Y-98125540D01*
X183890726Y-98111039D01*
X183873513Y-98064905D01*
X183859189Y-98000627D01*
X183844508Y-97923882D01*
X183836868Y-97871737D01*
X183836916Y-97858355D01*
X183862874Y-97850724D01*
X183931443Y-97833491D01*
X184034538Y-97808607D01*
X184164074Y-97778025D01*
X184304749Y-97745361D01*
X184481911Y-97706188D01*
X184623022Y-97678459D01*
X184724028Y-97662858D01*
X184780871Y-97660069D01*
X184791184Y-97663385D01*
G37*
G36*
X185597369Y-96146651D02*
G01*
X185613224Y-96189611D01*
X185630031Y-96258494D01*
X185632541Y-96271351D01*
X185640821Y-96335582D01*
X185628817Y-96366702D01*
X185589871Y-96381779D01*
X185589419Y-96381884D01*
X185516253Y-96398366D01*
X185412737Y-96421008D01*
X185288700Y-96447737D01*
X185153973Y-96476475D01*
X185018385Y-96505145D01*
X184891765Y-96531673D01*
X184783945Y-96553981D01*
X184704753Y-96569994D01*
X184664020Y-96577635D01*
X184660954Y-96577994D01*
X184645139Y-96554936D01*
X184626066Y-96496033D01*
X184615560Y-96450930D01*
X184589531Y-96323867D01*
X185084888Y-96221071D01*
X185279562Y-96182054D01*
X185426056Y-96155885D01*
X185526495Y-96142256D01*
X185583003Y-96140858D01*
X185597369Y-96146651D01*
G37*
G36*
X188268035Y-96964806D02*
G01*
X188279770Y-97038548D01*
X188280254Y-97089168D01*
X188275927Y-97100148D01*
X188246061Y-97110455D01*
X188173645Y-97130051D01*
X188066873Y-97156879D01*
X187933937Y-97188884D01*
X187783031Y-97224007D01*
X187777072Y-97225371D01*
X187622503Y-97260765D01*
X187482512Y-97292882D01*
X187366136Y-97319644D01*
X187282412Y-97338973D01*
X187240451Y-97348773D01*
X187191158Y-97350872D01*
X187171956Y-97340540D01*
X187159950Y-97303070D01*
X187145604Y-97235812D01*
X187141336Y-97211401D01*
X187123552Y-97103867D01*
X187430814Y-97033125D01*
X187583926Y-96997797D01*
X187750129Y-96959324D01*
X187905436Y-96923263D01*
X187990163Y-96903521D01*
X188242250Y-96844658D01*
X188268035Y-96964806D01*
G37*
G36*
X174628191Y-99999145D02*
G01*
X174646758Y-100064243D01*
X174662261Y-100127091D01*
X174679754Y-100215460D01*
X174680605Y-100264325D01*
X174665626Y-100283174D01*
X174625094Y-100294410D01*
X174548633Y-100313769D01*
X174450971Y-100337651D01*
X174346833Y-100362450D01*
X174254174Y-100383838D01*
X174215929Y-100389774D01*
X174193461Y-100378508D01*
X174180096Y-100339184D01*
X174169160Y-100260951D01*
X174166942Y-100241969D01*
X174159209Y-100157030D01*
X174157537Y-100095031D01*
X174161245Y-100071951D01*
X174192531Y-100058893D01*
X174258837Y-100039910D01*
X174345893Y-100018231D01*
X174439427Y-99997086D01*
X174525169Y-99979705D01*
X174588845Y-99969319D01*
X174616059Y-99969010D01*
X174628191Y-99999145D01*
G37*
G36*
X175101814Y-99876665D02*
G01*
X175121273Y-99934008D01*
X175139687Y-100008600D01*
X175153256Y-100083273D01*
X175158176Y-100140863D01*
X175153592Y-100162853D01*
X175122817Y-100175519D01*
X175055320Y-100195330D01*
X174965145Y-100218195D01*
X174956532Y-100220231D01*
X174851114Y-100241883D01*
X174788861Y-100246516D01*
X174763949Y-100234543D01*
X174763714Y-100233923D01*
X174751932Y-100191316D01*
X174735207Y-100121530D01*
X174718084Y-100044811D01*
X174705107Y-99981405D01*
X174700738Y-99953312D01*
X174723420Y-99941092D01*
X174782085Y-99921994D01*
X174861840Y-99899876D01*
X174947792Y-99878594D01*
X175025050Y-99862009D01*
X175078721Y-99853977D01*
X175085115Y-99853736D01*
X175101814Y-99876665D01*
G37*
G36*
X177813594Y-98507982D02*
G01*
X177847333Y-98538426D01*
X177870789Y-98601968D01*
X177872586Y-98608559D01*
X177887900Y-98682173D01*
X177891299Y-98736646D01*
X177889328Y-98746531D01*
X177859965Y-98765755D01*
X177792065Y-98789949D01*
X177698268Y-98814878D01*
X177660110Y-98823318D01*
X177554791Y-98845815D01*
X177465297Y-98865692D01*
X177406804Y-98879555D01*
X177397262Y-98882123D01*
X177353520Y-98877637D01*
X177339460Y-98861107D01*
X177326560Y-98815289D01*
X177309179Y-98742640D01*
X177303627Y-98717538D01*
X177279971Y-98608260D01*
X177426424Y-98579146D01*
X177526993Y-98558086D01*
X177622276Y-98536419D01*
X177663869Y-98526082D01*
X177756722Y-98505560D01*
X177813594Y-98507982D01*
G37*
G36*
X182503657Y-96779748D02*
G01*
X182517086Y-96815665D01*
X182528002Y-96883195D01*
X182530795Y-96915150D01*
X182538485Y-97031105D01*
X182148516Y-97115369D01*
X182011380Y-97144676D01*
X181891399Y-97169707D01*
X181798142Y-97188512D01*
X181741179Y-97199141D01*
X181729135Y-97200789D01*
X181706226Y-97178617D01*
X181680995Y-97120922D01*
X181669295Y-97081099D01*
X181655441Y-97006876D01*
X181654611Y-96954777D01*
X181659709Y-96942514D01*
X181694321Y-96929037D01*
X181768041Y-96909613D01*
X181870327Y-96886277D01*
X181990639Y-96861060D01*
X182118434Y-96835995D01*
X182243173Y-96813116D01*
X182354313Y-96794456D01*
X182441314Y-96782048D01*
X182493635Y-96777924D01*
X182503657Y-96779748D01*
G37*
G36*
X182677107Y-97559944D02*
G01*
X182694833Y-97630994D01*
X182699868Y-97679278D01*
X182697069Y-97688976D01*
X182668504Y-97698964D01*
X182599774Y-97717430D01*
X182501542Y-97741905D01*
X182384472Y-97769923D01*
X182259231Y-97799014D01*
X182136482Y-97826712D01*
X182026889Y-97850549D01*
X181941118Y-97868057D01*
X181889834Y-97876768D01*
X181883259Y-97877292D01*
X181857061Y-97855144D01*
X181830772Y-97799350D01*
X181824908Y-97780399D01*
X181807293Y-97710464D01*
X181798074Y-97661184D01*
X181797688Y-97655391D01*
X181821728Y-97641056D01*
X181888365Y-97618817D01*
X181989221Y-97591025D01*
X182115919Y-97560037D01*
X182220010Y-97536727D01*
X182642477Y-97445580D01*
X182677107Y-97559944D01*
G37*
G36*
X183639031Y-97351427D02*
G01*
X183657832Y-97421300D01*
X183665849Y-97466887D01*
X183664812Y-97475174D01*
X183637815Y-97483640D01*
X183570339Y-97500831D01*
X183472707Y-97524388D01*
X183355239Y-97551950D01*
X183228258Y-97581159D01*
X183102086Y-97609655D01*
X182987044Y-97635078D01*
X182893455Y-97655069D01*
X182831640Y-97667267D01*
X182812958Y-97669908D01*
X182791201Y-97647265D01*
X182766903Y-97590409D01*
X182758761Y-97563292D01*
X182744514Y-97493852D01*
X182743137Y-97447276D01*
X182746243Y-97439801D01*
X182775871Y-97428809D01*
X182847544Y-97409136D01*
X182952464Y-97382997D01*
X183081833Y-97352607D01*
X183183417Y-97329728D01*
X183604401Y-97236528D01*
X183639031Y-97351427D01*
G37*
G36*
X183751879Y-97897980D02*
G01*
X183767912Y-97934771D01*
X183783682Y-98002846D01*
X183788891Y-98035739D01*
X183804893Y-98152489D01*
X183392672Y-98249318D01*
X183252122Y-98281947D01*
X183128716Y-98309866D01*
X183031598Y-98331065D01*
X182969913Y-98343532D01*
X182953087Y-98346001D01*
X182933070Y-98322737D01*
X182910773Y-98263070D01*
X182897419Y-98209365D01*
X182882349Y-98133356D01*
X182873666Y-98082901D01*
X182872787Y-98070824D01*
X182910353Y-98058580D01*
X182986352Y-98039892D01*
X183090561Y-98016772D01*
X183212758Y-97991227D01*
X183342719Y-97965269D01*
X183470223Y-97940907D01*
X183585045Y-97920152D01*
X183676965Y-97905013D01*
X183735758Y-97897500D01*
X183751879Y-97897980D01*
G37*
G36*
X188178494Y-96554782D02*
G01*
X188187615Y-96586071D01*
X188195976Y-96650223D01*
X188198458Y-96681207D01*
X188206039Y-96795248D01*
X187725076Y-96905393D01*
X187531803Y-96949712D01*
X187383272Y-96983577D01*
X187273485Y-97007879D01*
X187196442Y-97023511D01*
X187146142Y-97031363D01*
X187116585Y-97032326D01*
X187101773Y-97027293D01*
X187095704Y-97017155D01*
X187092380Y-97002802D01*
X187091521Y-96999520D01*
X187077455Y-96942238D01*
X187062590Y-96873140D01*
X187046171Y-96791317D01*
X187275132Y-96739000D01*
X187529546Y-96681500D01*
X187745386Y-96634042D01*
X187920346Y-96597097D01*
X188052123Y-96571134D01*
X188138409Y-96556623D01*
X188176901Y-96554036D01*
X188178494Y-96554782D01*
G37*
G36*
X175280334Y-98289886D02*
G01*
X175308569Y-98357385D01*
X175320028Y-98401743D01*
X175334691Y-98479669D01*
X175338979Y-98535202D01*
X175335413Y-98551231D01*
X175304186Y-98563922D01*
X175235701Y-98583289D01*
X175143630Y-98605535D01*
X175125144Y-98609654D01*
X175017180Y-98630713D01*
X174952194Y-98636290D01*
X174923657Y-98626803D01*
X174921598Y-98622652D01*
X174900896Y-98544239D01*
X174882920Y-98462362D01*
X174870838Y-98393427D01*
X174867816Y-98353842D01*
X174869013Y-98350263D01*
X174898619Y-98339524D01*
X174963280Y-98323029D01*
X175046882Y-98304240D01*
X175133309Y-98286624D01*
X175206445Y-98273643D01*
X175248093Y-98268774D01*
X175280334Y-98289886D01*
G37*
G36*
X178030890Y-99324251D02*
G01*
X178046000Y-99414601D01*
X178045243Y-99473501D01*
X178038671Y-99487525D01*
X178003172Y-99503353D01*
X177931114Y-99525061D01*
X177836935Y-99548383D01*
X177819856Y-99552181D01*
X177717533Y-99574891D01*
X177628994Y-99595139D01*
X177571776Y-99608907D01*
X177568075Y-99609872D01*
X177529263Y-99612358D01*
X177505175Y-99585625D01*
X177486326Y-99524850D01*
X177460504Y-99421015D01*
X177448740Y-99356838D01*
X177454298Y-99321115D01*
X177480437Y-99302640D01*
X177530421Y-99290210D01*
X177556216Y-99284769D01*
X177650696Y-99263826D01*
X177764952Y-99237815D01*
X177838073Y-99220833D01*
X177999279Y-99182998D01*
X178030890Y-99324251D01*
G37*
G36*
X178373006Y-97640861D02*
G01*
X178395715Y-97696277D01*
X178417755Y-97767114D01*
X178433905Y-97835548D01*
X178438943Y-97883753D01*
X178435694Y-97894671D01*
X178409558Y-97902551D01*
X178344862Y-97918762D01*
X178253837Y-97940494D01*
X178148710Y-97964940D01*
X178041713Y-97989292D01*
X177945073Y-98010741D01*
X177871022Y-98026480D01*
X177831788Y-98033701D01*
X177829413Y-98033879D01*
X177817506Y-98012064D01*
X177804803Y-97969955D01*
X177791746Y-97895976D01*
X177784809Y-97822314D01*
X177780859Y-97738598D01*
X178053838Y-97679033D01*
X178168330Y-97654524D01*
X178264788Y-97634755D01*
X178331389Y-97622098D01*
X178354849Y-97618690D01*
X178373006Y-97640861D01*
G37*
G36*
X181591137Y-97078529D02*
G01*
X181605949Y-97153761D01*
X181610236Y-97206051D01*
X181607182Y-97218986D01*
X181578695Y-97228705D01*
X181510527Y-97246395D01*
X181413927Y-97269552D01*
X181300144Y-97295668D01*
X181180425Y-97322238D01*
X181066020Y-97346755D01*
X180968176Y-97366714D01*
X180898143Y-97379607D01*
X180870402Y-97383140D01*
X180847667Y-97360648D01*
X180826016Y-97303102D01*
X180819283Y-97273439D01*
X180806133Y-97199311D01*
X180798324Y-97146445D01*
X180797499Y-97136950D01*
X180821239Y-97122904D01*
X180887231Y-97101468D01*
X180986668Y-97075077D01*
X181110741Y-97046163D01*
X181178739Y-97031629D01*
X181560856Y-96952307D01*
X181591137Y-97078529D01*
G37*
G36*
X181818284Y-98093338D02*
G01*
X181835117Y-98168901D01*
X181841308Y-98221556D01*
X181838833Y-98235237D01*
X181811173Y-98245744D01*
X181739127Y-98265605D01*
X181621248Y-98295177D01*
X181456087Y-98334820D01*
X181242196Y-98384892D01*
X181129689Y-98410917D01*
X181080112Y-98413678D01*
X181060726Y-98404445D01*
X181049998Y-98368900D01*
X181036594Y-98301213D01*
X181030362Y-98262553D01*
X181022355Y-98217838D01*
X181018108Y-98184732D01*
X181024100Y-98159886D01*
X181046808Y-98139946D01*
X181092711Y-98121563D01*
X181168287Y-98101386D01*
X181280014Y-98076063D01*
X181434370Y-98042242D01*
X181472569Y-98033800D01*
X181784544Y-97964629D01*
X181818284Y-98093338D01*
G37*
G36*
X191099710Y-95296617D02*
G01*
X191114007Y-95361719D01*
X191103697Y-95391818D01*
X191096358Y-95395469D01*
X191029599Y-95417231D01*
X190927235Y-95449792D01*
X190796576Y-95490895D01*
X190644930Y-95538282D01*
X190479606Y-95589696D01*
X190307913Y-95642881D01*
X190137159Y-95695578D01*
X189974654Y-95745532D01*
X189827707Y-95790484D01*
X189703626Y-95828179D01*
X189609720Y-95856358D01*
X189553299Y-95872765D01*
X189540139Y-95876049D01*
X189511233Y-95855679D01*
X189504973Y-95843552D01*
X189495399Y-95797693D01*
X189487446Y-95725776D01*
X189486290Y-95709330D01*
X189479938Y-95607606D01*
X190276228Y-95407810D01*
X191072517Y-95208015D01*
X191099710Y-95296617D01*
G37*
G36*
X177033831Y-97915221D02*
G01*
X177034328Y-97915632D01*
X177050422Y-97950067D01*
X177070697Y-98017059D01*
X177081444Y-98061003D01*
X177110006Y-98187822D01*
X176964470Y-98216745D01*
X176864052Y-98237778D01*
X176768870Y-98259439D01*
X176727942Y-98269619D01*
X176638068Y-98289839D01*
X176584370Y-98286397D01*
X176553631Y-98251867D01*
X176532630Y-98178824D01*
X176528111Y-98157369D01*
X176513799Y-98063689D01*
X176519020Y-98013286D01*
X176527083Y-98003809D01*
X176569109Y-97988362D01*
X176644371Y-97969827D01*
X176739002Y-97950616D01*
X176839131Y-97933139D01*
X176930892Y-97919807D01*
X177000414Y-97913030D01*
X177033831Y-97915221D01*
G37*
G36*
X178689494Y-99046858D02*
G01*
X178715407Y-99105264D01*
X178735721Y-99173978D01*
X178774768Y-99328987D01*
X178537793Y-99383234D01*
X178387824Y-99417975D01*
X178280961Y-99441689D01*
X178209260Y-99453229D01*
X178164777Y-99451445D01*
X178139570Y-99435187D01*
X178125695Y-99403307D01*
X178115208Y-99354655D01*
X178108174Y-99321079D01*
X178091868Y-99240989D01*
X178083492Y-99184839D01*
X178084020Y-99167181D01*
X178111455Y-99159240D01*
X178178876Y-99142847D01*
X178275454Y-99120569D01*
X178365813Y-99100371D01*
X178480488Y-99074694D01*
X178577222Y-99052341D01*
X178644120Y-99036103D01*
X178667733Y-99029551D01*
X178689494Y-99046858D01*
G37*
G36*
X179281740Y-98205516D02*
G01*
X179306035Y-98258377D01*
X179320309Y-98318630D01*
X179345769Y-98447393D01*
X179096272Y-98502727D01*
X178978554Y-98529134D01*
X178871072Y-98553775D01*
X178790014Y-98572915D01*
X178764243Y-98579310D01*
X178715169Y-98589493D01*
X178687036Y-98580224D01*
X178668451Y-98540705D01*
X178650822Y-98471804D01*
X178635653Y-98395937D01*
X178630721Y-98343063D01*
X178633537Y-98329444D01*
X178663641Y-98318108D01*
X178732236Y-98299373D01*
X178826835Y-98276070D01*
X178934951Y-98251026D01*
X179044094Y-98227072D01*
X179141777Y-98207036D01*
X179215511Y-98193746D01*
X179249674Y-98189867D01*
X179281740Y-98205516D01*
G37*
G36*
X172270863Y-97479831D02*
G01*
X172306507Y-97524544D01*
X172367992Y-97600953D01*
X172448346Y-97700424D01*
X172540595Y-97814319D01*
X172602736Y-97890890D01*
X172877234Y-98228864D01*
X172612261Y-98245663D01*
X172433663Y-98261169D01*
X172291697Y-98284380D01*
X172171172Y-98318748D01*
X172056897Y-98367724D01*
X172041811Y-98375292D01*
X171982368Y-98402120D01*
X171947842Y-98411081D01*
X171944319Y-98408515D01*
X171950869Y-98379497D01*
X171969124Y-98308257D01*
X171996993Y-98202701D01*
X172032387Y-98070739D01*
X172073213Y-97920281D01*
X172078903Y-97899435D01*
X172213487Y-97406745D01*
X172270863Y-97479831D01*
G37*
G36*
X175049584Y-99577939D02*
G01*
X175063727Y-99659745D01*
X175077283Y-99727267D01*
X175079754Y-99737746D01*
X175081034Y-99768813D01*
X175058930Y-99790327D01*
X175002908Y-99808764D01*
X174942021Y-99822438D01*
X174849969Y-99842325D01*
X174771838Y-99860162D01*
X174736588Y-99868923D01*
X174704822Y-99871749D01*
X174683508Y-99851892D01*
X174665996Y-99798765D01*
X174652095Y-99734401D01*
X174638366Y-99651823D01*
X174633633Y-99591439D01*
X174637187Y-99569924D01*
X174668253Y-99557373D01*
X174736418Y-99538180D01*
X174827856Y-99516185D01*
X174842437Y-99512945D01*
X175032607Y-99471130D01*
X175049584Y-99577939D01*
G37*
G36*
X176010916Y-98895749D02*
G01*
X176019531Y-98924257D01*
X176033706Y-98987671D01*
X176044158Y-99040069D01*
X176070025Y-99175328D01*
X175843309Y-99228554D01*
X175741513Y-99252164D01*
X175660533Y-99270400D01*
X175612481Y-99280562D01*
X175604778Y-99281781D01*
X175592895Y-99258812D01*
X175574978Y-99199775D01*
X175561896Y-99147195D01*
X175547957Y-99068680D01*
X175545620Y-99012037D01*
X175550932Y-98995044D01*
X175583109Y-98982391D01*
X175649997Y-98964139D01*
X175737472Y-98943337D01*
X175831411Y-98923034D01*
X175917691Y-98906278D01*
X175982187Y-98896119D01*
X176010777Y-98895604D01*
X176010916Y-98895749D01*
G37*
G36*
X176144889Y-99626307D02*
G01*
X176172161Y-99644272D01*
X176186453Y-99680161D01*
X176193866Y-99717247D01*
X176209249Y-99797494D01*
X176223374Y-99864112D01*
X176224664Y-99869603D01*
X176223717Y-99911925D01*
X176186034Y-99934361D01*
X176164394Y-99939513D01*
X176099496Y-99953595D01*
X176006798Y-99974617D01*
X175928864Y-99992750D01*
X175766735Y-100030943D01*
X175742986Y-99935840D01*
X175715504Y-99827478D01*
X175703140Y-99758930D01*
X175712070Y-99718787D01*
X175748471Y-99695641D01*
X175818521Y-99678084D01*
X175890687Y-99663053D01*
X176013603Y-99637386D01*
X176095187Y-99624574D01*
X176144889Y-99626307D01*
G37*
G36*
X177374427Y-99367868D02*
G01*
X177389181Y-99429328D01*
X177404573Y-99504479D01*
X177417095Y-99575478D01*
X177423240Y-99624480D01*
X177422393Y-99635914D01*
X177395098Y-99645079D01*
X177328142Y-99663067D01*
X177232530Y-99687013D01*
X177151541Y-99706471D01*
X176889262Y-99768455D01*
X176858792Y-99613584D01*
X176844006Y-99531059D01*
X176836224Y-99472351D01*
X176836628Y-99452070D01*
X176866012Y-99442280D01*
X176931920Y-99425614D01*
X177021270Y-99404901D01*
X177120981Y-99382976D01*
X177217972Y-99362669D01*
X177299162Y-99346812D01*
X177351470Y-99338238D01*
X177363818Y-99337943D01*
X177374427Y-99367868D01*
G37*
G36*
X177712950Y-97898587D02*
G01*
X177727606Y-97977769D01*
X177735394Y-98032584D01*
X177735363Y-98048613D01*
X177708618Y-98056524D01*
X177644064Y-98071917D01*
X177554855Y-98091962D01*
X177454145Y-98113827D01*
X177355086Y-98134683D01*
X177270834Y-98151698D01*
X177214540Y-98162042D01*
X177199804Y-98163869D01*
X177182415Y-98140685D01*
X177162231Y-98081068D01*
X177149711Y-98027380D01*
X177136217Y-97949707D01*
X177130486Y-97895972D01*
X177131974Y-97881351D01*
X177159680Y-97872292D01*
X177227360Y-97855211D01*
X177324096Y-97832756D01*
X177412681Y-97813219D01*
X177684039Y-97754627D01*
X177712950Y-97898587D01*
G37*
G36*
X181011690Y-98534795D02*
G01*
X181025383Y-98597679D01*
X181036009Y-98651335D01*
X181062121Y-98787830D01*
X180968368Y-98812675D01*
X180902704Y-98829293D01*
X180802522Y-98853736D01*
X180683958Y-98882092D01*
X180611280Y-98899223D01*
X180347945Y-98960926D01*
X180316487Y-98820360D01*
X180300913Y-98741512D01*
X180293850Y-98686092D01*
X180295272Y-98669552D01*
X180323215Y-98659843D01*
X180389946Y-98642068D01*
X180484283Y-98618790D01*
X180595045Y-98592574D01*
X180711050Y-98565982D01*
X180821117Y-98541580D01*
X180914063Y-98521929D01*
X180978707Y-98509595D01*
X181003835Y-98507092D01*
X181011690Y-98534795D01*
G37*
G36*
X181715359Y-97657377D02*
G01*
X181725922Y-97685639D01*
X181742086Y-97746706D01*
X181748951Y-97776164D01*
X181761087Y-97842490D01*
X181755359Y-97885408D01*
X181723064Y-97913388D01*
X181655500Y-97934903D01*
X181566304Y-97953937D01*
X181467988Y-97974406D01*
X181344001Y-98001149D01*
X181219341Y-98028768D01*
X181205889Y-98031802D01*
X180991206Y-98080331D01*
X180977461Y-98024607D01*
X180965178Y-97956005D01*
X180958163Y-97891879D01*
X180952610Y-97814874D01*
X181329580Y-97731884D01*
X181462200Y-97703351D01*
X181575603Y-97680214D01*
X181660706Y-97664225D01*
X181708429Y-97657138D01*
X181715359Y-97657377D01*
G37*
G36*
X181894534Y-98420994D02*
G01*
X181913618Y-98497244D01*
X181925316Y-98553136D01*
X181926994Y-98566837D01*
X181903509Y-98579359D01*
X181839850Y-98600455D01*
X181746604Y-98627435D01*
X181634357Y-98657608D01*
X181513696Y-98688282D01*
X181395208Y-98716768D01*
X181289480Y-98740374D01*
X181207099Y-98756409D01*
X181158651Y-98762183D01*
X181158441Y-98762180D01*
X181138778Y-98738667D01*
X181117654Y-98678406D01*
X181104656Y-98620395D01*
X181079021Y-98478968D01*
X181275795Y-98435739D01*
X181408678Y-98406118D01*
X181556311Y-98372571D01*
X181667553Y-98346830D01*
X181862538Y-98301148D01*
X181894534Y-98420994D01*
G37*
G36*
X174457251Y-99252903D02*
G01*
X174482857Y-99308544D01*
X174503778Y-99379867D01*
X174514354Y-99448925D01*
X174512812Y-99485110D01*
X174480072Y-99521412D01*
X174398857Y-99552636D01*
X174374793Y-99558650D01*
X174271236Y-99581474D01*
X174207068Y-99588153D01*
X174171070Y-99574485D01*
X174152026Y-99536266D01*
X174138885Y-99470266D01*
X174126141Y-99392692D01*
X174117908Y-99336518D01*
X174116435Y-99322743D01*
X174138638Y-99306352D01*
X174195947Y-99284439D01*
X174272469Y-99261621D01*
X174352314Y-99242516D01*
X174419590Y-99231739D01*
X174432621Y-99230886D01*
X174457251Y-99252903D01*
G37*
G36*
X174782019Y-98382956D02*
G01*
X174802187Y-98423625D01*
X174817509Y-98504891D01*
X174817987Y-98508342D01*
X174829084Y-98587272D01*
X174837307Y-98642553D01*
X174839925Y-98657749D01*
X174818003Y-98668727D01*
X174756989Y-98686364D01*
X174668818Y-98707320D01*
X174642762Y-98712933D01*
X174442434Y-98755199D01*
X174412860Y-98612742D01*
X174400252Y-98531470D01*
X174398840Y-98471698D01*
X174405205Y-98451423D01*
X174442755Y-98435240D01*
X174513626Y-98415061D01*
X174599783Y-98395027D01*
X174683191Y-98379282D01*
X174745815Y-98371968D01*
X174751642Y-98371852D01*
X174782019Y-98382956D01*
G37*
G36*
X175525993Y-99371063D02*
G01*
X175538194Y-99401252D01*
X175556714Y-99466159D01*
X175571333Y-99525457D01*
X175604361Y-99667538D01*
X175418711Y-99710787D01*
X175323261Y-99733338D01*
X175245974Y-99752173D01*
X175202451Y-99763484D01*
X175200828Y-99763971D01*
X175172508Y-99749410D01*
X175152808Y-99703330D01*
X175134646Y-99625680D01*
X175115237Y-99546795D01*
X175105931Y-99479448D01*
X175123391Y-99450561D01*
X175124260Y-99450247D01*
X175184726Y-99432938D01*
X175267680Y-99413397D01*
X175358216Y-99394561D01*
X175441430Y-99379368D01*
X175502420Y-99370756D01*
X175525993Y-99371063D01*
G37*
G36*
X174941954Y-99148962D02*
G01*
X174963288Y-99204790D01*
X174983479Y-99276416D01*
X174997862Y-99346064D01*
X175001775Y-99395960D01*
X174998022Y-99408303D01*
X174970007Y-99418325D01*
X174904355Y-99436187D01*
X174814169Y-99458367D01*
X174795185Y-99462816D01*
X174601689Y-99507796D01*
X174572902Y-99364457D01*
X174559082Y-99284329D01*
X174553511Y-99227381D01*
X174555711Y-99209523D01*
X174584796Y-99198952D01*
X174648674Y-99182212D01*
X174731076Y-99162960D01*
X174815736Y-99144852D01*
X174886387Y-99131545D01*
X174924139Y-99126706D01*
X174941954Y-99148962D01*
G37*
G36*
X176738549Y-99498079D02*
G01*
X176764858Y-99530808D01*
X176780330Y-99593060D01*
X176792763Y-99674816D01*
X176809804Y-99788741D01*
X176595665Y-99836673D01*
X176493225Y-99860204D01*
X176408579Y-99880750D01*
X176355987Y-99894813D01*
X176348338Y-99897341D01*
X176319023Y-99883512D01*
X176292574Y-99822312D01*
X176289327Y-99810412D01*
X176263674Y-99709590D01*
X176254210Y-99642894D01*
X176268012Y-99600536D01*
X176312156Y-99572728D01*
X176393720Y-99549681D01*
X176493961Y-99527364D01*
X176613164Y-99501323D01*
X176691338Y-99489906D01*
X176738549Y-99498079D01*
G37*
G36*
X178529065Y-98365304D02*
G01*
X178561191Y-98394231D01*
X178576328Y-98450551D01*
X178582984Y-98538606D01*
X178584630Y-98572503D01*
X178576486Y-98594030D01*
X178544839Y-98614355D01*
X178482220Y-98636269D01*
X178381157Y-98662558D01*
X178282570Y-98685275D01*
X177978343Y-98753385D01*
X177950404Y-98623106D01*
X177938108Y-98545790D01*
X177937251Y-98490682D01*
X177942654Y-98475544D01*
X177974964Y-98463546D01*
X178047030Y-98444297D01*
X178147600Y-98420624D01*
X178245665Y-98399431D01*
X178379810Y-98372248D01*
X178471440Y-98359424D01*
X178529065Y-98365304D01*
G37*
G36*
X179086217Y-97193111D02*
G01*
X179081401Y-97232896D01*
X179089359Y-97298663D01*
X179091945Y-97310904D01*
X179112940Y-97403994D01*
X178823870Y-97460461D01*
X178703444Y-97484359D01*
X178598834Y-97505806D01*
X178522452Y-97522215D01*
X178489176Y-97530216D01*
X178446961Y-97525898D01*
X178434622Y-97509213D01*
X178420584Y-97461168D01*
X178399739Y-97395008D01*
X178373786Y-97315092D01*
X178675276Y-97255002D01*
X178800200Y-97230035D01*
X178911444Y-97207678D01*
X178996148Y-97190523D01*
X179039125Y-97181660D01*
X179081093Y-97179670D01*
X179086217Y-97193111D01*
G37*
G36*
X183486854Y-96652426D02*
G01*
X183508706Y-96742036D01*
X183507101Y-96796617D01*
X183473984Y-96828461D01*
X183401298Y-96849864D01*
X183350921Y-96859861D01*
X183253869Y-96879096D01*
X183126270Y-96905476D01*
X182988318Y-96934790D01*
X182912479Y-96951267D01*
X182636524Y-97011799D01*
X182606562Y-96881997D01*
X182590814Y-96807274D01*
X182583105Y-96757245D01*
X182583541Y-96745618D01*
X182609991Y-96738427D01*
X182678946Y-96722619D01*
X182781984Y-96700043D01*
X182910677Y-96672553D01*
X183025536Y-96648456D01*
X183460591Y-96557871D01*
X183486854Y-96652426D01*
G37*
G36*
X175401540Y-98769790D02*
G01*
X175414376Y-98854838D01*
X175416866Y-98918909D01*
X175410494Y-98944528D01*
X175375999Y-98959237D01*
X175304939Y-98979266D01*
X175211891Y-99000561D01*
X175200225Y-99002952D01*
X175011402Y-99041161D01*
X174996218Y-98972986D01*
X174978783Y-98898447D01*
X174958263Y-98815279D01*
X174945754Y-98753434D01*
X174944556Y-98717610D01*
X174945672Y-98715569D01*
X174974092Y-98705714D01*
X175040692Y-98688478D01*
X175132752Y-98667087D01*
X175163496Y-98660328D01*
X175371140Y-98615267D01*
X175401540Y-98769790D01*
G37*
G36*
X175432150Y-99027503D02*
G01*
X175455443Y-99056990D01*
X175480465Y-99120926D01*
X175493534Y-99169882D01*
X175523221Y-99301696D01*
X175331905Y-99343734D01*
X175220127Y-99367764D01*
X175149006Y-99380578D01*
X175108515Y-99382555D01*
X175088623Y-99374072D01*
X175079302Y-99355508D01*
X175078614Y-99353275D01*
X175066893Y-99308843D01*
X175049507Y-99237184D01*
X175043476Y-99211383D01*
X175018163Y-99101988D01*
X175209307Y-99059462D01*
X175305845Y-99040202D01*
X175384264Y-99028609D01*
X175429402Y-99026856D01*
X175432150Y-99027503D01*
G37*
G36*
X175924727Y-98535875D02*
G01*
X175943698Y-98596747D01*
X175971395Y-98704484D01*
X175984346Y-98773961D01*
X175975448Y-98815913D01*
X175937598Y-98841077D01*
X175863691Y-98860190D01*
X175754790Y-98882276D01*
X175510725Y-98933242D01*
X175480436Y-98779286D01*
X175467650Y-98694597D01*
X175465217Y-98631100D01*
X175471593Y-98606095D01*
X175507002Y-98591272D01*
X175577099Y-98572357D01*
X175649027Y-98556973D01*
X175742940Y-98538281D01*
X175823295Y-98521079D01*
X175861812Y-98511876D01*
X175900616Y-98509267D01*
X175924727Y-98535875D01*
G37*
G36*
X179836561Y-97026959D02*
G01*
X179843606Y-97053825D01*
X179854994Y-97113887D01*
X179859341Y-97139482D01*
X179876924Y-97246005D01*
X179582833Y-97303861D01*
X179460397Y-97328129D01*
X179352727Y-97349805D01*
X179272488Y-97366318D01*
X179234997Y-97374449D01*
X179199619Y-97374744D01*
X179176503Y-97346962D01*
X179156681Y-97279735D01*
X179155186Y-97273263D01*
X179129118Y-97159344D01*
X179480241Y-97090152D01*
X179607933Y-97065469D01*
X179715643Y-97045563D01*
X179793996Y-97032095D01*
X179833617Y-97026728D01*
X179836561Y-97026959D01*
G37*
G36*
X175601088Y-99754309D02*
G01*
X175630828Y-99784923D01*
X175649778Y-99845757D01*
X175668030Y-99942030D01*
X175671309Y-99959728D01*
X175688692Y-100052721D01*
X175486280Y-100096217D01*
X175375258Y-100120052D01*
X175305027Y-100132858D01*
X175265335Y-100133509D01*
X175245930Y-100120883D01*
X175236557Y-100093853D01*
X175231032Y-100068219D01*
X175212426Y-99988576D01*
X175194227Y-99914373D01*
X175173439Y-99832022D01*
X175346238Y-99791602D01*
X175468884Y-99762867D01*
X175550471Y-99748697D01*
X175601088Y-99754309D01*
G37*
G36*
X180879117Y-97927710D02*
G01*
X180899396Y-97991808D01*
X180907152Y-98038443D01*
X180895909Y-98072567D01*
X180859188Y-98099134D01*
X180790513Y-98123095D01*
X180683407Y-98149403D01*
X180550791Y-98178741D01*
X180187969Y-98258489D01*
X180160282Y-98129391D01*
X180145789Y-98054751D01*
X180138981Y-98004942D01*
X180139635Y-97993632D01*
X180166186Y-97986006D01*
X180234176Y-97969682D01*
X180334198Y-97946837D01*
X180456844Y-97919651D01*
X180497646Y-97910756D01*
X180848618Y-97834541D01*
X180879117Y-97927710D01*
G37*
G36*
X173888259Y-97508653D02*
G01*
X173889410Y-97573067D01*
X173887144Y-97674714D01*
X173881928Y-97798975D01*
X173875260Y-97915547D01*
X173855169Y-98226182D01*
X173608188Y-98284837D01*
X173431212Y-98322852D01*
X173301503Y-98341514D01*
X173218104Y-98340908D01*
X173180781Y-98322379D01*
X173192145Y-98296194D01*
X173232057Y-98235998D01*
X173296014Y-98147917D01*
X173379513Y-98038082D01*
X173478051Y-97912620D01*
X173523719Y-97855648D01*
X173881167Y-97412393D01*
X173888259Y-97508653D01*
G37*
G36*
X174333556Y-98602222D02*
G01*
X174346122Y-98683844D01*
X174348295Y-98743832D01*
X174342775Y-98764345D01*
X174309164Y-98778217D01*
X174238966Y-98797565D01*
X174146727Y-98818425D01*
X174137257Y-98820360D01*
X173951382Y-98857962D01*
X173920968Y-98703373D01*
X173906201Y-98620955D01*
X173898443Y-98562389D01*
X173898859Y-98542267D01*
X173926495Y-98534582D01*
X173992270Y-98520076D01*
X174083231Y-98501573D01*
X174105929Y-98497130D01*
X174304694Y-98458510D01*
X174333556Y-98602222D01*
G37*
G36*
X175838963Y-98150153D02*
G01*
X175849042Y-98178101D01*
X175866106Y-98241276D01*
X175880527Y-98300777D01*
X175913557Y-98442865D01*
X175672693Y-98493163D01*
X175431830Y-98543461D01*
X175393788Y-98392443D01*
X175375965Y-98326240D01*
X175367259Y-98281578D01*
X175375084Y-98252240D01*
X175406852Y-98232009D01*
X175469975Y-98214669D01*
X175571867Y-98194004D01*
X175648734Y-98178639D01*
X175738977Y-98161582D01*
X175806690Y-98151288D01*
X175838342Y-98149785D01*
X175838963Y-98150153D01*
G37*
G36*
X173778992Y-98383643D02*
G01*
X173790012Y-98424417D01*
X173790174Y-98434600D01*
X173777031Y-98487875D01*
X173728332Y-98514440D01*
X173718679Y-98516762D01*
X173651129Y-98532073D01*
X173608188Y-98542152D01*
X173561370Y-98533662D01*
X173510181Y-98502654D01*
X173478033Y-98474309D01*
X173471127Y-98455774D01*
X173496587Y-98441234D01*
X173561533Y-98424875D01*
X173621187Y-98412031D01*
X173693290Y-98395406D01*
X173744677Y-98381865D01*
X173778992Y-98383643D01*
G37*
G36*
X173809819Y-98586644D02*
G01*
X173827872Y-98632709D01*
X173841556Y-98692293D01*
X173856030Y-98766403D01*
X173862852Y-98815167D01*
X173862207Y-98825759D01*
X173842608Y-98810574D01*
X173799302Y-98766813D01*
X173757676Y-98721631D01*
X173704366Y-98660066D01*
X173668954Y-98614868D01*
X173660184Y-98599444D01*
X173682688Y-98586473D01*
X173736820Y-98574490D01*
X173737025Y-98574460D01*
X173783048Y-98571186D01*
X173809819Y-98586644D01*
G37*
G36*
X174411353Y-98968206D02*
G01*
X174431290Y-99067653D01*
X174433084Y-99128823D01*
X174408735Y-99164433D01*
X174350242Y-99187203D01*
X174260875Y-99207426D01*
X174081628Y-99245912D01*
X174026894Y-99113856D01*
X173996314Y-99034754D01*
X173976448Y-98973147D01*
X173972159Y-98950807D01*
X173997171Y-98923452D01*
X174068410Y-98895168D01*
X174180185Y-98867831D01*
X174274863Y-98850989D01*
X174382583Y-98834057D01*
X174411353Y-98968206D01*
G37*
G36*
X174127821Y-100514296D02*
G01*
X174134253Y-100541339D01*
X174140566Y-100587082D01*
X174129859Y-100613666D01*
X174091074Y-100629891D01*
X174013152Y-100644558D01*
X174002299Y-100646358D01*
X173889450Y-100665039D01*
X173935935Y-100590861D01*
X173967680Y-100539647D01*
X173983513Y-100513018D01*
X173983843Y-100512297D01*
X174006832Y-100503570D01*
X174053300Y-100490835D01*
X174104574Y-100485707D01*
X174127821Y-100514296D01*
G37*
G36*
X174535511Y-99602484D02*
G01*
X174549195Y-99634233D01*
X174568684Y-99700235D01*
X174583050Y-99757885D01*
X174615717Y-99898413D01*
X174382801Y-99950619D01*
X174149885Y-100002825D01*
X174164659Y-99947779D01*
X174173902Y-99887848D01*
X174179274Y-99803989D01*
X174179788Y-99774012D01*
X174180143Y-99655291D01*
X174350390Y-99621451D01*
X174438714Y-99606370D01*
X174505369Y-99599601D01*
X174535511Y-99602484D01*
G37*
G36*
X174104492Y-100328895D02*
G01*
X174106536Y-100341197D01*
X174110074Y-100399956D01*
X174092460Y-100423068D01*
X174070734Y-100425691D01*
X174037278Y-100416246D01*
X174045670Y-100380302D01*
X174045725Y-100380194D01*
X174072376Y-100320818D01*
X174081527Y-100295701D01*
X174092723Y-100290897D01*
X174104492Y-100328895D01*
G37*
D10*
%TO.C,U1*%
X120910000Y-111650000D02*
X120910000Y-93350000D01*
X154210000Y-93350000D02*
X120910000Y-93350000D01*
X154210000Y-111650000D02*
X120910000Y-111650000D01*
X154210000Y-111650000D02*
X154210000Y-93350000D01*
%TD*%
M02*
