M48
; DRILL file {KiCad 8.0.7} date 2025-01-12T16:58:59-0500
; FORMAT={-:-/ absolute / inch / decimal}
; #@! TF.CreationDate,2025-01-12T16:58:59-05:00
; #@! TF.GenerationSoftware,Kicad,Pcbnew,8.0.7
; #@! TF.FileFunction,Plated,1,2,PTH
FMAT,2
INCH
; #@! TA.AperFunction,Plated,PTH,ViaDrill
T1C0.0118
; #@! TA.AperFunction,Plated,PTH,ComponentDrill
T2C0.0315
; #@! TA.AperFunction,Plated,PTH,ComponentDrill
T3C0.0430
; #@! TA.AperFunction,Plated,PTH,ComponentDrill
T4C0.1693
%
G90
G05
T1
X3.8583Y-5.5906
X4.0551Y-2.9331
X4.0551Y-3.3268
X4.0748Y-4.5276
X4.1142Y-4.7835
X4.1339Y-4.685
X4.1535Y-5.1969
X4.2717Y-2.9331
X4.4488Y-5.689
X4.7441Y-2.815
X4.7441Y-3.248
X4.8425Y-2.815
X4.8425Y-3.248
X4.8819Y-3.5236
X4.9409Y-4.2717
X4.9409Y-4.4291
X4.9803Y-3.5236
X5.0394Y-2.815
X5.0394Y-4.4291
X5.1378Y-2.815
X5.1378Y-3.248
X5.1378Y-4.4291
X5.1575Y-3.8189
X5.2362Y-2.815
X5.2559Y-3.8189
X5.2559Y-4.4291
X5.3543Y-3.8189
X5.3543Y-4.4291
X5.4724Y-3.8189
X5.5315Y-5.689
X6.9094Y-5.0197
X6.9094Y-5.689
X7.2441Y-5.0984
X7.2835Y-4.8031
X7.3031Y-4.7244
X7.4016Y-4.9016
X7.5Y-5.1181
X7.5197Y-2.6181
X7.5787Y-4.9016
X7.5984Y-4.4488
X7.6181Y-2.6181
X7.6181Y-3.1693
X7.6575Y-3.0512
X7.7165Y-4.5079
X7.7165Y-4.6063
X7.7165Y-4.7047
X7.7559Y-4.8031
X7.7559Y-4.8819
X7.7559Y-5.315
X7.7756Y-2.8346
X7.8346Y-4.7638
T2
X3.99Y-4.3347
X3.99Y-4.4331
X3.99Y-4.5316
X3.99Y-4.63
X3.99Y-4.7284
X3.99Y-4.8269
X3.99Y-4.9253
X4.055Y-4.3839
X4.055Y-4.4824
X4.055Y-4.5808
X4.055Y-4.6792
X4.055Y-4.7776
X4.055Y-4.8761
X4.1147Y-5.385
X4.115Y-2.6397
X4.115Y-2.7381
X4.115Y-2.8366
X4.115Y-2.935
X4.115Y-3.0334
X4.115Y-3.1319
X4.115Y-3.2303
X4.1639Y-5.32
X4.18Y-2.6889
X4.18Y-2.7874
X4.18Y-2.8858
X4.18Y-2.9842
X4.18Y-3.0826
X4.18Y-3.1811
X4.2131Y-5.385
X4.2624Y-5.32
X4.3116Y-5.385
X4.3608Y-5.32
X4.41Y-5.385
X4.4592Y-5.32
X4.5084Y-5.385
X4.5576Y-5.32
X4.6069Y-5.385
X4.6561Y-5.32
X4.69Y-2.8819
X4.69Y-3.1819
X4.7053Y-5.385
X4.79Y-2.8819
X4.79Y-3.1819
X4.89Y-2.8819
X4.89Y-3.1819
X4.99Y-2.8819
X4.99Y-3.1819
X5.09Y-2.8819
X5.09Y-3.1819
X5.19Y-2.8819
X5.19Y-3.1819
X5.29Y-2.8819
X5.29Y-3.1819
X5.39Y-2.8819
X5.39Y-3.1819
X6.9747Y-5.39
X7.0239Y-5.325
X7.0731Y-5.39
X7.1224Y-5.325
X7.1716Y-5.39
X7.2208Y-5.325
X7.27Y-5.39
X7.3192Y-5.325
X7.3684Y-5.39
X7.4176Y-5.325
X7.4669Y-5.39
X7.515Y-2.7489
X7.515Y-2.8474
X7.515Y-2.9458
X7.515Y-3.0442
X7.515Y-3.1426
X7.515Y-3.2411
X7.5161Y-5.325
X7.5653Y-5.39
X7.58Y-2.6997
X7.58Y-2.7981
X7.58Y-2.8966
X7.58Y-2.995
X7.58Y-3.0934
X7.58Y-3.1919
X7.58Y-3.2903
X7.655Y-4.4039
X7.655Y-4.5024
X7.655Y-4.6008
X7.655Y-4.6992
X7.655Y-4.7976
X7.655Y-4.8961
X7.72Y-4.3547
X7.72Y-4.4531
X7.72Y-4.5516
X7.72Y-4.65
X7.72Y-4.7484
X7.72Y-4.8469
X7.72Y-4.9453
T3
X4.8102Y-3.7354
X4.8102Y-4.3354
X4.9102Y-3.7354
X4.9102Y-4.3354
X5.0102Y-3.7354
X5.0102Y-4.0354
X5.0102Y-4.1354
X5.0102Y-4.2354
X5.0102Y-4.3354
X5.1102Y-3.7354
X5.1102Y-4.3354
X5.2102Y-3.7354
X5.2102Y-4.3354
X5.3102Y-3.7354
X5.3102Y-4.3354
X5.4102Y-3.7354
X5.4102Y-4.3354
X5.5102Y-3.7354
X5.5102Y-4.3354
X5.6102Y-3.7354
X5.6102Y-4.3354
X5.7102Y-3.7354
X5.7102Y-4.3354
X5.8102Y-3.7354
X5.8102Y-4.3354
X5.9102Y-3.7354
X5.9102Y-4.3354
T4
X5.8465Y-4.6458
M30
