%TF.GenerationSoftware,KiCad,Pcbnew,8.0.7*%
%TF.CreationDate,2025-01-12T16:59:09-05:00*%
%TF.ProjectId,rasgueado,72617367-7565-4616-946f-2e6b69636164,rev?*%
%TF.SameCoordinates,Original*%
%TF.FileFunction,Profile,NP*%
%FSLAX46Y46*%
G04 Gerber Fmt 4.6, Leading zero omitted, Abs format (unit mm)*
G04 Created by KiCad (PCBNEW 8.0.7) date 2025-01-12 16:59:09*
%MOMM*%
%LPD*%
G01*
G04 APERTURE LIST*
%TA.AperFunction,Profile*%
%ADD10C,0.050000*%
%TD*%
%TA.AperFunction,Profile*%
%ADD11C,0.100000*%
%TD*%
G04 APERTURE END LIST*
D10*
X95250000Y-64003600D02*
G75*
G02*
X97250000Y-62003600I2000000J0D01*
G01*
D11*
X108331000Y-110871000D02*
X108077000Y-110617000D01*
X191008000Y-110617000D02*
X188849000Y-110617000D01*
X110490000Y-110871000D02*
X110490000Y-108458000D01*
X108077000Y-108204000D02*
X105918000Y-108204000D01*
D10*
X95250000Y-64003600D02*
X95250000Y-146003600D01*
X97250000Y-148003600D02*
X201200000Y-148003600D01*
D11*
X110490000Y-110871000D02*
X108331000Y-110871000D01*
D10*
X203200000Y-64003600D02*
X203200000Y-146003600D01*
D11*
X191008000Y-108204000D02*
X188849000Y-108204000D01*
X188595000Y-110871000D02*
X186436000Y-110871000D01*
D10*
X201200000Y-62003600D02*
G75*
G02*
X203200000Y-64003600I0J-2000000D01*
G01*
X97250000Y-62003600D02*
X201200000Y-62003600D01*
D11*
X108077000Y-110617000D02*
X105918000Y-110617000D01*
D10*
X97250000Y-148003600D02*
G75*
G02*
X95250000Y-146003600I0J2000000D01*
G01*
D11*
X105918000Y-110617000D02*
X105918000Y-108204000D01*
X110490000Y-108458000D02*
X108331000Y-108458000D01*
X108331000Y-108458000D02*
X108077000Y-108204000D01*
X188849000Y-110617000D02*
X188595000Y-110871000D01*
D10*
X203200000Y-146003600D02*
G75*
G02*
X201200000Y-148003600I-2000000J0D01*
G01*
D11*
X191008000Y-110617000D02*
X191008000Y-108204000D01*
X188849000Y-108204000D02*
X188595000Y-108458000D01*
X186436000Y-110871000D02*
X186436000Y-108458000D01*
X188595000Y-108458000D02*
X186436000Y-108458000D01*
M02*
